<?xml version="1.0" encoding="UTF-8" standalone="no"?>
<!-- Generator: Adobe Illustrator 26.0.0, SVG Export Plug-In . SVG Version: 6.00 Build 0)  -->

<svg
   version="1.1"
   id="Layer_2_00000174597267764522536420000012565207011826721166_"
   x="0px"
   y="0px"
   viewBox="0 0 20 20"
   xml:space="preserve"
   width="20"
   height="20"
   xmlns="http://www.w3.org/2000/svg"
   xmlns:svg="http://www.w3.org/2000/svg"><defs
   id="defs27" />
<style
   type="text/css"
   id="style2">
	.st0{fill:#FF605C;}
	.st1{fill:#981713;}
</style>
<path
   class="st0"
   d="m 15,17 h 1 1 v -1 -1 h 1 1 V 14 13 12 11 10 9 8 7 6 5 H 18 17 V 4 3 H 16 15 V 2 1 H 14 13 12 11 10 9 8 7 6 5 V 2 3 H 4 3 V 4 5 H 2 1 v 1 1 1 1 1 1 1 1 1 1 h 1 1 v 1 1 h 1 1 v 1 1 h 1 1 1 1 1 1 1 1 1 1 V 18 Z M 5,14 V 13 H 6 7 V 12 11 H 8 9 V 10 9 H 8 7 V 8 7 H 6 5 V 6 5 h 1 1 v 1 1 h 1 1 v 1 1 h 1 1 V 8 7 h 1 1 V 6 5 h 1 1 v 1 1 h -1 -1 v 1 1 h -1 -1 v 1 1 h 1 1 v 1 1 h 1 1 v 1 1 H 14 13 V 14 13 H 12 11 V 12 11 H 10 9 v 1 1 H 8 7 v 1 1 H 6 5 Z"
   id="path4" />
<polygon
   class="st1"
   points="13,12 12,12 12,13 12,14 13,14 14,14 14,13 14,12 "
   id="polygon6"
   transform="translate(1,1)" />
<polygon
   class="st1"
   points="4,13 4,14 5,14 6,14 6,13 6,12 5,12 4,12 "
   id="polygon8"
   transform="translate(1,1)" />
<polygon
   class="st1"
   points="11,10 10,10 10,11 10,12 11,12 12,12 12,11 12,10 "
   id="polygon10"
   transform="translate(1,1)" />
<polygon
   class="st1"
   points="6,11 6,12 7,12 8,12 8,11 8,10 7,10 6,10 "
   id="polygon12"
   transform="translate(1,1)" />
<polygon
   class="st1"
   points="8,9 8,10 9,10 10,10 10,9 10,8 9,8 8,8 "
   id="polygon14"
   transform="translate(1,1)" />
<polygon
   class="st1"
   points="10,7 10,8 11,8 12,8 12,7 12,6 11,6 10,6 "
   id="polygon16"
   transform="translate(1,1)" />
<polygon
   class="st1"
   points="7,8 8,8 8,7 8,6 7,6 6,6 6,7 6,8 "
   id="polygon18"
   transform="translate(1,1)" />
<polygon
   class="st1"
   points="12,5 12,6 13,6 14,6 14,5 14,4 13,4 12,4 "
   id="polygon20"
   transform="translate(1,1)" />
<polygon
   class="st1"
   points="5,6 6,6 6,5 6,4 5,4 4,4 4,5 4,6 "
   id="polygon22"
   transform="translate(1,1)" />
</svg>
