<?xml version="1.0" encoding="UTF-8" standalone="no"?>
<!-- Generator: Adobe Illustrator 26.0.0, SVG Export Plug-In . SVG Version: 6.00 Build 0)  -->

<svg
   version="1.1"
   id="Layer_1"
   x="0px"
   y="0px"
   viewBox="0 0 20 20"
   xml:space="preserve"
   width="20"
   height="20"
   xmlns="http://www.w3.org/2000/svg"
   xmlns:svg="http://www.w3.org/2000/svg"><defs
   id="defs11" />
<style
   type="text/css"
   id="style2">
	.st0{fill:#FFEA5B;}
	.st1{fill:#968118;}
</style>
<path
   class="st0"
   d="M 17,5 V 4 3 H 16 15 V 2 1 H 14 13 12 11 10 9 8 7 6 5 V 2 3 H 4 3 V 4 5 H 2 1 v 1 1 1 1 1 1 1 1 1 1 h 1 1 v 1 1 h 1 1 v 1 1 h 1 1 1 1 1 1 1 1 1 1 v -1 -1 h 1 1 v -1 -1 h 1 1 V 14 13 12 11 10 9 8 7 6 5 h -1 z m -2,5 v 1 H 14 13 12 11 10 9 8 7 6 5 V 10 9 h 1 1 1 1 1 1 1 1 1 1 z"
   id="path4" />
<polygon
   class="st1"
   points="7,8 6,8 5,8 4,8 4,9 4,10 5,10 6,10 7,10 8,10 9,10 10,10 11,10 12,10 13,10 14,10 14,9 14,8 13,8 12,8 11,8 10,8 9,8 8,8 "
   id="polygon6"
   transform="translate(1,1)" />
</svg>
