<?xml version="1.0" encoding="UTF-8" standalone="no"?>
<svg
   width="52"
   height="52"
   viewBox="0 0 52 52"
   fill="none"
   version="1.1"
   id="svg6"
   xmlns="http://www.w3.org/2000/svg"
   xmlns:svg="http://www.w3.org/2000/svg">
  <defs
     id="defs10" />
  <path
     d="M26 51C39.8071 51 51 39.8071 51 26C51 12.1929 39.8071 1 26 1C12.1928 1 1 12.1929 1 26C1 39.8071 12.1928 51 26 51Z"
     stroke-width="2"
     stroke-linecap="round"
     stroke-linejoin="round"
     id="path2"
     style="stroke:#ff9722;stroke-opacity:1;fill:#76380b;fill-opacity:1" />
  <g
     id="path4-6">
    <path
       id="path825"
       style="color:#000000;fill:#ff9722;stroke-linejoin:round;-inkscape-stroke:none;paint-order:stroke markers fill"
       d="M 16.855469 10.011719 A 1.0001 1.0001 0 0 0 16.341797 10.248047 L 8.3417969 17.248047 A 1.0001 1.0001 0 0 0 8.3417969 18.751953 L 16.341797 25.751953 A 1.0001 1.0001 0 0 0 18 25 L 18 22 L 32 22 C 33.407992 22 34.314411 22.560624 34.980469 23.466797 C 35.646526 24.37297 36.007069 25.671106 35.990234 26.986328 C 35.973404 28.30155 35.578082 29.61067 34.896484 30.527344 C 34.214886 31.444018 33.317306 32 32 32 L 16 32 A 1.0001 1.0001 0 0 0 15 33 L 15 39 A 1.0001 1.0001 0 0 0 16 40 L 32 40 C 37.833328 40 41.03552 36.925908 42.527344 33.806641 C 44.019167 30.687374 44 27.5 44 27 C 44 26.5 44.019167 23.312626 42.527344 20.193359 C 41.03552 17.074092 37.833328 14 32 14 L 18 14 L 18 11 A 1.0001 1.0001 0 0 0 17.414062 10.089844 A 1.0001 1.0001 0 0 0 16.855469 10.011719 z M 17 11 L 17 15 L 32 15 C 43 15 43 26 43 27 C 43 28 43 39 32 39 L 16 39 L 16 33 L 32 33 C 38.5 33 38.8072 21 32 21 L 17 21 L 17 25 L 9 18 L 17 11 z " />
  </g>
</svg>
