<?xml version="1.0" encoding="UTF-8" standalone="no"?>
<svg
   width="16"
   height="16"
   viewBox="0 0 16 16"
   fill="none"
   version="1.1"
   id="svg20"
   xmlns="http://www.w3.org/2000/svg"
   xmlns:svg="http://www.w3.org/2000/svg">
  <defs
     id="defs24" />
  <path
     id="rect2"
     d="M 3 0 L 3 2 L 5 2 L 7 2 L 7 0 L 5 0 L 3 0 z M 7 2 L 7 14 L 9 14 L 9 2 L 7 2 z M 9 2 L 11 2 L 13 2 L 13 0 L 11 0 L 9 0 L 9 2 z M 9 14 L 9 16 L 11 16 L 13 16 L 13 14 L 11 14 L 9 14 z M 7 14 L 5 14 L 3 14 L 3 16 L 5 16 L 7 16 L 7 14 z "
     style="fill:#ffffff" />
</svg>
