<?xml version="1.0" encoding="UTF-8" standalone="no"?>
<svg
   width="24"
   height="24"
   viewBox="0 0 24 24"
   fill="none"
   version="1.1"
   id="svg6"
   xmlns="http://www.w3.org/2000/svg"
   xmlns:svg="http://www.w3.org/2000/svg">
  <defs
     id="defs10" />
  <path
     id="path2"
     d="M 2 4 L 2 20 L 22 20 L 22 6 L 13 6 L 13 5 L 12 5 L 12 4 L 2 4 z M 4 6 L 11 6 L 11 7 L 12 7 L 12 8 L 20 8 L 20 18 L 4 18 L 4 6 z M 11 10 L 11 12 L 9 12 L 9 14 L 11 14 L 11 16 L 13 16 L 13 14 L 15 14 L 15 12 L 13 12 L 13 10 L 11 10 z "
     style="fill:#ffffff" />
</svg>
