<?xml version="1.0" encoding="UTF-8" standalone="no"?>
<svg
   width="16"
   height="16"
   viewBox="0 0 16 16"
   fill="none"
   version="1.1"
   id="svg23"
   xmlns="http://www.w3.org/2000/svg"
   xmlns:svg="http://www.w3.org/2000/svg">
  <path
     id="rect2"
     d="M 7 0 L 7 5 L 3 5 L 3 7 L 5 7 L 5 9 L 7 9 L 7 11 L 9 11 L 9 9 L 11 9 L 11 7 L 13 7 L 13 5 L 9 5 L 9 0 L 7 0 z M 0 12 L 0 14 L 2 14 L 2 12 L 0 12 z M 2 14 L 2 16 L 14 16 L 14 14 L 2 14 z M 14 14 L 16 14 L 16 12 L 14 12 L 14 14 z "
     style="fill:#ffffff" />
  <defs
     id="defs21">
    <clipPath
       id="clip0_201_21147">
      <rect
         width="16"
         height="16"
         fill="white"
         id="rect18" />
    </clipPath>
  </defs>
</svg>
