<?xml version="1.0" encoding="UTF-8" standalone="no"?>
<svg
   width="24"
   height="24"
   viewBox="0 0 24 24"
   fill="none"
   version="1.1"
   id="svg50"
   xmlns="http://www.w3.org/2000/svg"
   xmlns:svg="http://www.w3.org/2000/svg">
  <defs
     id="defs54" />
  <path
     id="rect2"
     d="M 16 1 L 16 3 L 14 3 L 14 5 L 16 5 L 16 7 L 18 7 L 18 9 L 20 9 L 20 7 L 22 7 L 22 5 L 20 5 L 20 3 L 18 3 L 18 1 L 16 1 z M 11 6 L 11 8 L 13 8 L 13 6 L 11 6 z M 13 8 L 13 10 L 15 10 L 15 8 L 13 8 z M 15 10 L 15 12 L 17 12 L 17 10 L 15 10 z M 15 12 L 13 12 L 13 14 L 15 14 L 15 12 z M 13 14 L 11 14 L 11 16 L 13 16 L 13 14 z M 11 16 L 9 16 L 9 18 L 11 18 L 11 16 z M 9 18 L 7 18 L 7 20 L 9 20 L 9 18 z M 7 20 L 5 20 L 3 20 L 3 18 L 3 16 L 1 16 L 1 18 L 1 20 L 1 22 L 3 22 L 5 22 L 7 22 L 7 20 z M 3 16 L 5 16 L 5 14 L 3 14 L 3 16 z M 5 14 L 7 14 L 7 12 L 5 12 L 5 14 z M 7 12 L 9 12 L 9 10 L 7 10 L 7 12 z M 9 10 L 11 10 L 11 8 L 9 8 L 9 10 z "
     style="fill:#ffffff" />
</svg>
