<?xml version="1.0" encoding="UTF-8" standalone="no"?>
<svg
   width="16"
   height="16"
   viewBox="0 0 16 16"
   fill="none"
   version="1.1"
   id="svg27"
   xmlns="http://www.w3.org/2000/svg"
   xmlns:svg="http://www.w3.org/2000/svg">
  <path
     id="rect2"
     d="M 0 0 L 0 2 L 0 4 L 0 14 L 0 16 L 16 16 L 16 14 L 16 6 L 16 4 L 14 4 L 14 6 L 14 14 L 2 14 L 2 4 L 12 4 L 14 4 L 14 2 L 12 2 L 11 2 L 11 0 L 0 0 z M 7 6 L 7 8 L 5 8 L 5 10 L 7 10 L 7 12 L 9 12 L 9 10 L 11 10 L 11 8 L 9 8 L 9 6 L 7 6 z "
     style="fill:#ffffff" />
  <defs
     id="defs25">
    <clipPath
       id="clip0_201_21144">
      <rect
         width="16"
         height="16"
         fill="white"
         id="rect22" />
    </clipPath>
  </defs>
</svg>
