<?xml version="1.0" encoding="UTF-8" standalone="no"?>
<svg
   width="24"
   height="24"
   viewBox="0 0 24 24"
   fill="none"
   version="1.1"
   id="svg24"
   xmlns="http://www.w3.org/2000/svg"
   xmlns:svg="http://www.w3.org/2000/svg">
  <defs
     id="defs28" />
  <path
     id="rect2"
     d="M 11 6 L 11 12 L 9 12 L 8 12 L 8 13 L 9 13 L 9 14 L 10 14 L 10 15 L 11 15 L 11 16 L 13 16 L 13 15 L 14 15 L 14 14 L 15 14 L 15 13 L 16 13 L 16 12 L 15 12 L 13 12 L 13 6 L 11 6 z M 2 16 L 2 20 L 4 20 L 4 16 L 2 16 z M 4 20 L 4 22 L 20 22 L 20 20 L 4 20 z M 20 20 L 22 20 L 22 16 L 20 16 L 20 20 z "
     style="fill:#ffffff" />
</svg>
