<?xml version="1.0" encoding="UTF-8" standalone="no"?>
<svg
   width="24"
   height="24"
   viewBox="0 0 24 24"
   fill="none"
   version="1.1"
   id="svg28"
   xmlns="http://www.w3.org/2000/svg"
   xmlns:svg="http://www.w3.org/2000/svg">
  <defs
     id="defs32" />
  <path
     id="path2"
     d="M 9 3 L 9 4 L 5 4 L 5 6 L 19 6 L 19 4 L 15 4 L 15 3 L 9 3 z M 6 7 L 6 21 L 8 21 L 16 21 L 18 21 L 18 7 L 6 7 z M 8 9 L 16 9 L 16 19 L 8 19 L 8 9 z M 9 11 L 9 12 L 10 12 L 10 11 L 9 11 z M 10 12 L 10 13 L 11 13 L 11 12 L 10 12 z M 11 13 L 11 14 L 11 15 L 12 15 L 13 15 L 13 14 L 13 13 L 12 13 L 11 13 z M 13 13 L 14 13 L 14 12 L 13 12 L 13 13 z M 14 12 L 15 12 L 15 11 L 14 11 L 14 12 z M 13 15 L 13 16 L 14 16 L 14 15 L 13 15 z M 14 16 L 14 17 L 15 17 L 15 16 L 14 16 z M 11 15 L 10 15 L 10 16 L 11 16 L 11 15 z M 10 16 L 9 16 L 9 17 L 10 17 L 10 16 z "
     style="fill:#ffffff" />
</svg>
