<?xml version="1.0" encoding="UTF-8" standalone="no"?>
<svg
   width="16"
   height="16"
   viewBox="0 0 16 16"
   fill="none"
   version="1.1"
   id="svg30"
   xmlns="http://www.w3.org/2000/svg"
   xmlns:svg="http://www.w3.org/2000/svg">
  <defs
     id="defs34" />
  <path
     id="path2"
     d="M 3 0 L 3 1 L 5 1 L 5 0 L 3 0 z M 7 0 L 7 1 L 9 1 L 9 0 L 7 0 z M 11 0 L 11 1 L 13 1 L 13 0 L 11 0 z M 2 2 L 2 7 L 2 9 L 2 14 L 7 14 L 9 14 L 14 14 L 14 9 L 14 7 L 14 2 L 9 2 L 7 2 L 2 2 z M 0 3 L 0 5 L 1 5 L 1 3 L 0 3 z M 15 3 L 15 5 L 16 5 L 16 3 L 15 3 z M 4 4 L 12 4 L 12 12 L 4 12 L 4 4 z M 6 6 L 6 10 L 10 10 L 10 6 L 6 6 z M 0 7 L 0 9 L 1 9 L 1 7 L 0 7 z M 15 7 L 15 9 L 16 9 L 16 7 L 15 7 z M 0 11 L 0 13 L 1 13 L 1 11 L 0 11 z M 15 11 L 15 13 L 16 13 L 16 11 L 15 11 z M 3 15 L 3 16 L 5 16 L 5 15 L 3 15 z M 7 15 L 7 16 L 9 16 L 9 15 L 7 15 z M 11 15 L 11 16 L 13 16 L 13 15 L 11 15 z "
     style="fill:#ffffff" />
</svg>
