<?xml version="1.0" encoding="UTF-8" standalone="no"?>
<svg
   width="16"
   height="16"
   viewBox="0 0 16 16"
   fill="none"
   version="1.1"
   id="svg4"
   xmlns="http://www.w3.org/2000/svg"
   xmlns:svg="http://www.w3.org/2000/svg">
  <defs
     id="defs8" />
  <path
     id="path2"
     d="M 4 0 L 4 1 L 4 4 L 4 5 L 3 5 L 3 6 L 2 6 L 2 9 L 3 9 L 3 10 L 3 10.5 L 3 11 L 3 12 L 2 12 L 2 16 L 15 16 L 15 1 L 15 0 L 14 0 L 5 0 L 4 0 z M 8 1 L 9 1 L 9 3 L 8 3 L 8 1 z M 10 1 L 11 1 L 11 3 L 10 3 L 10 1 z "
     style="fill:#ffffff" />
</svg>
