<?xml version="1.0" encoding="UTF-8" standalone="no"?>
<svg
   width="16"
   height="16"
   viewBox="0 0 16 16"
   fill="none"
   version="1.1"
   id="svg4"
   xmlns="http://www.w3.org/2000/svg"
   xmlns:svg="http://www.w3.org/2000/svg">
  <defs
     id="defs8" />
  <path
     fill-rule="evenodd"
     clip-rule="evenodd"
     d="M15 16L2 16L2 12L3 12L3 11L3 10.5L3 10L3 9L2 9L2 6L3 6L3 5L4 5L4 4L4 1L4 0L5 0L14 0L15 0L15 1L15 16ZM6 1L7 1L7 3L6 3L6 1ZM9 1L8 1L8 3L9 3L9 1ZM10 1L10 3L11 3L11 1L10 1ZM13 3L12 3L12 1L13 1L13 3Z"
     id="path2"
     style="fill:#ffffff" />
</svg>
