<?xml version="1.0" encoding="UTF-8" standalone="no"?>
<svg
   width="28"
   height="28"
   viewBox="0 0 28 28"
   fill="none"
   version="1.1"
   id="svg30"
   xmlns="http://www.w3.org/2000/svg"
   xmlns:svg="http://www.w3.org/2000/svg">
  <defs
     id="defs34" />
  <path
     id="rect2"
     d="M 1 0 L 1 2 L 1 24 L 3 24 L 3 28 L 25 28 L 25 24 L 27 24 L 27 2 L 27 0 L 1 0 z M 3 2 L 25 2 L 25 22 L 3 22 L 3 2 z M 9 6 L 9 8 L 7 8 L 7 16 L 9 16 L 9 20 L 11 20 L 11 18 L 13 18 L 13 20 L 15 20 L 15 18 L 17 18 L 17 20 L 19 20 L 19 16 L 21 16 L 21 8 L 19 8 L 19 6 L 9 6 z M 9 10 L 11 10 L 11 12 L 13 12 L 13 14 L 11 14 L 9 14 L 9 10 z M 17 10 L 19 10 L 19 14 L 17 14 L 15 14 L 15 12 L 17 12 L 17 10 z "
     style="fill:#ffffff" />
</svg>
