<?xml version="1.0" encoding="UTF-8" standalone="no"?>
<svg
   width="28"
   height="28"
   viewBox="0 0 28 28"
   fill="none"
   version="1.1"
   id="svg60"
   xmlns="http://www.w3.org/2000/svg"
   xmlns:svg="http://www.w3.org/2000/svg">
  <defs
     id="defs64" />
  <path
     id="path2"
     d="M 20 0 L 20 2 L 18 2 L 18 4 L 20 4 L 20 6 L 22 6 L 22 4 L 24 4 L 24 6 L 22 6 L 22 8 L 24 8 L 24 10 L 26 10 L 26 8 L 28 8 L 28 6 L 28 4 L 28 2 L 26 2 L 26 0 L 24 0 L 22 0 L 20 0 z M 24 10 L 22 10 L 22 12 L 24 12 L 24 10 z M 22 12 L 20 12 L 20 14 L 22 14 L 22 12 z M 20 14 L 18 14 L 18 16 L 18 18 L 18 20 L 18 22 L 20 22 L 20 20 L 20 18 L 20 16 L 20 14 z M 18 22 L 16 22 L 16 24 L 18 24 L 18 22 z M 16 24 L 14 24 L 14 26 L 16 26 L 16 24 z M 14 26 L 12 26 L 10 26 L 8 26 L 6 26 L 6 28 L 8 28 L 10 28 L 12 28 L 14 28 L 14 26 z M 6 26 L 6 24 L 4 24 L 4 26 L 6 26 z M 4 24 L 4 22 L 2 22 L 2 24 L 4 24 z M 2 22 L 2 20 L 2 18 L 2 16 L 2 14 L 0 14 L 0 16 L 0 18 L 0 20 L 0 22 L 2 22 z M 2 14 L 4 14 L 4 12 L 2 12 L 2 14 z M 4 12 L 6 12 L 6 10 L 4 10 L 4 12 z M 6 10 L 8 10 L 10 10 L 12 10 L 14 10 L 14 8 L 12 8 L 10 8 L 8 8 L 6 8 L 6 10 z M 14 8 L 16 8 L 16 6 L 14 6 L 14 8 z M 16 6 L 18 6 L 18 4 L 16 4 L 16 6 z M 18 6 L 18 8 L 20 8 L 20 6 L 18 6 z M 20 8 L 20 10 L 22 10 L 22 8 L 20 8 z M 20 10 L 18 10 L 18 12 L 20 12 L 20 10 z M 18 12 L 16 12 L 16 14 L 18 14 L 18 12 z M 16 12 L 16 10 L 14 10 L 14 12 L 16 12 z M 16 10 L 18 10 L 18 8 L 16 8 L 16 10 z M 8 12 L 8 14 L 10 14 L 12 14 L 12 12 L 10 12 L 8 12 z M 12 14 L 12 16 L 14 16 L 14 14 L 12 14 z M 14 16 L 14 18 L 14 20 L 16 20 L 16 18 L 16 16 L 14 16 z M 14 20 L 12 20 L 12 22 L 14 22 L 14 20 z M 12 22 L 10 22 L 8 22 L 8 24 L 10 24 L 12 24 L 12 22 z M 8 22 L 8 20 L 6 20 L 6 22 L 8 22 z M 6 20 L 6 18 L 6 16 L 4 16 L 4 18 L 4 20 L 6 20 z M 6 16 L 8 16 L 8 14 L 6 14 L 6 16 z "
     style="fill:#ffffff" />
</svg>
