<?xml version="1.0" encoding="UTF-8" standalone="no"?>
<svg
   width="28"
   height="28"
   viewBox="0 0 28 28"
   fill="none"
   version="1.1"
   id="svg22"
   xmlns="http://www.w3.org/2000/svg"
   xmlns:svg="http://www.w3.org/2000/svg">
  <defs
     id="defs26" />
  <path
     id="path2"
     d="M 6 0 L 6 2 L 8 2 L 10 2 L 12 2 L 14 2 L 16 2 L 18 2 L 20 2 L 22 2 L 22 0 L 20 0 L 18 0 L 16 0 L 14 0 L 12 0 L 10 0 L 8 0 L 6 0 z M 22 2 L 22 4 L 24 4 L 26 4 L 26 2 L 24 2 L 22 2 z M 26 4 L 26 6 L 28 6 L 28 4 L 26 4 z M 6 2 L 4 2 L 2 2 L 2 4 L 4 4 L 6 4 L 6 2 z M 2 4 L 0 4 L 0 6 L 2 6 L 2 4 z M 8 6 L 8 8 L 10 8 L 12 8 L 14 8 L 16 8 L 18 8 L 20 8 L 20 6 L 18 6 L 16 6 L 14 6 L 12 6 L 10 6 L 8 6 z M 20 8 L 20 10 L 22 10 L 22 8 L 20 8 z M 8 8 L 6 8 L 6 10 L 8 10 L 8 8 z M 10 12 L 10 14 L 12 14 L 14 14 L 16 14 L 18 14 L 18 12 L 16 12 L 14 12 L 12 12 L 10 12 z M 10 18 L 10 20 L 8 20 L 8 22 L 6 22 L 6 24 L 6 26 L 4 26 L 2 26 L 0 26 L 0 28 L 2 28 L 4 28 L 6 28 L 8 28 L 10 28 L 12 28 L 14 28 L 16 28 L 18 28 L 20 28 L 22 28 L 24 28 L 26 28 L 28 28 L 28 26 L 26 26 L 24 26 L 22 26 L 22 24 L 22 22 L 20 22 L 20 20 L 18 20 L 18 18 L 16 18 L 14 18 L 12 18 L 10 18 z "
     style="fill:#ffffff" />
</svg>
