<?xml version="1.0" encoding="UTF-8" standalone="no"?>
<svg
   width="28"
   height="28"
   viewBox="0 0 28 28"
   fill="none"
   version="1.1"
   id="svg42"
   xmlns="http://www.w3.org/2000/svg"
   xmlns:svg="http://www.w3.org/2000/svg">
  <defs
     id="defs46" />
  <path
     id="rect2"
     d="M 8 0 L 8 2 L 10 2 L 10 0 L 8 0 z M 13 0 L 13 2 L 15 2 L 15 0 L 13 0 z M 18 0 L 18 2 L 20 2 L 20 0 L 18 0 z M 4 4 L 4 24 L 6 24 L 22 24 L 24 24 L 24 4 L 22 4 L 6 4 L 4 4 z M 6 6 L 22 6 L 22 22 L 6 22 L 6 6 z M 0 8 L 0 10 L 2 10 L 2 8 L 0 8 z M 26 8 L 26 10 L 28 10 L 28 8 L 26 8 z M 9 9 L 9 11 L 9 17 L 9 19 L 19 19 L 19 17 L 19 11 L 19 9 L 9 9 z M 11 11 L 17 11 L 17 17 L 11 17 L 11 11 z M 0 13 L 0 15 L 2 15 L 2 13 L 0 13 z M 26 13 L 26 15 L 28 15 L 28 13 L 26 13 z M 0 18 L 0 20 L 2 20 L 2 18 L 0 18 z M 26 18 L 26 20 L 28 20 L 28 18 L 26 18 z M 8 26 L 8 28 L 10 28 L 10 26 L 8 26 z M 13 26 L 13 28 L 15 28 L 15 26 L 13 26 z M 18 26 L 18 28 L 20 28 L 20 26 L 18 26 z "
     style="fill:#ffffff" />
</svg>
