<?xml version="1.0" encoding="UTF-8" standalone="no"?>
<svg
   width="28"
   height="28"
   viewBox="0 0 28 28"
   fill="none"
   version="1.1"
   id="svg24"
   xmlns="http://www.w3.org/2000/svg"
   xmlns:svg="http://www.w3.org/2000/svg">
  <defs
     id="defs28" />
  <path
     id="path2"
     d="M 22 0 L 22 2 L 24 2 L 24 0 L 22 0 z M 24 2 L 24 4 L 24 6 L 26 6 L 26 4 L 26 2 L 24 2 z M 26 6 L 26 8 L 26 10 L 26 12 L 26 14 L 26 16 L 26 18 L 26 20 L 26 22 L 28 22 L 28 20 L 28 18 L 28 16 L 28 14 L 28 12 L 28 10 L 28 8 L 28 6 L 26 6 z M 26 22 L 24 22 L 24 24 L 24 26 L 26 26 L 26 24 L 26 22 z M 24 26 L 22 26 L 22 28 L 24 28 L 24 26 z M 18 4 L 18 6 L 18 8 L 20 8 L 20 6 L 20 4 L 18 4 z M 20 8 L 20 10 L 20 12 L 20 14 L 20 16 L 20 18 L 20 20 L 22 20 L 22 18 L 22 16 L 22 14 L 22 12 L 22 10 L 22 8 L 20 8 z M 20 20 L 18 20 L 18 22 L 18 24 L 20 24 L 20 22 L 20 20 z M 2 8 L 2 10 L 0 10 L 0 12 L 0 14 L 0 16 L 0 18 L 2 18 L 2 16 L 2 14 L 2 12 L 4 12 L 4 14 L 6 14 L 6 16 L 8 16 L 8 18 L 10 18 L 10 20 L 12 20 L 14 20 L 14 18 L 16 18 L 16 16 L 16 14 L 16 12 L 16 10 L 14 10 L 14 12 L 14 14 L 14 16 L 12 16 L 10 16 L 10 14 L 8 14 L 8 12 L 6 12 L 6 10 L 4 10 L 4 8 L 2 8 z M 14 10 L 14 8 L 12 8 L 12 10 L 14 10 z M 2 18 L 2 20 L 4 20 L 4 18 L 2 18 z "
     style="fill:#ffffff" />
</svg>
