<?xml version="1.0" encoding="UTF-8" standalone="no"?>
<svg
   width="28"
   height="28"
   viewBox="0 0 28 28"
   fill="none"
   version="1.1"
   id="svg51"
   xmlns="http://www.w3.org/2000/svg"
   xmlns:svg="http://www.w3.org/2000/svg">
  <path
     id="path2"
     style="fill:#ffffff"
     d="M 14 0 L 14 2 L 16 2 L 18 2 L 20 2 L 22 2 L 22 0 L 20 0 L 18 0 L 16 0 L 14 0 z M 22 2 L 22 4 L 24 4 L 24 2 L 22 2 z M 24 4 L 24 6 L 26 6 L 26 4 L 24 4 z M 26 6 L 26 8 L 26 10 L 26 12 L 26 14 L 28 14 L 28 12 L 28 10 L 28 8 L 28 6 L 26 6 z M 16 4 L 16 6 L 18 6 L 20 6 L 20 4 L 18 4 L 16 4 z M 20 6 L 20 8 L 22 8 L 22 6 L 20 6 z M 22 8 L 22 10 L 22 12 L 24 12 L 24 10 L 24 8 L 22 8 z M 2 8 L 2 10 L 4 10 L 6 10 L 8 10 L 8 8 L 6 8 L 4 8 L 2 8 z M 8 10 L 8 12 L 10 12 L 12 12 L 14 12 L 14 10 L 12 10 L 10 10 L 8 10 z M 14 12 L 14 14 L 16 14 L 18 14 L 18 12 L 16 12 L 14 12 z M 18 14 L 18 16 L 18 18 L 18 20 L 18 22 L 18 24 L 20 24 L 20 22 L 20 20 L 20 18 L 20 16 L 20 14 L 18 14 z M 18 24 L 16 24 L 16 26 L 18 26 L 18 24 z M 16 26 L 14 26 L 12 26 L 10 26 L 8 26 L 6 26 L 6 28 L 8 28 L 10 28 L 12 28 L 14 28 L 16 28 L 16 26 z M 6 26 L 6 24 L 6 22 L 4 22 L 4 24 L 4 26 L 6 26 z M 4 22 L 4 20 L 4 18 L 4 16 L 2 16 L 2 18 L 2 20 L 2 22 L 4 22 z M 2 16 L 2 14 L 2 12 L 2 10 L 0 10 L 0 12 L 0 14 L 0 16 L 2 16 z M 4 12 L 4 14 L 6 14 L 6 12 L 4 12 z M 10 16 L 10 18 L 12 18 L 14 18 L 14 16 L 12 16 L 10 16 z M 14 18 L 14 20 L 14 22 L 16 22 L 16 20 L 16 18 L 14 18 z M 14 22 L 12 22 L 10 22 L 10 24 L 12 24 L 14 24 L 14 22 z M 10 22 L 10 20 L 10 18 L 8 18 L 8 20 L 8 22 L 10 22 z " />
  <defs
     id="defs49">
    <clipPath
       id="clip0_1_5583">
      <rect
         width="28"
         height="28"
         fill="white"
         id="rect46" />
    </clipPath>
  </defs>
</svg>
