<?xml version="1.0" encoding="UTF-8" standalone="no"?>
<svg
   width="28"
   height="28"
   viewBox="0 0 28 28"
   fill="none"
   version="1.1"
   id="svg4"
   xmlns="http://www.w3.org/2000/svg"
   xmlns:svg="http://www.w3.org/2000/svg">
  <defs
     id="defs8" />
  <path
     id="path2"
     d="M 7 0 L 7 1 L 7 2 L 7 3 L 7 8 L 5 8 L 5 10 L 3 10 L 3 12 L 3 14 L 5 14 L 5 20 L 3 20 L 3 28 L 23 28 L 25 28 L 25 26 L 25 2 L 25 0 L 23 0 L 9 0 L 8 0 L 7 0 z M 13 2 L 15 2 L 15 6 L 13 6 L 13 2 z M 17 2 L 19 2 L 19 6 L 17 6 L 17 2 z "
     style="fill:#ffffff" />
</svg>
