<?xml version="1.0" encoding="UTF-8" standalone="no"?>
<svg
   width="28"
   height="28"
   viewBox="0 0 28 28"
   fill="none"
   version="1.1"
   id="svg42"
   xmlns="http://www.w3.org/2000/svg"
   xmlns:svg="http://www.w3.org/2000/svg">
  <defs
     id="defs46" />
  <path
     id="path2"
     d="M 4 0 L 4 2 L 6 2 L 6 0 L 4 0 z M 4 2 L 2 2 L 2 4 L 4 4 L 4 2 z M 2 4 L 0 4 L 0 6 L 0 8 L 0 10 L 0 12 L 0 14 L 0 16 L 2 16 L 2 14 L 2 12 L 2 10 L 2 8 L 2 6 L 2 4 z M 2 16 L 2 18 L 4 18 L 4 16 L 2 16 z M 4 18 L 4 20 L 6 20 L 6 18 L 4 18 z M 22 0 L 22 2 L 24 2 L 24 0 L 22 0 z M 24 2 L 24 4 L 26 4 L 26 2 L 24 2 z M 26 4 L 26 6 L 26 8 L 26 10 L 26 12 L 26 14 L 26 16 L 28 16 L 28 14 L 28 12 L 28 10 L 28 8 L 28 6 L 28 4 L 26 4 z M 26 16 L 24 16 L 24 18 L 26 18 L 26 16 z M 24 18 L 22 18 L 22 20 L 24 20 L 24 18 z M 6 4 L 6 6 L 8 6 L 8 4 L 6 4 z M 6 6 L 4 6 L 4 8 L 4 10 L 4 12 L 4 14 L 6 14 L 6 12 L 6 10 L 6 8 L 6 6 z M 6 14 L 6 16 L 8 16 L 8 14 L 6 14 z M 20 4 L 20 6 L 22 6 L 22 4 L 20 4 z M 22 6 L 22 8 L 22 10 L 22 12 L 22 14 L 24 14 L 24 12 L 24 10 L 24 8 L 24 6 L 22 6 z M 22 14 L 20 14 L 20 16 L 22 16 L 22 14 z M 8 8 L 8 10 L 8 12 L 10 12 L 10 10 L 10 8 L 8 8 z M 12 8 L 12 10 L 12 12 L 14 12 L 16 12 L 16 10 L 16 8 L 14 8 L 12 8 z M 18 8 L 18 10 L 18 12 L 20 12 L 20 10 L 20 8 L 18 8 z M 12 14 L 12 16 L 12 18 L 12 20 L 12 22 L 12 24 L 12 26 L 12 28 L 14 28 L 16 28 L 16 26 L 16 24 L 16 22 L 16 20 L 16 18 L 16 16 L 16 14 L 14 14 L 12 14 z "
     style="fill:#ffffff" />
</svg>
