<?xml version="1.0" encoding="UTF-8" standalone="no"?>
<svg
   width="8"
   height="14"
   viewBox="0 0 8 14"
   fill="none"
   version="1.1"
   id="svg16"
   xmlns="http://www.w3.org/2000/svg"
   xmlns:svg="http://www.w3.org/2000/svg">
  <defs
     id="defs20" />
  <path
     id="rect2"
     d="M 6 0 L 6 2 L 8 2 L 8 0 L 6 0 z M 6 2 L 4 2 L 4 4 L 6 4 L 6 2 z M 4 4 L 2 4 L 2 6 L 4 6 L 4 4 z M 2 6 L 0 6 L 0 8 L 2 8 L 2 6 z M 2 8 L 2 10 L 4 10 L 4 8 L 2 8 z M 4 10 L 4 12 L 6 12 L 6 10 L 4 10 z M 6 12 L 6 14 L 8 14 L 8 12 L 6 12 z "
     style="fill:#ffffff" />
</svg>
