<?xml version="1.0" encoding="UTF-8" standalone="no"?>
<!-- Generator: Adobe Illustrator 26.0.0, SVG Export Plug-In . SVG Version: 6.00 Build 0)  -->

<svg
   version="1.1"
   id="Layer_1"
   x="0px"
   y="0px"
   viewBox="0 0 18 20"
   xml:space="preserve"
   width="18"
   height="20"
   xmlns="http://www.w3.org/2000/svg"
   xmlns:svg="http://www.w3.org/2000/svg"><defs
   id="defs11" />
<g
   id="g6"
   style="fill:#ffffff">
	<path
   d="M 18,18 C 18,12 18,6 18,0 12.7,0 7.3,0 2,0 c 0,0.5 0,1.5 0,2 1.3,0 2.7,0 4,0 0,0.5 0,1.5 0,2 1.9,0 4.1,0 6,0 0,-0.5 0,-1.5 0,-2 1.3,0 2.7,0 4,0 0,5.3 0,10.7 0,16 C 11.4,18 6.6,18 2,18 2,12.7 2,7.3 2,2 1.5,2 0.5,2 0,2 c 0,6 0,12 0,18 6,0 12,0 18,0 0,-0.5 0,-1.5 0,-2 z"
   id="path2"
   style="fill:#ffffff" />
	<path
   d="M 8,6 C 8,6.5 8,7.5 8,8 7.5,8 6.5,8 6,8 c 0,0.5 0,1.5 0,2 -0.5,0 -1.5,0 -2,0 0,0.5 0,1.5 0,2 1.3,0 2.7,0 4,0 0,1.3 0,2.7 0,4 0.5,0 1.5,0 2,0 0,-1.3 0,-2.7 0,-4 1.3,0 2.7,0 4,0 0,-0.5 0,-1.5 0,-2 -0.5,0 -1.5,0 -2,0 C 12,9.5 12,8.5 12,8 11.5,8 10.5,8 10,8 10,7.5 10,6.5 10,6 9.5,6 8.5,6 8,6 Z"
   id="path4"
   style="fill:#ffffff" />
</g>
</svg>
