<?xml version="1.0" encoding="UTF-8" standalone="no"?>
<svg
   width="27"
   height="27"
   viewBox="0 0 27 27"
   fill="none"
   version="1.1"
   id="svg42"
   xmlns="http://www.w3.org/2000/svg"
   xmlns:svg="http://www.w3.org/2000/svg">
  <defs
     id="defs46" />
  <path
     id="rect911"
     style="fill:#ffffff;stroke:none;stroke-width:2;paint-order:stroke fill markers"
     d="M 4,1 V 3 H 8 V 1 Z M 4,3 H 2 v 9 H 4 Z M 2,12 H 0 v 2 h 2 z m 0,2 v 9 h 2 v -9 z m 2,9 v 2 h 4 v -2 z" />
  <path
     id="path1515"
     style="fill:#ffffff;stroke:none;stroke-width:2;paint-order:stroke fill markers"
     d="M 23,1 V 3 H 19 V 1 Z m 0,2 h 2 v 9 h -2 z m 2,9 h 2 v 2 h -2 z m 0,2 v 9 h -2 v -9 z m -2,9 v 2 h -4 v -2 z" />
  <path
     id="rect7685"
     style="fill:#ffffff;stroke:none;stroke-width:2;paint-order:stroke fill markers"
     d="m 8,6 v 4 h 2 V 6 Z m 2,4 v 2 h 2 v -2 z m 2,2 v 2 h 3 v -2 z m 3,0 h 2 v -2 h -2 z m 2,-2 h 2 V 6 h -2 z m -2,4 v 2 h 2 v -2 z m 2,2 v 4 h 2 v -4 z m -5,-2 h -2 v 2 h 2 z m -2,2 H 8 v 4 h 2 z" />
</svg>
