<?xml version="1.0" encoding="UTF-8" standalone="no"?>
<svg
   width="22"
   height="22"
   viewBox="0 0 22 22"
   fill="none"
   version="1.1"
   id="svg22"
   xmlns="http://www.w3.org/2000/svg"
   xmlns:svg="http://www.w3.org/2000/svg">
  <defs
     id="defs26" />
  <path
     id="path2"
     style="fill:#ffffff"
     d="M 4 0 L 4 2 L 6.7792969 2 L 9.5566406 2 L 12.335938 2 L 15.220703 2 L 18 2 L 18 0 L 15.220703 0 L 12.335938 0 L 9.5566406 0 L 6.7792969 0 L 4 0 z M 18 2 L 18 4 L 20 4 L 20 2 L 18 2 z M 20 4 L 20 6.7792969 L 20 9.5566406 L 20 12.443359 L 20 15.220703 L 20 18 L 22 18 L 22 15.220703 L 22 12.443359 L 22 9.5566406 L 22 6.7792969 L 22 4 L 20 4 z M 20 18 L 18 18 L 18 20 L 20 20 L 20 18 z M 18 20 L 15.220703 20 L 12.335938 20 L 9.5566406 20 L 6.7792969 20 L 4 20 L 4 22 L 6.7792969 22 L 9.5566406 22 L 12.335938 22 L 15.220703 22 L 18 22 L 18 20 z M 4 20 L 4 18 L 2 18 L 2 20 L 4 20 z M 2 18 L 2 15.220703 L 2 12.443359 L 2 9.5566406 L 2 6.7792969 L 2 4 L 0 4 L 0 6.7792969 L 0 9.5566406 L 0 12.443359 L 0 15.220703 L 0 18 L 2 18 z M 2 4 L 4 4 L 4 2 L 2 2 L 2 4 z M 10 5 L 10 7 L 12 7 L 12 5 L 10 5 z M 10 9 L 10 11.632812 L 10 14.367188 L 10 17 L 12 17 L 12 14.367188 L 12 11.632812 L 12 9 L 10 9 z " />
</svg>
