<?xml version="1.0" encoding="UTF-8" standalone="no"?>
<svg
   width="32"
   height="32"
   viewBox="0 0 32 32"
   fill="none"
   version="1.1"
   id="svg26"
   xmlns="http://www.w3.org/2000/svg"
   xmlns:svg="http://www.w3.org/2000/svg">
  <defs
     id="defs30" />
  <path
     id="path2"
     d="M 6,0 V 3 H 9.9687501 13.9375 17.908203 22.029297 26 V 0 H 22.029297 17.908203 13.9375 9.9687501 Z m 20,3 v 3 h 3 V 3 Z m 3,3 V 9.96875 13.939453 18.060547 22.03125 26 h 3 V 22.03125 18.060547 13.939453 9.96875 6 Z m 0,20 h -3 v 3 h 3 z m -3,3 H 22.029297 17.908203 13.9375 9.9687501 6 v 3 H 9.9687501 13.9375 17.908203 22.029297 26 Z M 6,29 V 26 H 3 v 3 z M 3,26 V 22.03125 18.060547 13.939453 9.96875 6 H -0.00195315 V 9.96875 13.939453 18.060547 22.03125 26 Z M 3,6 H 6 V 3 H 3 Z m 11,1 v 3 h 4 V 7 Z m -2,5 v 2 h 2 V 16.962891 20.037109 23 h -2 v 2 h 8 V 23 H 18 V 20.037109 16.962891 14 h 2 v -2 z"
     style="fill:#ffffff" />
</svg>
