<?xml version="1.0" encoding="UTF-8" standalone="no"?>
<svg
   width="16"
   height="16"
   viewBox="0 0 16 16"
   fill="none"
   version="1.1"
   id="svg48"
   xmlns="http://www.w3.org/2000/svg"
   xmlns:svg="http://www.w3.org/2000/svg">
  <defs
     id="defs52" />
  <path
     id="rect2"
     d="M 4 0 L 4 2 L 6 2 L 8 2 L 10 2 L 12 2 L 12 0 L 10 0 L 8 0 L 6 0 L 4 0 z M 12 2 L 12 4 L 10 4 L 10 6 L 12 6 L 14 6 L 16 6 L 16 4 L 16 2 L 16 0 L 14 0 L 14 2 L 12 2 z M 4 2 L 2 2 L 2 4 L 4 4 L 4 2 z M 2 4 L 0 4 L 0 6 L 0 8 L 0 10 L 0 12 L 2 12 L 2 10 L 2 8 L 2 6 L 2 4 z M 2 12 L 2 14 L 4 14 L 4 12 L 2 12 z M 4 14 L 4 16 L 6 16 L 8 16 L 10 16 L 12 16 L 12 14 L 10 14 L 8 14 L 6 14 L 4 14 z M 12 14 L 14 14 L 14 12 L 12 12 L 12 14 z M 14 12 L 16 12 L 16 10 L 14 10 L 14 12 z "
     style="fill:#ffffff" />
</svg>
