<?xml version="1.0" encoding="UTF-8" standalone="no"?>
<!-- Generator: Adobe Illustrator 26.0.0, SVG Export Plug-In . SVG Version: 6.00 Build 0)  -->

<svg
   version="1.1"
   id="Layer_2"
   x="0px"
   y="0px"
   viewBox="0 0 18 20"
   style="enable-background:new 0 0 18 20;"
   xml:space="preserve"
   xmlns="http://www.w3.org/2000/svg"
   xmlns:svg="http://www.w3.org/2000/svg"><defs
   id="defs11" />
<g
   id="g6"
   style="fill:#ffffff">
	<path
   d="M18,18c0-6,0-12,0-18C12.7,0,7.3,0,2,0c0,0.5,0,1.5,0,2c1.3,0,2.7,0,4,0c0,0.5,0,1.5,0,2c1.9,0,4.1,0,6,0c0-0.5,0-1.5,0-2   c1.3,0,2.7,0,4,0c0,5.3,0,10.7,0,16c-4.6,0-9.4,0-14,0C2,12.7,2,7.3,2,2C1.5,2,0.5,2,0,2c0,6,0,12,0,18c6,0,12,0,18,0   C18,19.5,18,18.5,18,18z"
   id="path2"
   style="fill:#ffffff" />
	<path
   d="M8,6c0,1.3,0,2.7,0,4c-1.3,0-2.7,0-4,0c0,0.5,0,1.5,0,2c0.5,0,1.5,0,2,0c0,0.5,0,1.5,0,2c0.5,0,1.5,0,2,0c0,0.5,0,1.5,0,2   c0.5,0,1.5,0,2,0c0-0.5,0-1.5,0-2c0.5,0,1.5,0,2,0c0-0.5,0-1.5,0-2c0.5,0,1.5,0,2,0c0-0.5,0-1.5,0-2c-1.3,0-2.7,0-4,0   c0-1.3,0-2.7,0-4C9.5,6,8.5,6,8,6z"
   id="path4"
   style="fill:#ffffff" />
</g>
</svg>
