<?xml version="1.0" encoding="UTF-8" standalone="no"?>
<svg
   width="27"
   height="27"
   viewBox="0 0 27 27"
   fill="none"
   version="1.1"
   id="svg42"
   xmlns="http://www.w3.org/2000/svg"
   xmlns:svg="http://www.w3.org/2000/svg">
  <defs
     id="defs46" />
  <path
     id="rect946"
     style="fill:#ffffff;stroke:none;stroke-width:2;paint-order:stroke fill markers"
     d="M 6,0 C 6,0.66666667 6,1.3333333 6,2 5.3333333,2 4.6666667,2 4,2 c 0,4.6666667 0,9.333333 0,14 0.6666667,0 1.3333333,0 2,0 0,2 0,4 0,6 0.6666667,0 1.3333333,0 2,0 0,-1.333333 0,-2.666667 0,-4 0.6666667,0 1.3333333,0 2,0 0,1.333333 0,2.666667 0,4 -0.6666667,0 -1.3333333,0 -2,0 0,0.666667 0,1.333333 0,2 0.6666667,0 1.3333333,0 2,0 0,0.666667 0,1.333333 0,2 2,0 4,0 6,0 0,-0.666667 0,-1.333333 0,-2 0.666667,0 1.333333,0 2,0 0,-0.666667 0,-1.333333 0,-2 -0.666667,0 -1.333333,0 -2,0 0,-1.333333 0,-2.666667 0,-4 0.666667,0 1.333333,0 2,0 0,1.333333 0,2.666667 0,4 0.666667,0 1.333333,0 2,0 0,-2 0,-4 0,-6 0.666667,0 1.333333,0 2,0 0,-4.666667 0,-9.3333333 0,-14 -0.666667,0 -1.333333,0 -2,0 0,-0.6666667 0,-1.33333333 0,-2 -4.666667,0 -9.333333,0 -14,0 z m 0,8 c 2,0 4,0 6,0 0,1.3333333 0,2.666667 0,4 -2,0 -4,0 -6,0 0,-1.333333 0,-2.6666667 0,-4 z m 8,0 c 2,0 4,0 6,0 0,1.3333333 0,2.666667 0,4 -2,0 -4,0 -6,0 0,-1.333333 0,-2.6666667 0,-4 z m -4,6 c 0.666667,0 1.333333,0 2,0 0,0.666667 0,1.333333 0,2 -0.666667,0 -1.333333,0 -2,0 0,-0.666667 0,-1.333333 0,-2 z m 4,0 c 0.666667,0 1.333333,0 2,0 0,0.666667 0,1.333333 0,2 -0.666667,0 -1.333333,0 -2,0 0,-0.666667 0,-1.333333 0,-2 z m -2,4 c 0.666667,0 1.333333,0 2,0 0,1.333333 0,2.666667 0,4 -0.666667,0 -1.333333,0 -2,0 0,-1.333333 0,-2.666667 0,-4 z" />
</svg>
