<?xml version="1.0" encoding="UTF-8" standalone="no"?>
<!-- Generator: Adobe Illustrator 26.0.0, SVG Export Plug-In . SVG Version: 6.00 Build 0)  -->

<svg
   version="1.1"
   id="Layer_3"
   x="0px"
   y="0px"
   viewBox="0 0 18 20"
   style="enable-background:new 0 0 18 20;"
   xml:space="preserve"
   xmlns="http://www.w3.org/2000/svg"
   xmlns:svg="http://www.w3.org/2000/svg"><defs
   id="defs13" />
<g
   id="g8"
   style="fill:#ffffff">
	<path
   d="M8,16c0-1.9,0-4.1,0-6c-0.5,0-1.5,0-2,0c0,1.9,0,4.1,0,6C6.5,16,7.5,16,8,16z"
   id="path2"
   style="fill:#ffffff" />
	<path
   d="M10,10c0,1.9,0,4.1,0,6c0.5,0,1.5,0,2,0c0-1.9,0-4.1,0-6C11.5,10,10.5,10,10,10z"
   id="path4"
   style="fill:#ffffff" />
	<path
   d="M16,2c-1.3,0-2.7,0-4,0c0-0.5,0-1.5,0-2c-1.9,0-4.1,0-6,0c0,0.5,0,1.5,0,2C4.1,2,1.9,2,0,2c0,1.9,0,4.1,0,6   c0.5,0,1.5,0,2,0c0,4,0,8,0,12c4.6,0,9.4,0,14,0c0-4,0-8,0-12c0.5,0,1.5,0,2,0c0-1.9,0-4.1,0-6C17.5,2,16.5,2,16,2z M16,5v1   C11.4,6,6.6,6,2,6c0-0.5,0-1.5,0-2c4.6,0,9.4,0,14,0V5z M14,9c0,3,0,6,0,9c-3.3,0-6.7,0-10,0c0-3.3,0-6.7,0-10c3.3,0,6.7,0,10,0V9z   "
   id="path6"
   style="fill:#ffffff" />
</g>
</svg>
