<?xml version="1.0" encoding="UTF-8" standalone="no"?>
<!-- Generator: Adobe Illustrator 26.0.0, SVG Export Plug-In . SVG Version: 6.00 Build 0)  -->

<svg
   version="1.1"
   id="Layer_4"
   x="0px"
   y="0px"
   viewBox="0 0 16 16"
   xml:space="preserve"
   sodipodi:docname="update-symbolic.svg"
   style="enable-background:new 0 0 16 16;"
   inkscape:version="1.1.1 (3bf5ae0d25, 2021-09-20)"
   xmlns:inkscape="http://www.inkscape.org/namespaces/inkscape"
   xmlns:sodipodi="http://sodipodi.sourceforge.net/DTD/sodipodi-0.dtd"
   xmlns="http://www.w3.org/2000/svg"
   xmlns:svg="http://www.w3.org/2000/svg"><sodipodi:namedview
   id="namedview15"
   pagecolor="#505050"
   bordercolor="#ffffff"
   borderopacity="1"
   inkscape:pageshadow="0"
   inkscape:pageopacity="0"
   inkscape:pagecheckerboard="1"
   showgrid="false"
   inkscape:zoom="48.75"
   inkscape:cx="9.2717949"
   inkscape:cy="11.251282"
   inkscape:window-width="2560"
   inkscape:window-height="1411"
   inkscape:window-x="0"
   inkscape:window-y="0"
   inkscape:window-maximized="1"
   inkscape:current-layer="Layer_4" /><defs
   id="defs27" />
<g
   id="g22"
   style="fill:#ffffff;fill-opacity:1">
	<path
   d="M8,16c1.3,0,2.7,0,4,0c0-0.5,0-1.5,0-2c-1.9,0-4.1,0-6,0c0,0.5,0,1.5,0,2C6.5,16,7.5,16,8,16z"
   id="path2"
   style="fill:#ffffff;fill-opacity:1" />
	<path
   d="M14,14c0-0.5,0-1.5,0-2c-0.5,0-1.5,0-2,0c0,0.5,0,1.5,0,2C12.5,14,13.5,14,14,14z"
   id="path4"
   style="fill:#ffffff;fill-opacity:1" />
	<path
   d="M6,12c-0.5,0-1.5,0-2,0c0,0.5,0,1.5,0,2c0.5,0,1.5,0,2,0C6,13.5,6,12.5,6,12z"
   id="path6"
   style="fill:#ffffff;fill-opacity:1" />
	<path
   d="M16,12c0-0.5,0-1.5,0-2c-0.5,0-1.5,0-2,0c0,0.5,0,1.5,0,2C14.5,12,15.5,12,16,12z"
   id="path8"
   style="fill:#ffffff;fill-opacity:1" />
	<path
   d="M4,10c0.5,0,1.5,0,2,0c0-0.5,0-1.5,0-2C4.1,8,1.9,8,0,8c0,1.9,0,4.1,0,6c0.5,0,1.5,0,2,0c0-0.5,0-1.5,0-2c0.5,0,1.5,0,2,0   C4,11.5,4,10.5,4,10z"
   id="path10"
   style="fill:#ffffff;fill-opacity:1" />
	<path
   d="M12,6c-0.5,0-1.5,0-2,0c0,0.5,0,1.5,0,2c1.9,0,4.1,0,6,0c0-1.9,0-4.1,0-6c-0.5,0-1.5,0-2,0c0,0.5,0,1.5,0,2   c-0.5,0-1.5,0-2,0C12,4.5,12,5.5,12,6z"
   id="path12"
   style="fill:#ffffff;fill-opacity:1" />
	<path
   d="M0,4c0,0.5,0,1.5,0,2c0.5,0,1.5,0,2,0c0-0.5,0-1.5,0-2C1.5,4,0.5,4,0,4z"
   id="path14"
   style="fill:#ffffff;fill-opacity:1" />
	<path
   d="M10,4c0.5,0,1.5,0,2,0c0-0.5,0-1.5,0-2c-0.5,0-1.5,0-2,0C10,2.5,10,3.5,10,4z"
   id="path16"
   style="fill:#ffffff;fill-opacity:1" />
	<path
   d="M2,2c0,0.5,0,1.5,0,2c0.5,0,1.5,0,2,0c0-0.5,0-1.5,0-2C3.5,2,2.5,2,2,2z"
   id="path18"
   style="fill:#ffffff;fill-opacity:1" />
	<path
   d="M8,0C6.7,0,5.3,0,4,0c0,0.5,0,1.5,0,2c1.9,0,4.1,0,6,0c0-0.5,0-1.5,0-2C9.5,0,8.5,0,8,0z"
   id="path20"
   style="fill:#ffffff;fill-opacity:1" />
</g>
</svg>
