<?xml version="1.0" encoding="UTF-8" standalone="no"?>
<svg
   width="18"
   height="10"
   viewBox="0 0 18 10"
   fill="none"
   version="1.1"
   id="svg4"
   xmlns="http://www.w3.org/2000/svg"
   xmlns:svg="http://www.w3.org/2000/svg">
  <defs
     id="defs8" />
  <path
     id="path1112"
     style="fill:#ffffff;stroke-width:1.33333"
     d="M 10.5 0 A 1.5 1.5 0 0 0 9.0898438 1 L 7 1 L 6 1 L 6 2 L 6 4 L 2.9140625 4 A 1.5 1.5 0 0 0 1.5 3 A 1.5 1.5 0 0 0 0 4.5 A 1.5 1.5 0 0 0 1.5 6 A 1.5 1.5 0 0 0 2.9101562 5 L 8 5 L 8 8 L 9 8 L 10 8 L 10 9 L 13 9 L 13 6 L 10 6 L 10 7 L 9 7 L 9 5 L 14 5 L 14 6 L 17 4.5 L 14 3 L 14 4 L 7 4 L 7 2 L 9.0898438 2 A 1.5 1.5 0 0 0 10.5 3 A 1.5 1.5 0 0 0 12 1.5 A 1.5 1.5 0 0 0 10.5 0 z " />
</svg>
