<?xml version="1.0" encoding="UTF-8" standalone="no"?>
<svg
   width="27"
   height="27"
   viewBox="0 0 27 27"
   fill="none"
   version="1.1"
   id="svg42"
   xmlns="http://www.w3.org/2000/svg"
   xmlns:svg="http://www.w3.org/2000/svg">
  <defs
     id="defs46" />
  <path
     id="rect2"
     style="fill:#ffffff"
     d="M 15 0 L 15 2 L 19 2 L 19 4 L 21 4 L 21 2 L 21 0 L 15 0 z M 19 4 L 17 4 L 17 9 L 19 9 L 22 9 L 22 7 L 19 7 L 19 4 z M 22 7 L 24 7 L 24 11 L 26 11 L 26 5 L 24 5 L 22 5 L 22 7 z M 24 11 L 17 11 L 17 13 L 24 13 L 24 11 z M 17 13 L 15 13 L 15 15 L 17 15 L 17 13 z M 15 15 L 13 15 L 13 17 L 15 17 L 15 15 z M 13 17 L 11 17 L 11 25 L 13 25 L 13 17 z M 11 25 L 7 25 L 7 23 L 5 23 L 5 25 L 5 27 L 11 27 L 11 25 z M 7 23 L 9 23 L 9 18 L 7 18 L 4 18 L 4 20 L 7 20 L 7 23 z M 4 20 L 2 20 L 2 16 L 0 16 L 0 22 L 2 22 L 4 22 L 4 20 z M 2 16 L 9 16 L 9 14 L 2 14 L 2 16 z M 9 14 L 11 14 L 11 12 L 9 12 L 9 14 z M 11 12 L 13 12 L 13 10 L 11 10 L 11 12 z M 13 10 L 15 10 L 15 2 L 13 2 L 13 10 z " />
</svg>
