<?xml version="1.0" encoding="UTF-8" standalone="no"?>
<svg
   width="27"
   height="27"
   viewBox="0 0 27 27"
   fill="none"
   version="1.1"
   id="svg42"
   xmlns="http://www.w3.org/2000/svg"
   xmlns:svg="http://www.w3.org/2000/svg">
  <defs
     id="defs46" />
  <rect
     x="11"
     y="17"
     width="2"
     height="8"
     id="rect2"
     style="fill:#ffffff" />
  <rect
     x="13"
     y="15"
     width="2"
     height="2"
     id="rect4"
     style="fill:#ffffff" />
  <rect
     x="15"
     y="13"
     width="2"
     height="2"
     id="rect6"
     style="fill:#ffffff" />
  <rect
     x="9"
     y="12"
     width="2"
     height="2"
     id="rect8"
     style="fill:#ffffff" />
  <rect
     x="2"
     y="20"
     width="2"
     height="2"
     id="rect10"
     style="fill:#ffffff" />
  <rect
     x="11"
     y="10"
     width="2"
     height="2"
     id="rect12"
     style="fill:#ffffff" />
  <rect
     x="19"
     y="7"
     width="3"
     height="2"
     id="rect14"
     style="fill:#ffffff" />
  <rect
     x="4"
     y="18"
     width="3"
     height="2"
     id="rect16"
     style="fill:#ffffff" />
  <rect
     x="22"
     y="5"
     width="2"
     height="2"
     id="rect18"
     style="fill:#ffffff" />
  <rect
     x="5"
     y="23"
     width="2"
     height="2"
     id="rect20"
     style="fill:#ffffff" />
  <rect
     x="7"
     y="18"
     width="2"
     height="5"
     id="rect22"
     style="fill:#ffffff" />
  <rect
     x="24"
     y="5"
     width="2"
     height="6"
     id="rect24"
     style="fill:#ffffff" />
  <rect
     y="16"
     height="6"
     id="rect26"
     width="2"
     x="0"
     style="fill:#ffffff" />
  <rect
     x="2"
     y="14"
     width="7"
     height="2"
     id="rect28"
     style="fill:#ffffff" />
  <rect
     x="17"
     y="4"
     width="2"
     height="5"
     id="rect30"
     style="fill:#ffffff" />
  <rect
     x="19"
     y="2"
     width="2"
     height="2"
     id="rect32"
     style="fill:#ffffff" />
  <rect
     x="15"
     width="6"
     height="2"
     id="rect34"
     y="0"
     style="fill:#ffffff" />
  <rect
     x="5"
     y="25"
     width="6"
     height="2"
     id="rect36"
     style="fill:#ffffff" />
  <rect
     x="17"
     y="11"
     width="7"
     height="2"
     id="rect38"
     style="fill:#ffffff" />
  <rect
     x="13"
     y="2"
     width="2"
     height="8"
     id="rect40"
     style="fill:#ffffff" />
</svg>
