<?xml version="1.0" encoding="UTF-8" standalone="no"?>
<svg
   width="27"
   height="27"
   viewBox="0 0 27 27"
   fill="none"
   version="1.1"
   id="svg42"
   xmlns="http://www.w3.org/2000/svg"
   xmlns:svg="http://www.w3.org/2000/svg">
  <defs
     id="defs46" />
  <rect
     x="11"
     y="17"
     width="2"
     height="8"
     fill="#fe8a2c"
     id="rect2" />
  <rect
     x="13"
     y="15"
     width="2"
     height="2"
     fill="#fe8a2c"
     id="rect4" />
  <rect
     x="15"
     y="13"
     width="2"
     height="2"
     fill="#fe8a2c"
     id="rect6" />
  <rect
     x="9"
     y="12"
     width="2"
     height="2"
     fill="#fe8a2c"
     id="rect8" />
  <rect
     x="2"
     y="20"
     width="2"
     height="2"
     fill="#fe8a2c"
     id="rect10" />
  <rect
     x="11"
     y="10"
     width="2"
     height="2"
     fill="#fe8a2c"
     id="rect12" />
  <rect
     x="19"
     y="7"
     width="3"
     height="2"
     fill="#fe8a2c"
     id="rect14" />
  <rect
     x="4"
     y="18"
     width="3"
     height="2"
     fill="#fe8a2c"
     id="rect16" />
  <rect
     x="22"
     y="5"
     width="2"
     height="2"
     fill="#fe8a2c"
     id="rect18" />
  <rect
     x="5"
     y="23"
     width="2"
     height="2"
     fill="#fe8a2c"
     id="rect20" />
  <rect
     x="7"
     y="18"
     width="2"
     height="5"
     fill="#fe8a2c"
     id="rect22" />
  <rect
     x="24"
     y="5"
     width="2"
     height="6"
     fill="#fe8a2c"
     id="rect24" />
  <rect
     y="16"
     width="2"
     height="6"
     fill="#fe8a2c"
     id="rect26"
     x="0" />
  <rect
     x="2"
     y="14"
     width="7"
     height="2"
     fill="#fe8a2c"
     id="rect28" />
  <rect
     x="17"
     y="4"
     width="2"
     height="5"
     fill="#fe8a2c"
     id="rect30" />
  <rect
     x="19"
     y="2"
     width="2"
     height="2"
     fill="#fe8a2c"
     id="rect32" />
  <rect
     x="15"
     width="6"
     height="2"
     fill="#fe8a2c"
     id="rect34"
     y="0" />
  <rect
     x="5"
     y="25"
     width="6"
     height="2"
     fill="#fe8a2c"
     id="rect36" />
  <rect
     x="17"
     y="11"
     width="7"
     height="2"
     fill="#fe8a2c"
     id="rect38" />
  <rect
     x="13"
     y="2"
     width="2"
     height="8"
     fill="#fe8a2c"
     id="rect40" />
</svg>
