<?xml version="1.0" encoding="UTF-8" standalone="no"?>
<!-- Generator: Adobe Illustrator 26.0.2, SVG Export Plug-In . SVG Version: 6.00 Build 0)  -->

<svg
   version="1.1"
   id="Layer_1"
   x="0px"
   y="0px"
   viewBox="0 0 246 187"
   xml:space="preserve"
   width="246"
   height="187"
   xmlns="http://www.w3.org/2000/svg"
   xmlns:svg="http://www.w3.org/2000/svg"><defs
   id="defs29" />
<style
   type="text/css"
   id="style2">
	.st0{fill:none;}
	.st1{fill:#FE8A2C;}
</style>
<g
   id="Layer_2_00000020396050065580869510000002657208866694619820_"
   transform="translate(25,25)">
	<g
   id="device_access_error_copy">
		<path
   class="st0"
   d="m 193.2,124 -19.6,-23.9 c -0.1,-0.1 -0.2,-0.3 -0.3,-0.5 H 24 c -0.1,0.2 -0.1,0.3 -0.2,0.5 L 3.8,124 Z M 26.7,104.4 H 170 l 7.8,9.2 H 20 Z"
   id="path4" />
		<path
   class="st0"
   d="m 98.4,68 c 1.8,0 3.3,-1.5 3.3,-3.3 0,-1.8 -1.5,-3.3 -3.3,-3.3 -1.8,0 -3.3,1.5 -3.3,3.3 0,0 0,0 0,0 0.1,1.8 1.5,3.3 3.3,3.3 0,0 0,0 0,0 z"
   id="path6" />
		<polygon
   class="st0"
   points="175.6,112.7 169.5,105.4 27.2,105.4 21.9,112.7 "
   id="polygon8" />
		<path
   class="st0"
   d="M 173.2,98.6 V 3 H 24 V 98.7 H 173.2 Z M 29.9,8.1 H 167 V 90.2 H 29.9 Z"
   id="path10" />
		<path
   class="st0"
   d="M 194,125 H 3 v 0 2.3 c 0,1.2 1.1,1.7 2.3,1.7 0,0 0,0 0,0 H 192 c 1.2,0 2.1,-0.4 2.1,-1.7 0,0 0,0 0,0 z"
   id="path12" />
		<path
   class="st0"
   d="M 30.9,89.2 H 166 V 9.1 H 30.9 Z M 68.8,68 94.6,23.2 c 1.2,-2.1 3.9,-2.8 5.9,-1.6 0.7,0.4 1.2,0.9 1.6,1.6 l 26,44.8 c 1.2,2.1 0.5,4.7 -1.6,5.9 -0.7,0.4 -1.4,0.6 -2.2,0.6 H 72.6 c -2.4,0 -4.3,-1.9 -4.3,-4.3 -0.1,-0.8 0.1,-1.5 0.5,-2.2 z"
   id="path14" />
		<path
   class="st1"
   d="m 197,124.2 c 0,-0.1 0,-0.1 0,-0.2 v -0.1 c 0,0 0,-0.1 0,-0.1 l -0.1,-0.1 c 0,0 0,-0.1 -0.1,-0.1 0,0 0,-0.1 -0.1,-0.1 L 196.6,123.4 176,98 V 0.1 L 21,0 V 98.6 L 0.4,123.3 c 0,0 -0.1,0 -0.1,0.1 l -0.1,0.1 c 0,0 -0.2,0.1 -0.2,0.2 0,0 0,0.1 0,0.1 0,0 0,0.1 0,0.1 v 0.1 c 0,0 0,0.1 0,0.2 0,0.1 0,0 0,0.1 v 3.1 c 0,2.9 2.4,4.7 5.3,4.7 H 192 c 2.9,0 5,-1.8 5,-4.7 z M 23.7,100.1 C 23.8,100 23.9,99.2 24,99 h 149 c 0.1,0.2 0.4,1 0.5,1.1 L 193.1,124 H 3.8 Z M 173,3 V 98 H 24 V 3 Z m 19,126 H 5.3 C 4.1,129 3,128.5 3,127.3 c 0,0 0,0 0,0 v -2.3 0 h 191 v 0 2.4 c 0,1.2 -0.8,1.6 -2,1.6 z"
   id="path16" />
		<path
   class="st1"
   d="M 167,8 H 30 v 82 h 137 z m -1,81 H 31 V 9 h 135 z"
   id="path18" />
		<path
   class="st1"
   d="M 177.4,113 170,104 H 26.7 L 20,113 Z M 27.2,105 h 142.3 l 5.7,7 H 22 Z"
   id="path20" />
		<path
   class="st1"
   d="m 72.6,74.9 h 51.7 c 2.4,0 4.4,-1.9 4.4,-4.3 0,-0.8 -0.2,-1.5 -0.6,-2.2 L 102.2,23.6 C 101,21.5 98.3,20.8 96.3,22 c -0.7,0.4 -1.2,0.9 -1.6,1.6 L 68.8,68.4 c -1.2,2.1 -0.5,4.7 1.6,5.9 0.7,0.4 1.4,0.6 2.2,0.6 z M 95.9,39 c 0,-1.5 1,-3 2.5,-3 1.5,0 2.7,1.5 2.7,3 v 17 c 0,1.5 -1.1,3 -2.6,3 -1.5,0 -2.6,-1.5 -2.6,-3 0,0 0,0 0,0 V 39 Z m 2.5,22.8 c 1.8,0 3.3,1.5 3.3,3.3 0,1.8 -1.5,3.3 -3.3,3.3 -1.8,0 -3.3,-1.5 -3.3,-3.3 v 0 c 0,-1.8 1.5,-3.3 3.3,-3.3 z"
   id="path22" />
	</g>
</g>
</svg>
