<?xml version="1.0" encoding="UTF-8" standalone="no"?>
<!-- Generator: Adobe Illustrator 26.0.2, SVG Export Plug-In . SVG Version: 6.00 Build 0)  -->

<svg
   version="1.1"
   id="Layer_2"
   x="0px"
   y="0px"
   viewBox="0 0 128 64"
   style="enable-background:new 0 0 128 64;"
   xml:space="preserve"
   xmlns="http://www.w3.org/2000/svg"
   xmlns:svg="http://www.w3.org/2000/svg"><defs
   id="defs12">
	
</defs>
<style
   type="text/css"
   id="style2">
	.st0{fill:#FE8A2C;}
</style>

<path
   d="M 66.8,7.2 C 65.6,5.1 62.9,4.4 60.9,5.6 60.2,6 59.7,6.5 59.3,7.2 L 33.4,52.5 c -1.2,2.1 -0.5,4.7 1.6,5.9 0.7,0.4 1.4,0.6 2.2,0.6 h 51.7 c 2.4,0 4.3,-1.9 4.3,-4.3 0,-0.8 -0.2,-1.5 -0.6,-2.2 z M 60,22.7 c 0,-1.5 1.5,-2.7 3,-2.7 1.5,0 3,1.2 3,2.7 v 17.7 c 0,1.5 -1.5,2.7 -3,2.7 -1.5,0 -3,-1.2 -3,-2.7 z m 3,29.7 c -1.8,0 -3.3,-1.5 -3.3,-3.3 0,-1.8 1.5,-3.3 3.3,-3.3 1.8,0 3.3,1.5 3.3,3.3 0,0 0,0 0,0 0,1.9 -1.5,3.3 -3.3,3.3 z"
   id="path6"
   style="fill:#491d00;fill-opacity:1;stroke:none" />
</svg>
