<?xml version="1.0" encoding="UTF-8" standalone="no"?>
<!-- Generator: Adobe Illustrator 26.0.2, SVG Export Plug-In . SVG Version: 6.00 Build 0)  -->

<svg
   version="1.1"
   id="Layer_1"
   x="0px"
   y="0px"
   viewBox="0 0 246 187"
   xml:space="preserve"
   width="246"
   height="187"
   xmlns="http://www.w3.org/2000/svg"
   xmlns:svg="http://www.w3.org/2000/svg"><defs
   id="defs41" />
<style
   type="text/css"
   id="style2">
	.st0{fill:none;}
	.st1{fill:#FE8A2C;}
</style>
<g
   id="Layer_2_00000021817144326228441150000002826262044571688597_"
   transform="translate(0,25)">
	<g
   id="device_access_error">
		<path
   class="st0"
   d="m 29.9,8.5 h 137 v 82.1 h -137 c 0,0 0,-82.1 0,-82.1 z"
   id="path4" />
		<path
   class="st0"
   d="M 66.5,68.4 92.3,23.6 c 1.2,-2.1 3.9,-2.8 5.9,-1.6 0.7,0.4 1.2,0.9 1.6,1.6 l 25.8,44.8 c 1.2,2.1 0.5,4.7 -1.6,5.9 -0.7,0.4 -1.4,0.6 -2.2,0.6 H 70.2 c -2.4,0 -4.3,-2 -4.3,-4.4 0,-0.7 0.2,-1.4 0.6,-2.1 z"
   id="path6" />
		<path
   class="st0"
   d="m 96,68.4 c 1.8,0 3.3,-1.5 3.3,-3.3 0,-1.8 -1.5,-3.3 -3.3,-3.3 -1.8,0 -3.3,1.5 -3.3,3.3 v 0 c 0.1,1.9 1.5,3.3 3.3,3.3 z"
   id="path8" />
		<path
   class="st0"
   d="m 229.6,87.6 h -3 c 0,1.2 0,2.4 0,3.6 0,9.2 0.1,14.8 -2.7,17.6 -3.8,3.9 -14.1,3.9 -36.4,3.9 l 2.5,3 c 22,0 31.5,-0.2 36,-4.8 3.7,-3.7 3.6,-9.7 3.6,-19.8 0,-1.1 0,-2.3 0,-3.5 z"
   id="path10" />
		<polygon
   class="st0"
   points="175.5,113.1 169.4,105.9 27.2,105.9 21.9,113.1 "
   id="polygon12" />
		<path
   class="st0"
   d="m 95.3,58.8 c 1.5,0 3.4,-1.2 3.4,-2.7 v 0 V 39 c 0,-1.5 -1.9,-2.7 -3.4,-2.7 -1.5,0 -2,1.2 -2,2.7 v 17.1 c 0,1.5 0.5,2.7 2,2.7 z"
   id="path14" />
		<path
   class="st0"
   d="m 26.7,104.9 h 143.2 l 7.8,9.2 H 20 Z"
   id="path16" />
		<path
   class="st0"
   d="M 242.6,28.8 H 211 v 44.3 h 34.2 V 28.8 Z m -7.7,16.1 h -3.4 v -3.4 h 3.4 z"
   id="path18" />
		<path
   class="st1"
   d="M 167,8 H 30 v 83 h 137 z m -1,82 H 31 V 9 h 135 z"
   id="path20" />
		<path
   class="st1"
   d="m 246,28 h -3 V 1 h -30 v 27 h -3 v 46 h 13 v 13 h 2 v 0 c 0,1.2 0,3 0,4.1 v 0.2 c 0,9 0.6,14.2 -1.9,16.7 -3.6,3.6 -14.3,4 -36.2,4 L 176,99 V 0 H 21 V 99 L 0.4,123.7 c 0,0 0,0 0,0.1 l -0.1,0.1 -0.1,0.1 v 0.1 0.1 L 0,124.4 c 0,0 0,0.1 0,0.2 0,0.1 0,0 0,0.1 v 3.1 c 0,2.9 2.3,5.2 5.2,5.2 h 186.6 c 2.9,0 5.2,-2.2 5.2,-5.1 v -3.3 c 0,-0.1 0,-0.1 0,-0.1 v -0.1 -0.2 -0.1 c 0,0 0,-0.1 -0.1,-0.1 0,0 0,-0.1 -0.1,-0.1 v -0.1 l -5.6,-6.8 c 21.1,0 30.7,-0.4 35.6,-5.3 3.9,-4 3.1,-10 3.2,-20.3 v -0.2 c 0,-1.1 0,-2.7 0,-3.9 v -0.1 h 2 V 74 h 14 z M 23.6,100.5 c 0.1,-0.1 0.2,-0.4 0.3,-0.6 h 149 c 0.1,0.2 0.3,0.4 0.4,0.6 L 193,124 H 4 Z M 173,3 V 99.1 L 24,99 V 3 Z m 18.8,127 H 5.3 C 4,130 3,129 3,127.8 v 0 -2.8 0 h 191 v 0 2.8 c 0,1.2 -1,2.2 -2.2,2.2 z M 226,110.9 c -4.5,4.6 -13.6,5.1 -35.7,5.1 l -2.4,-3 c 22.3,0 32.2,-0.4 36.1,-4.2 2.8,-2.8 2.2,-8.3 2.1,-17.6 0,-1.1 0,-2.9 0,-4.2 h 3 c 0,1.2 0,3.1 0,4.3 -0.1,10 0.5,15.9 -3.1,19.6 z M 214,2 h 28 v 26 h -28 z m 17,84 h -7 V 74 h 7 z M 245,73 H 211 V 29 h 34 z"
   id="path22" />
		<rect
   x="219"
   y="13"
   class="st1"
   width="5"
   height="4"
   id="rect24" />
		<rect
   x="232"
   y="13"
   class="st1"
   width="5"
   height="4"
   id="rect26" />
		<path
   class="st1"
   d="m 233,49 -4,3.1 V 38 h 2.1 l -2.6,-5.3 -2.6,5.3 h 2.1 v 17.6 l -4,-2.2 V 50 c 1.1,-0.3 1.7,-1.4 1.4,-2.4 -0.3,-1.1 -1.4,-1.7 -2.4,-1.4 -1.1,0.3 -1.7,1.4 -1.4,2.4 0.2,0.7 0.7,1.3 1.4,1.4 v 4 l 5,2.8 v 4.5 c -2.1,0.3 -3.4,2.3 -2.8,4.4 0.5,1.6 2.1,2.6 3.7,2.4 1.9,-0.3 3.3,-2 3,-3.9 -0.2,-1.5 -1.4,-2.7 -2.9,-2.9 v -8.1 l 5,-3.7 V 45 h -1 z"
   id="path28" />
		<rect
   x="232"
   y="42"
   class="st1"
   width="3"
   height="3"
   id="rect30" />
		<path
   class="st1"
   d="m 177,114 -7.3,-9 H 26.5 L 20,114 Z M 27,106 h 142.2 l 5.8,7 H 22 Z"
   id="path32" />
		<path
   class="st1"
   d="m 70.2,75 h 51.6 c 2.4,0 4.3,-2 4.3,-4.4 0,-0.7 -0.2,-1.5 -0.6,-2.1 L 99.8,23.8 c -1.2,-2.1 -3.9,-2.8 -5.9,-1.6 -0.7,0.4 -1.2,0.9 -1.6,1.6 L 66.5,68.5 c -1.2,2.1 -0.5,4.7 1.6,5.9 0.7,0.4 1.4,0.6 2.1,0.6 z M 93,39.6 c 0,-1.5 1.6,-2.6 3,-2.5 1.3,0.1 3,1.3 3,2.7 v 15.5 c 0,1.3 -1.6,2.6 -3,2.7 -1.5,0.1 -3,-1 -3,-2.5 v 0 z m 3,22.3 c 1.8,0 3.3,1.5 3.3,3.3 0,1.8 -1.5,3.3 -3.3,3.3 -1.8,0 -3.3,-1.5 -3.3,-3.3 v 0 c 0.1,-1.9 1.5,-3.3 3.3,-3.3 z"
   id="path34" />
	</g>
</g>
</svg>
