<?xml version="1.0" encoding="UTF-8" standalone="no"?>
<!-- Generator: Adobe Illustrator 26.0.2, SVG Export Plug-In . SVG Version: 6.00 Build 0)  -->

<svg
   version="1.1"
   id="Layer_4"
   x="0px"
   y="0px"
   viewBox="0 0 128 64"
   style="enable-background:new 0 0 128 64;"
   xml:space="preserve"
   xmlns="http://www.w3.org/2000/svg"
   xmlns:svg="http://www.w3.org/2000/svg"><defs
   id="defs53">
	
	
	
	
	
	
	
	
	
	
	
	
	
	
	
	
	
	
	
	
	
</defs>
<style
   type="text/css"
   id="style2">
	.st0{fill:#FE8A2C;}
</style>

<path
   id="rect6"
   d="M 22 11 L 22 15 L 26 15 L 26 11 L 22 11 z M 26 15 L 26 19 L 30 19 L 30 15 L 26 15 z M 30 19 L 30 23 L 34 23 L 34 19 L 30 19 z M 34 19 L 38 19 L 38 15 L 34 15 L 34 19 z M 38 15 L 42 15 L 42 11 L 38 11 L 38 15 z M 34 23 L 34 27 L 38 27 L 38 23 L 34 23 z M 38 27 L 38 31 L 42 31 L 42 27 L 38 27 z M 30 23 L 26 23 L 26 27 L 30 27 L 30 23 z M 26 27 L 22 27 L 22 31 L 26 31 L 26 27 z M 81 11 L 81 15 L 85 15 L 85 11 L 81 11 z M 85 15 L 85 19 L 89 19 L 89 15 L 85 15 z M 89 19 L 89 23 L 93 23 L 93 19 L 89 19 z M 93 19 L 97 19 L 97 15 L 93 15 L 93 19 z M 97 15 L 101 15 L 101 11 L 97 11 L 97 15 z M 93 23 L 93 27 L 97 27 L 97 23 L 93 23 z M 97 27 L 97 31 L 101 31 L 101 27 L 97 27 z M 89 23 L 85 23 L 85 27 L 89 27 L 89 23 z M 85 27 L 81 27 L 81 31 L 85 31 L 85 27 z M 38 45 L 38 49 L 85 49 L 85 45 L 38 45 z M 85 49 L 85 53 L 89 53 L 89 49 L 85 49 z M 38 49 L 34 49 L 34 53 L 38 53 L 38 49 z "
   style="fill:#491d00;fill-opacity:1" />
</svg>
