<?xml version="1.0" encoding="utf-8"?>
<!-- Generator: Adobe Illustrator 26.0.2, SVG Export Plug-In . SVG Version: 6.00 Build 0)  -->
<svg version="1.1" id="Layer_3" xmlns="http://www.w3.org/2000/svg" xmlns:xlink="http://www.w3.org/1999/xlink" x="0px" y="0px"
	 viewBox="0 0 190 187" style="enable-background:new 0 0 190 187;" xml:space="preserve">
<style type="text/css">
	.st0{fill:none;}
	.st1{fill:#FE8A2C;}
	.st2{fill:#FFFFFF;}
</style>
<g>
	<path class="st0" d="M130.8,40h23.5c-11.6-17.5-29.6-30.2-50.7-35C114.9,11.5,124.5,24,130.8,40z"/>
	<path class="st0" d="M130.1,41H86v43h52C137.8,68.2,134.9,53.5,130.1,41z"/>
	<path class="st0" d="M39.8,41H16.1C8.1,53.5,3.3,68.2,3,84h29C32.2,68.3,35,53.6,39.8,41z"/>
	<path class="st0" d="M67.4,5C46.4,9.8,28.3,22.5,16.7,40h23.5C46.5,24,56.1,11.5,67.4,5z"/>
	<path class="st0" d="M139,84h29c-0.3-15.8-5-30.5-13-43h-23.7C136,53.6,138.8,68.3,139,84z"/>
	<path class="st0" d="M138,85H86v45h13.3v1H86v37c4.8,0,9.4-0.5,14-1.3c1-0.5,2.1-1,3.1-1.6c-3.2-6.5-5.1-13.8-5.1-21.6
		c0-23.7,17.1-43.5,39.6-47.7c0.3-3.4,0.4-6.8,0.4-10.3C138,85.3,138,85.2,138,85z"/>
	<path class="st0" d="M168,85h-29c0,0.2,0,0.3,0,0.5c0,3.4-0.1,6.8-0.4,10.1c2.6-0.4,5.2-0.6,7.9-0.6c7.3,0,14.1,1.6,20.3,4.5
		c0.8-4.5,1.2-9.2,1.2-14C168,85.3,168,85.2,168,85z"/>
	<path class="st0" d="M100,4.3C95.4,3.5,90.8,3,86,3v37h43.7C122.9,22.9,112.4,10,100,4.3z"/>
	<path class="st0" d="M32,85.5c0-0.2,0-0.3,0-0.5H3c0,0.2,0,0.3,0,0.5c0,16.4,4.8,31.7,13.1,44.5h23.7C34.9,117,32,101.8,32,85.5z"
		/>
	<path class="st0" d="M41.3,40H85V3c-4.8,0-9.4,0.5-14,1.3C58.6,10,48.1,22.9,41.3,40z"/>
	<path class="st0" d="M33,84h52V41H40.9C36.1,53.5,33.2,68.2,33,84z"/>
	<path class="st0" d="M33,85.5c0,16.3,2.9,31.6,7.9,44.5H85V85H33C33,85.2,33,85.3,33,85.5z"/>
	<path class="st0" d="M71,166.7c4.5,0.8,9.2,1.3,14,1.3v-37H41.3C48.1,148.1,58.6,161,71,166.7z"/>
	<path class="st0" d="M40.2,131H16.7c11.6,17.5,29.6,30.2,50.7,35C56.1,159.5,46.5,147,40.2,131z"/>
	<path class="st1" d="M100,166.7c-4.5,0.8-9.2,1.3-14,1.3v-37h13.3v-1H86V85h52c0,0.2,0,0.3,0,0.5c0,3.5-0.1,6.9-0.4,10.3
		c0.3-0.1,0.7-0.1,1-0.2c0.2-3.3,0.4-6.7,0.4-10.1c0-0.2,0-0.3,0-0.5h29c0,0.2,0,0.3,0,0.5c0,4.8-0.4,9.4-1.2,14
		c0.9,0.4,1.9,0.9,2.8,1.4c0.9-5,1.4-10.1,1.4-15.3C171,38.3,132.7,0,85.5,0S0,38.3,0,85.5S38.3,171,85.5,171
		c6.7,0,13.3-0.8,19.6-2.3c-0.7-1.2-1.4-2.4-2-3.6C102.1,165.7,101,166.2,100,166.7z M168,84h-29c-0.2-15.7-3-30.4-7.8-43h23.7
		C162.9,53.5,167.7,68.2,168,84z M154.3,40h-23.5c-6.3-16-15.9-28.5-27.2-35C124.6,9.8,142.7,22.5,154.3,40z M86,3
		c4.8,0,9.4,0.5,14,1.3c12.4,5.7,22.9,18.6,29.7,35.7H86V3z M86,41h44.1c4.8,12.5,7.7,27.2,7.9,43H86V41z M67.4,5
		C56.1,11.5,46.5,24,40.2,40H16.7C28.3,22.5,46.4,9.8,67.4,5z M16.1,41h23.7C35,53.6,32.2,68.3,32,84H3C3.3,68.2,8.1,53.5,16.1,41z
		 M3,85.5c0-0.2,0-0.3,0-0.5h29c0,0.2,0,0.3,0,0.5c0,16.3,2.9,31.5,7.8,44.5H16.1C7.8,117.2,3,101.9,3,85.5z M16.7,131h23.5
		c6.3,16,15.9,28.5,27.2,35C46.4,161.2,28.3,148.5,16.7,131z M85,168c-4.8,0-9.4-0.5-14-1.3C58.6,161,48.1,148.1,41.3,131H85V168z
		 M85,130H40.9c-5-12.9-7.9-28.2-7.9-44.5c0-0.2,0-0.3,0-0.5h52V130z M85,84H33c0.2-15.8,3-30.5,7.9-43H85V84z M85,40H41.3
		C48.1,22.9,58.6,10,71,4.3C75.6,3.5,80.2,3,85,3V40z"/>
</g>
<path class="st1" d="M190,143.5c0,24-19.5,43.5-43.5,43.5S103,167.5,103,143.5s19.5-43.5,43.5-43.5S190,119.5,190,143.5z"/>
<polygon class="st2" points="175.2,124.8 165.5,115.1 147.6,133.1 129.6,115.1 119.9,124.8 137.9,142.8 119.9,160.7 129.6,170.4 
	147.6,152.4 165.5,170.4 175.2,160.7 157.3,142.8 "/>
</svg>
