<?xml version="1.0" encoding="UTF-8" standalone="no"?>
<!-- Generator: Adobe Illustrator 26.0.2, SVG Export Plug-In . SVG Version: 6.00 Build 0)  -->

<svg
   version="1.1"
   id="Layer_3"
   x="0px"
   y="0px"
   viewBox="0 0 246 187"
   xml:space="preserve"
   width="246"
   height="187"
   xmlns="http://www.w3.org/2000/svg"
   xmlns:svg="http://www.w3.org/2000/svg"><defs
   id="defs43" />
<style
   type="text/css"
   id="style2">
	.st0{fill:none;}
	.st1{fill:#FE8A2C;}
	.st2{fill:#FFFFFF;}
</style>
<g
   id="g34"
   transform="translate(28)">
	<path
   class="st0"
   d="m 130.8,40 h 23.5 C 142.7,22.5 124.7,9.8 103.6,5 c 11.3,6.5 20.9,19 27.2,35 z"
   id="path4" />
	<path
   class="st0"
   d="M 130.1,41 H 86 v 43 h 52 c -0.2,-15.8 -3.1,-30.5 -7.9,-43 z"
   id="path6" />
	<path
   class="st0"
   d="M 39.8,41 H 16.1 C 8.1,53.5 3.3,68.2 3,84 h 29 c 0.2,-15.7 3,-30.4 7.8,-43 z"
   id="path8" />
	<path
   class="st0"
   d="M 67.4,5 C 46.4,9.8 28.3,22.5 16.7,40 H 40.2 C 46.5,24 56.1,11.5 67.4,5 Z"
   id="path10" />
	<path
   class="st0"
   d="m 139,84 h 29 C 167.7,68.2 163,53.5 155,41 h -23.7 c 4.7,12.6 7.5,27.3 7.7,43 z"
   id="path12" />
	<path
   class="st0"
   d="M 138,85 H 86 v 45 h 13.3 v 1 H 86 v 37 c 4.8,0 9.4,-0.5 14,-1.3 1,-0.5 2.1,-1 3.1,-1.6 -3.2,-6.5 -5.1,-13.8 -5.1,-21.6 0,-23.7 17.1,-43.5 39.6,-47.7 0.3,-3.4 0.4,-6.8 0.4,-10.3 0,-0.2 0,-0.3 0,-0.5 z"
   id="path14" />
	<path
   class="st0"
   d="m 168,85 h -29 c 0,0.2 0,0.3 0,0.5 0,3.4 -0.1,6.8 -0.4,10.1 2.6,-0.4 5.2,-0.6 7.9,-0.6 7.3,0 14.1,1.6 20.3,4.5 0.8,-4.5 1.2,-9.2 1.2,-14 0,-0.2 0,-0.3 0,-0.5 z"
   id="path16" />
	<path
   class="st0"
   d="M 100,4.3 C 95.4,3.5 90.8,3 86,3 v 37 h 43.7 C 122.9,22.9 112.4,10 100,4.3 Z"
   id="path18" />
	<path
   class="st0"
   d="m 32,85.5 c 0,-0.2 0,-0.3 0,-0.5 H 3 c 0,0.2 0,0.3 0,0.5 0,16.4 4.8,31.7 13.1,44.5 H 39.8 C 34.9,117 32,101.8 32,85.5 Z"
   id="path20" />
	<path
   class="st0"
   d="M 41.3,40 H 85 V 3 C 80.2,3 75.6,3.5 71,4.3 58.6,10 48.1,22.9 41.3,40 Z"
   id="path22" />
	<path
   class="st0"
   d="M 33,84 H 85 V 41 H 40.9 C 36.1,53.5 33.2,68.2 33,84 Z"
   id="path24" />
	<path
   class="st0"
   d="m 33,85.5 c 0,16.3 2.9,31.6 7.9,44.5 H 85 V 85 H 33 c 0,0.2 0,0.3 0,0.5 z"
   id="path26" />
	<path
   class="st0"
   d="m 71,166.7 c 4.5,0.8 9.2,1.3 14,1.3 V 131 H 41.3 c 6.8,17.1 17.3,30 29.7,35.7 z"
   id="path28" />
	<path
   class="st0"
   d="M 40.2,131 H 16.7 c 11.6,17.5 29.6,30.2 50.7,35 -11.3,-6.5 -20.9,-19 -27.2,-35 z"
   id="path30" />
	<path
   class="st1"
   d="m 100,166.7 c -4.5,0.8 -9.2,1.3 -14,1.3 v -37 h 13.3 v -1 H 86 V 85 h 52 c 0,0.2 0,0.3 0,0.5 0,3.5 -0.1,6.9 -0.4,10.3 0.3,-0.1 0.7,-0.1 1,-0.2 0.2,-3.3 0.4,-6.7 0.4,-10.1 0,-0.2 0,-0.3 0,-0.5 h 29 c 0,0.2 0,0.3 0,0.5 0,4.8 -0.4,9.4 -1.2,14 0.9,0.4 1.9,0.9 2.8,1.4 0.9,-5 1.4,-10.1 1.4,-15.3 C 171,38.3 132.7,0 85.5,0 38.3,0 0,38.3 0,85.5 0,132.7 38.3,171 85.5,171 c 6.7,0 13.3,-0.8 19.6,-2.3 -0.7,-1.2 -1.4,-2.4 -2,-3.6 -1,0.6 -2.1,1.1 -3.1,1.6 z M 168,84 h -29 c -0.2,-15.7 -3,-30.4 -7.8,-43 h 23.7 c 8,12.5 12.8,27.2 13.1,43 z M 154.3,40 H 130.8 C 124.5,24 114.9,11.5 103.6,5 c 21,4.8 39.1,17.5 50.7,35 z M 86,3 c 4.8,0 9.4,0.5 14,1.3 12.4,5.7 22.9,18.6 29.7,35.7 H 86 Z m 0,38 h 44.1 c 4.8,12.5 7.7,27.2 7.9,43 H 86 Z M 67.4,5 C 56.1,11.5 46.5,24 40.2,40 H 16.7 C 28.3,22.5 46.4,9.8 67.4,5 Z M 16.1,41 H 39.8 C 35,53.6 32.2,68.3 32,84 H 3 C 3.3,68.2 8.1,53.5 16.1,41 Z M 3,85.5 C 3,85.3 3,85.2 3,85 h 29 c 0,0.2 0,0.3 0,0.5 0,16.3 2.9,31.5 7.8,44.5 H 16.1 C 7.8,117.2 3,101.9 3,85.5 Z M 16.7,131 h 23.5 c 6.3,16 15.9,28.5 27.2,35 -21,-4.8 -39.1,-17.5 -50.7,-35 z M 85,168 c -4.8,0 -9.4,-0.5 -14,-1.3 C 58.6,161 48.1,148.1 41.3,131 H 85 Z m 0,-38 H 40.9 C 35.9,117.1 33,101.8 33,85.5 33,85.3 33,85.2 33,85 H 85 Z M 85,84 H 33 C 33.2,68.2 36,53.5 40.9,41 H 85 Z M 85,40 H 41.3 C 48.1,22.9 58.6,10 71,4.3 75.6,3.5 80.2,3 85,3 Z"
   id="path32" />
</g>
<path
   class="st1"
   d="m 218,143.5 c 0,24 -19.5,43.5 -43.5,43.5 -24,0 -43.5,-19.5 -43.5,-43.5 0,-24 19.5,-43.5 43.5,-43.5 24,0 43.5,19.5 43.5,43.5 z"
   id="path36" />
<polygon
   class="st2"
   points="137.9,142.8 119.9,160.7 129.6,170.4 147.6,152.4 165.5,170.4 175.2,160.7 157.3,142.8 175.2,124.8 165.5,115.1 147.6,133.1 129.6,115.1 119.9,124.8 "
   id="polygon38"
   transform="translate(28)" />
</svg>
