<?xml version="1.0" encoding="utf-8"?>
<!-- Generator: Adobe Illustrator 26.0.2, SVG Export Plug-In . SVG Version: 6.00 Build 0)  -->
<svg version="1.1" id="Layer_1" xmlns="http://www.w3.org/2000/svg" xmlns:xlink="http://www.w3.org/1999/xlink" x="0px" y="0px"
	 viewBox="0 0 246.3 133" style="enable-background:new 0 0 246.3 133;" xml:space="preserve">
<style type="text/css">
	.st0{fill:none;}
	.st1{fill:#FE8A2C;}
</style>
<g id="Layer_2_00000021817144326228441150000002826262044571688597_">
	<g id="device_access_error">
		<path class="st0" d="M29.9,8.5h137v82.1h-137C29.9,90.6,29.9,8.5,29.9,8.5z"/>
		<path class="st0" d="M66.5,68.4l25.8-44.8c1.2-2.1,3.9-2.8,5.9-1.6c0.7,0.4,1.2,0.9,1.6,1.6l25.8,44.8c1.2,2.1,0.5,4.7-1.6,5.9
			c-0.7,0.4-1.4,0.6-2.2,0.6H70.2c-2.4,0-4.3-2-4.3-4.4C65.9,69.8,66.1,69.1,66.5,68.4z"/>
		<path class="st0" d="M96,68.4c1.8,0,3.3-1.5,3.3-3.3c0-1.8-1.5-3.3-3.3-3.3s-3.3,1.5-3.3,3.3l0,0C92.8,67,94.2,68.4,96,68.4z"/>
		<path class="st0" d="M229.6,87.6h-3c0,1.2,0,2.4,0,3.6c0,9.2,0.1,14.8-2.7,17.6c-3.8,3.9-14.1,3.9-36.4,3.9l2.5,3
			c22,0,31.5-0.2,36-4.8c3.7-3.7,3.6-9.7,3.6-19.8C229.6,90,229.6,88.8,229.6,87.6z"/>
		<polygon class="st0" points="175.5,113.1 169.4,105.9 27.2,105.9 21.9,113.1 		"/>
		<path class="st0" d="M95.3,58.8c1.5,0,3.4-1.2,3.4-2.7l0,0V39c0-1.5-1.9-2.7-3.4-2.7s-2,1.2-2,2.7v17.1
			C93.3,57.6,93.8,58.8,95.3,58.8z"/>
		<path class="st0" d="M26.7,104.9h143.2l7.8,9.2H20L26.7,104.9z"/>
		<path class="st0" d="M242.6,28.8H211v44.3h34.2V28.8H242.6L242.6,28.8z M234.9,44.9h-3.4v-3.4h3.4V44.9z"/>
		<path class="st1" d="M167,8H30v83h137V8z M166,90H31V9h135V90z"/>
		<path class="st1" d="M246,28h-3V1h-30v27h-3v46h13v13h2l0,0c0,1.2,0,3,0,4.1v0.2c0,9,0.6,14.2-1.9,16.7c-3.6,3.6-14.3,4-36.2,4
			L176,99V0H21v99L0.4,123.7c0,0,0,0,0,0.1l-0.1,0.1L0.2,124v0.1v0.1L0,124.4c0,0,0,0.1,0,0.2s0,0,0,0.1v3.1c0,2.9,2.3,5.2,5.2,5.2
			h186.6c2.9,0,5.2-2.2,5.2-5.1v-3.3c0-0.1,0-0.1,0-0.1v-0.1v-0.2v-0.1c0,0,0-0.1-0.1-0.1c0,0,0-0.1-0.1-0.1v-0.1l-5.6-6.8
			c21.1,0,30.7-0.4,35.6-5.3c3.9-4,3.1-10,3.2-20.3v-0.2c0-1.1,0-2.7,0-3.9v-0.1h2V74h14L246,28z M23.6,100.5
			c0.1-0.1,0.2-0.4,0.3-0.6h149c0.1,0.2,0.3,0.4,0.4,0.6L193,124H4L23.6,100.5z M173,3v96.1L24,99V3H173z M191.8,130H5.3
			C4,130,3,129,3,127.8l0,0V125l0,0h191l0,0v2.8C194,129,193,130,191.8,130z M226,110.9c-4.5,4.6-13.6,5.1-35.7,5.1l-2.4-3
			c22.3,0,32.2-0.4,36.1-4.2c2.8-2.8,2.2-8.3,2.1-17.6c0-1.1,0-2.9,0-4.2h3c0,1.2,0,3.1,0,4.3C229,101.3,229.6,107.2,226,110.9
			L226,110.9z M214,2h28v26h-28V2z M231,86h-7V74h7V86z M245,73h-34V29h34V73z"/>
		<rect x="219" y="13" class="st1" width="5" height="4"/>
		<rect x="232" y="13" class="st1" width="5" height="4"/>
		<path class="st1" d="M233,49l-4,3.1V38h2.1l-2.6-5.3l-2.6,5.3h2.1v17.6l-4-2.2V50c1.1-0.3,1.7-1.4,1.4-2.4
			c-0.3-1.1-1.4-1.7-2.4-1.4c-1.1,0.3-1.7,1.4-1.4,2.4c0.2,0.7,0.7,1.3,1.4,1.4v4l5,2.8v4.5c-2.1,0.3-3.4,2.3-2.8,4.4
			c0.5,1.6,2.1,2.6,3.7,2.4c1.9-0.3,3.3-2,3-3.9c-0.2-1.5-1.4-2.7-2.9-2.9v-8.1l5-3.7V45h-1V49z"/>
		<rect x="232" y="42" class="st1" width="3" height="3"/>
		<path class="st1" d="M177,114l-7.3-9H26.5l-6.5,9H177z M27,106h142.2l5.8,7H22L27,106z"/>
		<path class="st1" d="M70.2,75h51.6c2.4,0,4.3-2,4.3-4.4c0-0.7-0.2-1.5-0.6-2.1L99.8,23.8c-1.2-2.1-3.9-2.8-5.9-1.6
			c-0.7,0.4-1.2,0.9-1.6,1.6L66.5,68.5c-1.2,2.1-0.5,4.7,1.6,5.9C68.8,74.8,69.5,75,70.2,75z M93,39.6c0-1.5,1.6-2.6,3-2.5
			c1.3,0.1,3,1.3,3,2.7v15.5c0,1.3-1.6,2.6-3,2.7c-1.5,0.1-3-1-3-2.5l0,0V39.6z M96,61.9c1.8,0,3.3,1.5,3.3,3.3s-1.5,3.3-3.3,3.3
			s-3.3-1.5-3.3-3.3l0,0C92.8,63.3,94.2,61.9,96,61.9z"/>
	</g>
</g>
</svg>
