<?xml version="1.0" encoding="utf-8"?>
<!-- Generator: Adobe Illustrator 26.0.2, SVG Export Plug-In . SVG Version: 6.00 Build 0)  -->
<svg version="1.1" id="Layer_1" xmlns="http://www.w3.org/2000/svg" xmlns:xlink="http://www.w3.org/1999/xlink" x="0px" y="0px"
	 viewBox="0 0 197 132" style="enable-background:new 0 0 197 132;" xml:space="preserve">
<style type="text/css">
	.st0{fill:none;}
	.st1{fill:#FE8A2C;}
</style>
<g id="Layer_2_00000020396050065580869510000002657208866694619820_">
	<g id="device_access_error_copy">
		<path class="st0" d="M193.2,124l-19.6-23.9c-0.1-0.1-0.2-0.3-0.3-0.5H24c-0.1,0.2-0.1,0.3-0.2,0.5L3.8,124H193.2z M26.7,104.4H170
			l7.8,9.2H20L26.7,104.4z"/>
		<path class="st0" d="M98.4,68c1.8,0,3.3-1.5,3.3-3.3c0-1.8-1.5-3.3-3.3-3.3c-1.8,0-3.3,1.5-3.3,3.3c0,0,0,0,0,0
			C95.2,66.5,96.6,68,98.4,68C98.4,68,98.4,68,98.4,68z"/>
		<polygon class="st0" points="175.6,112.7 169.5,105.4 27.2,105.4 21.9,112.7 		"/>
		<path class="st0" d="M173.2,98.6V3H24v95.7H173.2z M29.9,8.1H167v82.1H29.9V8.1z"/>
		<path class="st0" d="M194,125L3,125l0,0v2.3c0,1.2,1.1,1.7,2.3,1.7c0,0,0,0,0,0H192c1.2,0,2.1-0.4,2.1-1.7c0,0,0,0,0,0L194,125
			L194,125z"/>
		<path class="st0" d="M30.9,89.2H166V9.1H30.9V89.2z M68.8,68l25.8-44.8c1.2-2.1,3.9-2.8,5.9-1.6c0.7,0.4,1.2,0.9,1.6,1.6L128.1,68
			c1.2,2.1,0.5,4.7-1.6,5.9c-0.7,0.4-1.4,0.6-2.2,0.6H72.6c-2.4,0-4.3-1.9-4.3-4.3C68.2,69.4,68.4,68.7,68.8,68z"/>
		<path class="st1" d="M197,124.2c0-0.1,0-0.1,0-0.2v-0.1c0,0,0-0.1,0-0.1l-0.1-0.1c0,0,0-0.1-0.1-0.1c0,0,0-0.1-0.1-0.1l-0.1-0.1
			L176,98l0-97.9L21,0l0,98.6L0.4,123.3c0,0-0.1,0-0.1,0.1l-0.1,0.1c0,0-0.2,0.1-0.2,0.2c0,0,0,0.1,0,0.1c0,0,0,0.1,0,0.1l0,0.1
			c0,0,0,0.1,0,0.2s0,0,0,0.1v3.1c0,2.9,2.4,4.7,5.3,4.7H192c2.9,0,5-1.8,5-4.7V124.2L197,124.2z M23.7,100.1
			c0.1-0.1,0.2-0.9,0.3-1.1h149c0.1,0.2,0.4,1,0.5,1.1l19.6,23.9H3.8L23.7,100.1z M173,3v95L24,98l0-95H173z M192,129H5.3
			c-1.2,0-2.3-0.5-2.3-1.7c0,0,0,0,0,0V125l0,0l191,0l0,0v2.4C194,128.6,193.2,129,192,129z"/>
		<path class="st1" d="M167,8L30,8l0,82l137,0L167,8z M166,89L31,89l0-80h135L166,89z"/>
		<path class="st1" d="M177.4,113l-7.4-9H26.7l-6.7,9L177.4,113z M27.2,105h142.3l5.7,7L22,112L27.2,105z"/>
		<path class="st1" d="M72.6,74.9h51.7c2.4,0,4.4-1.9,4.4-4.3c0-0.8-0.2-1.5-0.6-2.2l-25.9-44.8c-1.2-2.1-3.9-2.8-5.9-1.6
			c-0.7,0.4-1.2,0.9-1.6,1.6L68.8,68.4c-1.2,2.1-0.5,4.7,1.6,5.9C71.1,74.7,71.8,74.9,72.6,74.9z M95.9,39c0-1.5,1-3,2.5-3
			c1.5,0,2.7,1.5,2.7,3V56c0,1.5-1.1,3-2.6,3c-1.5,0-2.6-1.5-2.6-3c0,0,0,0,0,0V39z M98.4,61.8c1.8,0,3.3,1.5,3.3,3.3
			s-1.5,3.3-3.3,3.3s-3.3-1.5-3.3-3.3v0C95.1,63.3,96.6,61.8,98.4,61.8z"/>
	</g>
</g>
</svg>
