<?xml version="1.0" encoding="UTF-8" standalone="no"?>
<!-- Generator: Adobe Illustrator 28.0.0, SVG Export Plug-In . SVG Version: 6.00 Build 0)  -->

<svg
   version="1.1"
   id="Layer_5"
   x="0px"
   y="0px"
   viewBox="0 0 360 156"
   xml:space="preserve"
   width="360"
   height="156"
   xmlns="http://www.w3.org/2000/svg"
   xmlns:svg="http://www.w3.org/2000/svg"><defs
   id="defs24" />&#10;<style
   type="text/css"
   id="style1">&#10;	.st0{fill:url(#SVGID_1_);}&#10;	.st1{fill:#FE8A2C;}&#10;</style>&#10;<g
   id="g24"
   transform="translate(-2)">&#10;	<linearGradient
   id="SVGID_1_"
   gradientUnits="userSpaceOnUse"
   x1="181.8875"
   y1="156.4734"
   x2="181.8875"
   y2="-1.2854">&#10;		<stop
   offset="7.885129e-07"
   style="stop-color:#3C1A00"
   id="stop1" />&#10;		<stop
   offset="0.5511"
   style="stop-color:#220F00"
   id="stop2" />&#10;		<stop
   offset="1"
   style="stop-color:#090400"
   id="stop3" />&#10;	</linearGradient>&#10;	<path
   class="st0"
   d="m 303.3,1.2 c 0,0 -219.9,0 -229.7,0 -9.8,0 -17,10.3 -17,10.3 0,0 -49.3,63.9 -51.4,66.8 -3,4 -2.1,14.1 0,17 5.9,8 34.5,47.1 35.8,48.8 1.4,1.7 7.7,11.1 16.5,11.1 8.8,0 278.7,0 283.5,0 8.7,0 19.6,-20.2 19.6,-25.2 0,-5 -0.3,-58.9 -0.3,-64.5 0,-3.7 -2.6,-8.4 -5.1,-11.5 C 352.9,51.2 319.9,10 317,6.5 314.5,3.6 308.8,1.2 303.3,1.2 Z"
   id="path3"
   style="fill:url(#SVGID_1_)" />&#10;	<g
   id="g4">&#10;		<path
   class="st1"
   d="m 304,3 c 4.5,0 10,3.3 12,5.7 2.9,3.4 35.3,44 38,47.4 3.1,3.9 4.9,7.5 4.9,9.7 v 64.5 c 0,4 -10.8,22.7 -17.2,22.7 H 57.1 c -4.5,0 -9.3,-3.4 -14.5,-10 -0.2,-0.2 -0.3,-0.4 -0.4,-0.5 -0.7,-0.9 -10.1,-13.7 -18.4,-25 C 16.5,107.6 9,97.4 6.3,93.7 5,92 4.1,83.3 6.3,80.4 8.4,77.6 57.4,14.3 57.9,13.7 L 58,13.6 58.1,13.5 C 58.1,13.4 65.2,3 73.3,3 H 304 m 0,-3 C 304,0 83.3,0 73.3,0 63.4,0 55.5,11.8 55.5,11.8 c 0,0 -49.4,63.9 -51.6,66.8 -2.9,4 -2.1,14.1 0,17 6,8 34.6,47.1 36,48.8 1.4,1.7 8.5,11.7 17.3,11.7 8.8,0 279.9,0 284.7,0 8.8,0 20.2,-20.8 20.2,-25.7 0,-4.9 0,-58.9 0,-64.5 0,-3.7 -3.1,-8.4 -5.6,-11.5 C 354.2,51.6 321.3,10.4 318.4,6.9 315.9,3.9 309.6,0 304,0 Z"
   id="path4" />&#10;	</g>&#10;	<g
   id="g10">&#10;		<polygon
   class="st1"
   points="118,137 117,137 117,139 116,139 116,142 115,142 115,144 114,144 114,146 117,146 117,144 118,144 118,142 119,142 119,139 120,139 120,137 134,137 134,136 135,136 135,135 136,135 136,134 122.9,134 123,133 124,133 124,131 142,131 142,130 143,130 143,129 144,129 144,128 121,128 121,131 120,131 120,133 119,133 119,135 118,135 "
   id="polygon4" />&#10;		<path
   class="st1"
   d="m 148.1,128.1 h 2.9 v 3.9 h -1 v 2 h -1 v 2 h -1 v 2 h -1 v 2 h 14 v 0.9 h -1 v 1 h -1 v 1 h -17 v -2 h 1 v -2 h 1.1 v -2 h 0.9 v -2 h 1 v -2 h 1 v -2 h 1 c 0,0.1 0,-2.8 0.1,-2.8 z"
   id="path5" />&#10;		<path
   class="st1"
   d="m 171,128 v 3 h -1 v 2 h -0.9 v 2 h -1 v 2 h -1 v 2 h -1 v 2 h -1 v 1.9 h 2.9 v -2 h 1.1 v -2 h 1 v -2 h 1 v -2 h 1 v -2 h 1 v -1 h 1 V 128 c -0.1,0 -3.1,0 -3.1,0 z"
   id="path6" />&#10;		<path
   class="st1"
   d="m 181,128 v 3 h -1 v 2 h -0.9 v 2 h -1 v 2 h -1 v 2 h -1 v 2 h -1 v 1.9 h 2.9 v -2 h 1.1 v -2 h 1 v -2 h 15 V 136 h 1 v -1 h 1 v -1 h 1 v -1 h 1 v -1 h 1 v -1 h 1 v -1 h 1 v -2 c -0.1,0 -21.1,0 -21.1,0 z m 15,4 v 1 h -0.9 v 1 H 182 v -1 h 1 v -1 h 1 v -1 h 13 v 1.1 h -1 z"
   id="path7" />&#10;		<path
   class="st1"
   d="m 205,128 v 3 h -1 v 2 h -0.9 v 2 h -1 v 2 h -1 v 2 h -1 v 2 h -1 v 1.9 h 2.9 v -2 h 1.1 v -2 h 1 v -2 h 15 V 136 h 1 v -1 h 1 v -1 h 1 v -1 h 1 v -1 h 1 v -1 h 1 v -1 h 1 v -2 c -0.1,0 -21.1,0 -21.1,0 z m 15,4 v 1 h -0.9 v 1 H 206 v -1 h 1 v -1 h 1 v -1 h 13 v 1.1 h -1 z"
   id="path8" />&#10;		<path
   class="st1"
   d="M 250.9,128.1 H 231 v 3 h -1 v 2 h -1 v 2 h -1 v 2 h -1 v 2 h -1 v 2 h -1 v 1.9 h 18.9 v -1 h 1 v -1 h 1.1 v -1 h -17 v -1.1 h 1 v -2 h 14 v -1 h 1 V 135 h 1 v -1 h -14 v -1 h 1 v -2 h 17 v -1 h 1 c -0.1,0 -0.1,-2 -0.1,-1.9 z"
   id="path9" />&#10;		<path
   class="st1"
   d="m 257,128 v 3 h -1 v 2 h -0.9 v 2 h -1 v 2 h -1 v 2 h -1 v 2 h -1 v 1.9 h 2.9 v -2 h 1.1 v -2 h 1 v -2 h 11.1 v 1 h 0.9 v 1 h 1 v 1 h 1 v 1 h 1 v 1 h 1 v 1 h 1 l 0.1,1 h 1 v 1.1 h 1 v 1 h 3 v -0.9 h -1 v -1 h -1 v -1 h -1 v -1 h -1 v -1 h -1 v -1 h -1 v -0.9 h -1 v -1 h -1 v -1 h 1.1 v -1 h 1 v -1 h 1 v -1 h 1 v -1 h 1 v -1 h 1 v -1 h 1 v -1 h 1 V 128 c -0.3,0 -21.3,0 -21.3,0 z m 15,4 v 1 h -0.9 v 1 H 258 v -1 h 1 v -1 h 1 v -1 h 13 v 1.1 h -1 z"
   id="path10" />&#10;	</g>&#10;	<g
   id="g11">&#10;		<path
   class="st1"
   d="M 223.3,98 H 94.7 C 91,98 88,95 88,91.3 V 25.7 C 88,22 91,19 94.7,19 h 128.6 c 3.7,0 6.7,3 6.7,6.7 v 65.6 c 0,3.7 -3,6.7 -6.7,6.7 z M 94.7,20 C 91.6,20 89,22.6 89,25.7 v 65.6 c 0,3.1 2.6,5.7 5.7,5.7 h 128.6 c 3.1,0 5.7,-2.6 5.7,-5.7 V 25.7 c 0,-3.1 -2.6,-5.7 -5.7,-5.7 z"
   id="path11" />&#10;	</g>&#10;	<g
   id="g12">&#10;		<path
   class="st1"
   d="M 276.5,94 C 256.9,94 241,78.1 241,58.5 241,38.9 256.9,23 276.5,23 296.1,23 312,38.9 312,58.5 312,78.1 296.1,94 276.5,94 Z m 0,-70.1 c -19,0 -34.6,15.6 -34.6,34.6 0,19 15.6,34.6 34.6,34.6 19,0 34.6,-15.6 34.6,-34.6 0,-19 -15.6,-34.6 -34.6,-34.6 z"
   id="path12" />&#10;	</g>&#10;	<g
   id="g13">&#10;		<path
   class="st1"
   d="m 328.6,94 c -6.3,0 -11.5,-5.2 -11.5,-11.5 0,-6.3 5.1,-11.5 11.5,-11.5 6.4,0 11.4,5.2 11.4,11.5 0,6.3 -5.1,11.5 -11.4,11.5 z m -0.1,-22.1 c -5.8,0 -10.6,4.8 -10.6,10.6 0,5.8 4.8,10.6 10.6,10.6 5.8,0 10.6,-4.8 10.6,-10.6 0,-5.8 -4.8,-10.6 -10.6,-10.6 z"
   id="path13" />&#10;	</g>&#10;	<g
   id="g14">&#10;		<path
   class="st1"
   d="m 330.8,88 h -6.4 c -0.3,0 -0.3,-0.2 -0.3,-0.5 v -2 c 0,-0.3 0,-0.4 0.3,-0.4 h 5.9 c 0.6,0 1.1,-0.3 1.4,-0.7 0.3,-0.4 0.5,-0.9 0.5,-1.4 0,-1 -0.5,-2 -1.6,-2 H 326 l -0.1,1.6 c 0,0.2 -0.1,0.4 -0.3,0.5 -0.2,0.1 -0.4,0 -0.5,-0.1 l -2.9,-3 c -0.2,-0.2 -0.2,-0.5 0,-0.7 l 2.8,-3 c 0.1,-0.1 0.4,-0.2 0.5,-0.1 0.2,0.1 0.3,0.3 0.3,0.5 V 78 h 4.9 c 2.8,0 4.2,2.5 4.2,5 0,1.3 -0.4,2.5 -1,3.4 -0.7,1 -1.8,1.6 -3.1,1.6 z m -5.9,-1 h 5.9 c 1,0 1.8,-0.4 2.4,-1.2 0.5,-0.7 0.9,-1.7 0.9,-2.8 0,-1.9 -0.8,-4 -3.2,-4 h -5.4 c -0.3,0 -0.6,-0.2 -0.6,-0.5 v -0.8 l -1.7,1.8 1.7,1.8 v -0.8 c 0,-0.3 0.2,-0.5 0.5,-0.5 h 4.9 c 1.5,0 2.6,1.5 2.6,3 0,0.8 -0.1,1.4 -0.5,1.9 -0.5,0.6 -1.3,1 -2.1,1 h -5.4 z"
   id="path14" />&#10;	</g>&#10;	<g
   id="g15">&#10;		<path
   class="st1"
   d="M 276.5,70 C 270.2,70 265,64.8 265,58.5 265,52.2 270.2,47 276.5,47 c 6.3,0 11.5,5.2 11.5,11.5 0,6.3 -5.2,11.5 -11.5,11.5 z m 0,-22 c -5.8,0 -10.5,4.8 -10.5,10.6 0,5.8 4.8,10.5 10.5,10.5 5.7,0 10.5,-4.8 10.5,-10.6 C 287,52.7 282.3,48 276.5,48 Z"
   id="path15" />&#10;	</g>&#10;	<g
   id="g16">&#10;		<path
   class="st1"
   d="m 281.2,40 h -9.3 c -0.4,0 -0.8,-0.2 -0.9,-0.5 -0.2,-0.3 -0.2,-0.7 0,-1.1 l 4.7,-7.9 c 0.4,-0.7 1.5,-0.7 1.9,0 l 4.7,7.9 c 0.2,0.3 0.2,0.7 0,1.1 -0.4,0.3 -0.8,0.5 -1.1,0.5 z m -4.7,-9.1 c 0,0 -0.1,0.1 0,0 l -4.7,7.9 c 0,0 0,0.1 0,0.1 0,0 0,0 0.1,0 h 9.3 c 0,0 0.1,0 0.1,0 0,0 0,-0.1 0,-0.1 l -4.8,-7.9 c 0.1,0.1 0,0 0,0 z"
   id="path16" />&#10;	</g>&#10;	<g
   id="g17">&#10;		<path
   class="st1"
   d="m 276.5,87 c -0.4,0 -0.8,-0.2 -1,-0.5 l -4.7,-7.9 c -0.2,-0.3 -0.2,-0.7 0,-1.1 0.2,-0.3 0.6,-0.5 0.9,-0.5 h 9.3 c 0.4,0 0.8,0.2 0.9,0.5 0.2,0.3 0.2,0.7 0,1.1 l -4.7,7.9 c 0.1,0.3 -0.3,0.5 -0.7,0.5 z m -4.6,-9 c -0.1,0 -0.1,0 0,0 -0.1,0.1 -0.1,0.1 -0.1,0.2 l 4.7,8.1 c 0,0.1 0.1,0.1 0.2,0 l 4.7,-8.1 c 0,0 0,-0.1 0,-0.1 0,0 0,-0.1 -0.1,-0.1 z"
   id="path17" />&#10;	</g>&#10;	<g
   id="g18">&#10;		<path
   class="st1"
   d="m 296.1,64.2 c -0.2,0 -0.4,0 -0.5,-0.1 -0.3,-0.2 -0.5,-0.6 -0.5,-0.9 v -9.3 c 0,-0.4 0.2,-0.8 0.5,-0.9 0.3,-0.2 0.7,-0.2 1.1,0 l 7.9,4.7 c 0.3,0.2 0.5,0.6 0.5,1 0,0.4 -0.2,0.8 -0.5,1 l -7.9,4.7 c -0.3,-0.2 -0.4,-0.2 -0.6,-0.2 z m 0,-10.5 c -0.1,0 -0.1,0.1 0,0 -0.1,0 -0.1,0.1 -0.1,0.1 v 9.3 c 0,0 0,0.1 0,0.1 0,0 0.1,0 0.1,0 l 7.9,-4.7 c 0,0 0,0 0,-0.1 0,0 0,-0.1 0,-0.1 l -7.9,-4.6 c 0,0.1 0,0 0,0 z"
   id="path18" />&#10;	</g>&#10;	<g
   id="g19">&#10;		<path
   class="st1"
   d="m 256.9,64.2 c -0.2,0 -0.4,0 -0.5,-0.1 l -7.9,-4.7 c -0.3,-0.2 -0.5,-0.6 -0.5,-1 0,-0.4 0.2,-0.8 0.5,-1 l 7.9,-4.7 c 0.3,-0.2 0.7,-0.2 1.1,0 0.3,0.2 0.5,0.6 0.5,0.9 v 9.3 c 0,0.4 -0.2,0.8 -0.5,0.9 -0.2,0.4 -0.4,0.4 -0.6,0.4 z m 0,-10.5 c 0,0 0,0.1 0,0 l -7.9,4.7 c 0,0 0,0 0,0.1 0,0 0,0.1 0,0.1 l 7.9,4.7 c 0,0 0.1,0 0.1,0 0,0 0,0 0,-0.1 v -9.3 c 0,-0.1 0,-0.1 -0.1,-0.2 0.1,0.1 0.1,0 0,0 z"
   id="path19" />&#10;	</g>&#10;	<g
   id="g20">&#10;		<path
   class="st1"
   d="M 329.5,98 H 277 c -22.4,0 -40,-17.1 -40,-39 0,-22 17.9,-40 40,-40 11.1,0 21.7,4.6 29.3,12.8 l 33.9,40.8 c 4,4.3 3.9,8.7 3.9,11.3 v 0.6 C 344,90.7 336.1,98 329.5,98 Z M 277,19.9 c -21.5,0 -39.1,17.6 -39.1,39.1 0,21.3 17.2,38 39,38 h 52.5 c 6,0 13.6,-7 13.6,-12.6 v -0.6 c 0,-2.5 0,-6.5 -3.7,-10.6 L 305.4,32.4 C 298.1,24.5 287.8,19.9 277,19.9 Z"
   id="path20" />&#10;	</g>&#10;	<g
   id="g21">&#10;		<path
   class="st1"
   d="m 240.5,98 c -1.9,0 -3.5,-1.6 -3.5,-3.5 0,-1.9 1.6,-3.5 3.5,-3.5 1.9,0 3.5,1.6 3.5,3.5 0,1.9 -1.6,3.5 -3.5,3.5 z m 0,-6 c -1.4,0 -2.5,1.1 -2.5,2.5 0,1.4 1.1,2.5 2.5,2.5 1.4,0 2.5,-1.1 2.5,-2.5 0,-1.4 -1.1,-2.5 -2.5,-2.5 z"
   id="path21" />&#10;	</g>&#10;	<g
   id="g22">&#10;		<path
   class="st1"
   d="M 341.5,120 H 72.3 c -9.1,0 -12.5,-3.8 -17.7,-9.5 L 54,109.8 C 49.1,104.3 42.3,96.3 38.2,91 34.4,86.1 35.9,83.7 38.8,79 L 39,78.7 C 40.6,76.2 50.1,62.7 59.3,49.6 68.5,36.6 78,23.1 79.8,20.3 84.5,13.1 90.5,10 100,10 h 199.6 c 3.6,0 8.8,1.7 12,5.5 l 0.8,0.9 c 20.6,24.6 32.3,38.7 34.9,41.9 4.2,5.3 4.8,7.7 4.8,11.4 v 39.7 c -0.1,5 -4.4,10.6 -10.6,10.6 z M 100,11 C 90.9,11 85.1,13.9 80.8,20.8 79,23.6 69.4,37.1 60.2,50.2 51,63.3 41.5,76.8 39.9,79.3 l -0.2,0.3 c -3,4.7 -4.1,6.5 -0.7,10.8 4,5.2 10.8,13.2 15.7,18.7 l 0.6,0.7 c 5.1,5.7 8.3,9.3 16.9,9.3 h 269.2 c 5.6,0 9.5,-5.1 9.5,-9.7 V 69.7 c 0,-3.6 -0.7,-5.7 -4.6,-10.8 C 343.8,55.7 332.1,41.6 311.5,17 l -0.8,-0.9 C 307.8,12.6 302.8,11 299.5,11 Z"
   id="path22" />&#10;	</g>&#10;	<g
   id="g23">&#10;		<path
   class="st1"
   d="M 222.7,95 H 95.3 C 92.9,95 91,93.1 91,90.7 V 26.3 C 91,23.9 92.9,22 95.3,22 h 127.4 c 2.4,0 4.3,1.9 4.3,4.3 v 64.4 c 0,2.4 -1.9,4.3 -4.3,4.3 z"
   id="path23" />&#10;	</g>&#10;</g>&#10;</svg>
