<?xml version="1.0" encoding="UTF-8" standalone="no"?>
<!-- Generator: Adobe Illustrator 25.4.1, SVG Export Plug-In . SVG Version: 6.00 Build 0)  -->

<svg
   version="1.1"
   id="Layer_1"
   x="0px"
   y="0px"
   viewBox="0 0 359.00001 150"
   xml:space="preserve"
   width="359"
   height="150"
   xmlns="http://www.w3.org/2000/svg"
   xmlns:svg="http://www.w3.org/2000/svg"><defs
   id="defs92" />
<style
   type="text/css"
   id="style2">
	.st0{fill:url(#SVGID_1_);}
	.st1{fill:#FE8A2C;}
</style>
<g
   id="g87">
	<g
   id="g85">
		<linearGradient
   id="SVGID_1_"
   gradientUnits="userSpaceOnUse"
   x1="179.4189"
   y1="149.1319"
   x2="179.4189"
   y2="0.8664">
			<stop
   offset="0"
   style="stop-color:#3C1A00"
   id="stop4" />
			<stop
   offset="0.5511"
   style="stop-color:#220F00"
   id="stop6" />
			<stop
   offset="1"
   style="stop-color:#090400"
   id="stop8" />
		</linearGradient>
		<path
   class="st0"
   d="m 72,0.9 h 224.7 c 6.9,0.1 14,0.6 19.7,7.1 5.7,6.5 30.1,36.5 32.7,39.8 2.7,3.3 5.1,7.2 5.9,13.9 0.8,6.7 3,51.8 3,58.2 0,6.6 -1.9,9.3 -3.3,12.3 -1.4,2.8 -3.5,7.1 -4.8,9.9 -1.3,2.8 -7,6.9 -14.6,7.2 H 57.5 c -8.2,0.1 -15.1,-1.8 -19.6,-7.7 -4.5,-6 -29,-39.4 -30.1,-41.1 C 6.1,97.4 4.6,93 2.1,88.1 0.5,85 -0.2,80 4,74.3 8.1,68.6 49.4,14.5 53,10.2 56.7,5.9 63.1,0.8 72,0.9 Z"
   id="path11" />
		<g
   id="g15">
			<path
   class="st1"
   d="M 57,150 C 47.7,150 41.5,147.4 37.3,141.9 33.2,136.4 8.3,102.6 7.2,100.8 6.1,99.1 5.2,97 4.2,94.5 3.4,92.7 2.5,90.6 1.4,88.5 0.3,86.4 -1.7,80.7 3.3,73.8 7.7,67.8 49,13.7 52.4,9.6 55.4,6 62,0 71.9,0 71.9,0 72,0 72,0 h 224.7 c 7.5,0.1 14.6,0.8 20.4,7.4 2.4,2.7 9.8,11.7 31.8,38.6 l 1,1.2 c 2.7,3.3 5.3,7.3 6.1,14.4 0.9,7.1 3,52.3 3,58.3 0,6 -1.5,9 -2.9,11.6 -0.2,0.3 -0.4,0.7 -0.5,1 -1.4,2.7 -3.5,7 -4.8,9.8 -1.4,2.9 -7.3,7.4 -15.4,7.6 H 57.5 C 57.3,150 57.1,150 57,150 Z M 71.9,1.7 c -9.2,0 -15.4,5.6 -18.2,9 -3.4,4 -44.6,58.1 -49,64.1 -4.4,6.1 -2.7,11 -1.8,12.9 1.1,2.2 2,4.3 2.8,6.1 1,2.4 1.9,4.5 2.9,6.1 1,1.6 25.6,35 30.1,41 3.9,5.1 9.9,7.5 18.9,7.4 h 277.7 c 7,-0.2 12.5,-4 13.8,-6.7 1.4,-2.8 3.5,-7.1 4.8,-9.9 0.2,-0.4 0.4,-0.7 0.5,-1.1 1.3,-2.6 2.7,-5.2 2.7,-10.8 0,-6.8 -2.2,-51.6 -3,-58.1 -0.8,-6.6 -3.2,-10.4 -5.8,-13.5 l -1,-1.2 C 325.4,20.1 318,11.2 315.6,8.4 310.3,2.4 303.8,1.8 296.5,1.6 L 71.9,1.7 c 0,0 0,0 0,0 z"
   id="path13" />
		</g>
		<g
   id="g19">
			<path
   class="st1"
   d="m 49,142.3 c -8.1,0 -12.3,-3.1 -22.1,-16.4 C 17.4,113.1 4.2,94.6 4.1,94.4 l 0.4,-0.3 c 0.1,0.2 13.3,18.7 22.8,31.6 9.7,13.1 13.8,16.1 21.7,16.1 h 287.7 c 5.9,-0.4 14.5,-4.6 16.2,-7.9 l 0.5,0.2 c -1.8,3.8 -11.1,7.9 -16.6,8.2 z"
   id="path17" />
		</g>
		<g
   id="g23">
			<path
   class="st1"
   d="M 73.8,113.7 C 65.3,113.6 61.7,112.4 57.7,108 53.6,103.6 43.6,92.2 40.5,88.2 c -3.4,-4.5 -1.9,-8 0.2,-11.1 2.2,-3.3 34.9,-55 37.8,-60 2.9,-5 8.7,-10.3 16,-10.3 h 196.9 c 7.2,0 11.9,0.4 16.6,6 4.7,5.6 32.5,41.1 34.5,43.7 2.7,3.6 4.3,8.1 4.3,12.3 0,1.6 0.2,5.3 0.3,9.6 0.3,8.3 0.8,19.7 0.6,23.7 -0.3,6.1 -5.6,11.2 -11.9,11.4 H 73.8 Z M 94.5,7.3 c -7.1,0 -12.7,5.2 -15.6,10.1 -2.9,5 -35.6,56.7 -37.9,60 -1.9,2.8 -3.6,6.1 -0.2,10.5 3,4 13.1,15.3 17.1,19.7 3.9,4.2 7.4,5.4 15.8,5.5 h 262.1 c 6,-0.2 11.2,-5.1 11.4,-10.9 0.2,-4 -0.3,-15.3 -0.6,-23.6 -0.2,-4.3 -0.3,-8 -0.3,-9.6 -0.1,-5.9 -3,-10.4 -4.2,-12 -2,-2.7 -29.7,-38.1 -34.5,-43.7 C 303,7.9 298.4,7.5 291.3,7.5 H 94.5 Z"
   id="path21" />
		</g>
		<g
   id="g27">
			<path
   class="st1"
   d="m 272.3,92.5 c -9.8,0 -19.7,-3.9 -27.2,-10.8 -8,-7.4 -12.4,-17.4 -12.4,-28.2 0,-23.5 20.7,-38.1 39.8,-38.1 19,0 30.3,14 30.4,14.1 1.6,2 8.6,10.6 16,19.6 8.1,9.8 16.4,20 18.4,22.5 2.3,3 2.7,8.3 0.9,13 -1.7,4.4 -5,7.3 -9,8 z m 0.2,-76.6 c -18.9,0 -39.3,14.4 -39.3,37.6 0,23.1 20.2,38.5 39.1,38.5 h 57 c 3.8,-0.6 6.9,-3.4 8.5,-7.6 1.7,-4.5 1.4,-9.6 -0.9,-12.4 v 0 c -2,-2.5 -10.4,-12.7 -18.4,-22.5 -7.4,-9 -14.4,-17.5 -16,-19.6 -0.1,-0.2 -11.2,-14 -30,-14 z"
   id="path25" />
		</g>
		<g
   id="g31">
			<path
   class="st1"
   d="m 274.1,89.6 c -21.5,0 -38.4,-16.1 -38.4,-36.6 0,-9.1 3.6,-17.6 10.2,-24.1 7,-6.9 16.7,-10.8 26.7,-10.7 10,0.1 19.4,4.1 26.6,11.2 6.8,6.7 10.7,15.5 10.7,24.1 0,9.2 -3.6,18.3 -9.9,25 -6.8,7.2 -16,11.1 -25.9,11.1 z m -2,-70.4 c -9.6,0 -18.9,3.8 -25.6,10.4 -6.4,6.3 -9.9,14.7 -9.9,23.5 0,20 16.5,35.7 37.5,35.7 21.6,0 35,-18.2 35,-35.2 0,-16.1 -15,-34.1 -36.4,-34.4 -0.2,0 -0.4,0 -0.6,0 z"
   id="path29" />
		</g>
		<g
   id="g35">
			<path
   class="st1"
   d="m 325.6,90.4 c -0.1,0 -0.1,0 -0.2,0 -3.4,0 -6.6,-1.4 -8.9,-3.7 -2.2,-2.3 -3.5,-5.3 -3.4,-8.3 0.1,-5.4 4.6,-11.3 11.8,-11.4 v 0 c 4.5,-0.1 7.4,2 9,3.8 2.1,2.2 3.3,5.2 3.3,8.2 0,3.1 -1.1,6.1 -3.3,8.2 -2,2.1 -4.9,3.2 -8.3,3.2 z M 324.9,67.9 C 318.2,68 314,73.4 314,78.4 c 0,2.8 1.1,5.5 3.2,7.6 2.2,2.2 5.1,3.4 8.3,3.5 3.2,0 5.9,-1 7.9,-3 1.9,-2 3,-4.7 3,-7.6 0,-2.7 -1.2,-5.5 -3.1,-7.6 -1.5,-1.6 -4.1,-3.5 -8.2,-3.5 -0.1,0.1 -0.1,0.1 -0.2,0.1 z"
   id="path33" />
		</g>
		<g
   id="g39">
			<path
   class="st1"
   d="m 273.7,83.4 c -0.4,0 -0.9,-0.3 -1.2,-0.7 -0.3,-0.4 -2.3,-3.6 -4.2,-6.6 -0.4,-0.7 -0.7,-1.2 -0.9,-1.4 -0.4,-0.6 -0.5,-1.3 -0.2,-1.8 0.1,-0.2 0.4,-0.6 1.1,-0.6 v 0 c 0.7,0 3.2,0 5.5,0 2,0 3.9,0 4.4,0 0.9,0 1.2,0.5 1.4,0.7 0.2,0.4 0.2,1 -0.1,1.4 -0.1,0.2 -0.6,1 -1.2,2.1 -1.3,2.3 -3.1,5.6 -3.5,6.1 -0.3,0.7 -0.8,0.8 -1.1,0.8 0,0 0,0 0,0 z m -5.3,-10.2 c -0.2,0 -0.3,0 -0.3,0.1 -0.1,0.2 -0.1,0.5 0.2,0.9 0.1,0.2 0.4,0.7 0.9,1.4 1.3,2.2 3.8,6.2 4.1,6.6 0.2,0.2 0.3,0.3 0.5,0.3 0.2,0 0.4,-0.2 0.5,-0.3 0.4,-0.5 2.2,-3.9 3.5,-6.1 0.6,-1 1,-1.8 1.2,-2.1 0.1,-0.2 0.2,-0.4 0.1,-0.6 -0.1,-0.2 -0.3,-0.2 -0.6,-0.3 -0.5,0 -2.4,0 -4.4,0 -2.6,0.1 -5,0.1 -5.7,0.1 v 0 c 0,0 0,0 0,0 z"
   id="path37" />
		</g>
		<g
   id="g43">
			<path
   class="st1"
   d="m 252.6,59.3 c -0.3,0 -0.6,-0.1 -1,-0.2 -0.6,-0.3 -4.6,-2.5 -8,-4.4 l -0.7,-0.4 c -0.7,-0.4 -0.8,-0.9 -0.8,-1.2 0,-0.5 0.4,-1 1,-1.3 0.6,-0.3 3.8,-2.1 6,-3.3 0.9,-0.5 1.6,-0.9 2,-1.1 0.5,-0.3 1.3,-0.7 1.9,-0.3 0.4,0.2 0.6,0.7 0.6,1.4 h -0.4 0.4 c 0,1.1 0.1,7 0.2,8.9 v 0.5 c 0,0.6 -0.2,1 -0.5,1.2 -0.2,0.2 -0.4,0.2 -0.7,0.2 z m -0.2,-11.5 c -0.1,0 -0.4,0.1 -0.9,0.3 -0.3,0.2 -1.1,0.6 -2,1.1 -2.3,1.3 -5.4,3 -6,3.4 -0.4,0.2 -0.5,0.4 -0.5,0.5 0,0.1 0.1,0.3 0.3,0.4 l 0.7,0.4 c 1.8,1 7.3,4.1 8,4.4 0.4,0.2 0.7,0.2 0.8,0.1 0.1,0 0.1,-0.2 0.1,-0.5 v -0.5 c 0,-1.9 -0.2,-7.8 -0.2,-9 0,-0.4 -0.1,-0.6 -0.2,-0.7 0,0.1 0,0.1 -0.1,0.1 z"
   id="path41" />
		</g>
		<g
   id="g47">
			<path
   class="st1"
   d="m 293.7,59.2 c -0.2,0 -0.5,-0.1 -0.7,-0.2 -0.3,-0.2 -0.7,-0.6 -0.7,-1.4 0,-0.5 0,-1.7 -0.1,-3.1 -0.1,-2.3 -0.1,-5.2 -0.1,-6.2 0,-0.7 0.2,-1.2 0.6,-1.5 0.5,-0.3 1.3,-0.2 2.2,0.4 0.9,0.5 5.3,3 7.1,4.1 l 0.7,0.4 c 0.5,0.3 0.8,0.7 0.8,1.2 0,0.4 -0.2,0.9 -1,1.4 -1.1,0.7 -7.3,4.3 -8,4.7 -0.2,0.1 -0.5,0.2 -0.8,0.2 z m -0.2,-11.7 c -0.1,0 -0.2,0 -0.2,0 -0.1,0.1 -0.2,0.3 -0.2,0.7 0,1 0.1,3.9 0.1,6.1 0,1.4 0.1,2.7 0.1,3.1 0,0.2 0,0.5 0.2,0.7 0.2,0.1 0.5,0.1 0.8,-0.1 0.7,-0.4 7,-4 8,-4.6 0.4,-0.2 0.6,-0.5 0.6,-0.7 0,-0.1 -0.1,-0.3 -0.4,-0.4 l -0.7,-0.4 c -1.9,-1.1 -6.3,-3.6 -7.1,-4.1 -0.7,-0.2 -1,-0.3 -1.2,-0.3 z"
   id="path45" />
		</g>
		<g
   id="g51">
			<path
   class="st1"
   d="m 277.6,34.8 c -0.1,0 -0.1,0 0,0 -0.5,0 -6.7,0 -9,0 h -1.1 c -0.6,0 -1.1,-0.2 -1.4,-0.7 -0.1,-0.2 -0.3,-0.7 0.1,-1.5 0.3,-0.5 1.3,-2.1 2.3,-3.9 1,-1.6 2,-3.3 2.3,-3.9 0.4,-0.8 0.9,-1.2 1.4,-1.2 0.4,0 0.8,0.2 1.2,0.8 0.2,0.4 1.2,1.9 2.3,3.6 1.2,1.9 2.6,4.1 2.9,4.6 0.3,0.5 0.4,1 0.1,1.5 -0.2,0.4 -0.6,0.7 -1.1,0.7 z m -2.8,-0.9 c 1.5,0 2.5,0 2.7,0 0.2,0 0.4,-0.1 0.5,-0.2 0.1,-0.2 0,-0.4 -0.1,-0.6 -0.3,-0.5 -1.6,-2.6 -2.9,-4.6 -1.1,-1.7 -2,-3.2 -2.3,-3.6 -0.2,-0.2 -0.3,-0.4 -0.4,-0.4 0,0 0,0 0,0 0,0 -0.3,0 -0.7,0.7 -0.4,0.6 -1.4,2.3 -2.3,3.9 -1,1.7 -2.1,3.4 -2.3,3.9 -0.1,0.1 -0.2,0.4 -0.1,0.6 0.1,0.2 0.3,0.2 0.6,0.2 h 1.1 c 2.2,0.1 4.5,0.1 6.2,0.1 z"
   id="path49" />
		</g>
		<g
   id="g55">
			<path
   class="st1"
   d="m 328.4,84.1 h -6.6 v -2.5 h 6.4 c 1.2,0 1.8,-1.5 1.8,-2.4 0,-0.7 -0.3,-2.5 -1.8,-2.5 h -5.7 v 1.7 l -4.5,-3 4.5,-3.3 V 74 h 5.5 c 2.8,0 4.7,2.7 4.7,5.1 0.1,2.7 -1.8,5 -4.3,5 z m -5.7,-0.9 h 5.7 c 1.9,0 3.5,-1.9 3.5,-4.2 0,-2 -1.6,-4.2 -3.8,-4.2 h -6.4 v -1.1 l -2.2,1.6 2.2,1.4 v -0.9 h 6.6 c 2,0 2.7,2 2.7,3.4 0,1.3 -0.9,3.2 -2.7,3.2 h -5.5 v 0.8 z"
   id="path53" />
		</g>
		<g
   id="g59">
			<path
   class="st1"
   d="m 236.3,92.4 c -1.6,0 -2.8,-1.1 -2.8,-2.5 0,-1.5 1.2,-2.7 2.7,-2.7 1.5,0 2.7,1.4 2.7,2.7 -0.2,1.3 -1.1,2.5 -2.6,2.5 z m -0.2,-4.2 c -1,0 -1.8,0.8 -1.8,1.8 0,0.9 0.9,1.6 2,1.6 1.1,0 1.6,-0.9 1.6,-1.6 0,-0.8 -0.8,-1.8 -1.8,-1.8 z"
   id="path57" />
		</g>
		<g
   id="g63">
			<path
   class="st1"
   d="m 273.4,65.1 c -3.5,0 -7,-1.4 -9.3,-3.8 -2.1,-2.2 -3.2,-5 -3.2,-8.2 0.1,-7.8 7.1,-11.4 12,-11.4 v 0 c 3.1,0 6.2,1.2 8.4,3.5 2.2,2.2 3.5,5.3 3.5,8.3 0,6.5 -5,11.6 -11.4,11.6 z m -0.5,-22.5 v 0 c -4.6,0 -11,3.4 -11.1,10.6 0,3 1,5.6 2.9,7.6 2.2,2.2 5.4,3.5 8.7,3.5 5.9,0 10.6,-4.7 10.6,-10.8 0,-2.8 -1.2,-5.7 -3.3,-7.7 -2.1,-2.1 -4.8,-3.2 -7.7,-3.2 -0.1,0 -0.1,0 -0.1,0 z"
   id="path61" />
		</g>
		<g
   id="g67">
			<path
   class="st1"
   d="M 220.3,92.4 H 91.6 c -3.2,0 -5.8,-2.6 -5.8,-5.8 V 21.2 c 0,-3.2 2.6,-5.8 5.8,-5.8 h 128.8 c 3.2,0 5.8,2.6 5.8,5.8 v 65.5 c -0.1,3.2 -2.7,5.7 -5.9,5.7 z M 91.6,16 c -2.9,0 -5.2,2.3 -5.2,5.2 v 65.5 c 0,2.9 2.3,5.2 5.2,5.2 h 128.8 c 2.9,0 5.2,-2.3 5.2,-5.2 V 21.2 c 0,-2.9 -2.3,-5.2 -5.2,-5.2 z"
   id="path65" />
		</g>
		<g
   id="g83">
			<path
   class="st1"
   d="m 127.8,128.6 -0.9,4.8 h -3.4 l 2.4,-12.5 h 23.4 l -0.5,2.9 h -20 l -0.4,2 h 20 l -0.5,2.9 h -20.1 z"
   id="path69" />
			<path
   class="st1"
   d="m 154,120.9 -1.8,9.6 h 20 l -0.5,2.9 h -23.4 l 2.4,-12.5 z"
   id="path71" />
			<path
   class="st1"
   d="m 178.7,120.9 -2.4,12.5 h -3.4 l 2.4,-12.5 z"
   id="path73" />
			<path
   class="st1"
   d="m 182,128.6 -0.9,4.8 h -3.4 l 2.4,-12.5 h 20 c 0.9,0 1.7,0.3 2.3,0.8 0.6,0.6 0.8,1.2 0.6,2 l -0.4,1.9 c -0.1,0.8 -0.6,1.5 -1.4,2 -0.8,0.6 -1.6,0.8 -2.6,0.8 H 182 Z m 0.9,-4.9 -0.4,2 h 16.6 l 0.4,-2 z"
   id="path75" />
			<path
   class="st1"
   d="m 206.7,128.6 -0.9,4.8 h -3.4 l 2.4,-12.5 h 20 c 0.9,0 1.7,0.3 2.3,0.8 0.6,0.6 0.8,1.2 0.6,2 l -0.4,1.9 c -0.1,0.8 -0.6,1.5 -1.4,2 -0.8,0.6 -1.6,0.8 -2.6,0.8 h -16.6 z m 0.9,-4.9 -0.4,2 h 16.6 l 0.4,-2 z"
   id="path77" />
			<path
   class="st1"
   d="m 251,130.5 -0.5,2.9 h -23.4 l 2.4,-12.5 h 23.4 l -0.5,2.9 h -20 l -0.4,2 h 20 l -0.5,2.9 h -20 l -0.4,1.9 H 251 Z"
   id="path79" />
			<path
   class="st1"
   d="m 256.1,128.6 -0.9,4.8 h -3.4 l 2.4,-12.5 h 20 c 0.9,0 1.7,0.3 2.3,0.8 0.6,0.6 0.8,1.2 0.6,2 l -0.4,2 c -0.1,0.4 -0.3,0.7 -0.7,1 -0.3,0.2 -0.7,0.4 -1.1,0.4 0.4,0 0.7,0.2 1,0.4 0.3,0.3 0.4,0.6 0.3,1 l -0.9,4.8 h -3.4 l 0.9,-4.8 h -16.7 z m 17.1,-2.9 0.4,-2 H 257 l -0.4,2 z"
   id="path81" />
		</g>
	</g>
</g>
</svg>
