<svg width="357" height="152" viewBox="0 0 357 152" fill="none" xmlns="http://www.w3.org/2000/svg">
<path d="M71.5655 2.01591C80.3857 2.0768 288.725 0.798284 295.112 0.920047C301.985 1.04181 309.102 2.62473 314.699 9.07817C320.356 15.5316 344.627 45.4244 347.242 48.712C349.858 51.9388 352.352 55.8961 353.143 62.593C353.933 69.29 356.123 114.221 356.123 120.552C356.123 127.067 354.237 129.806 352.778 132.789C351.439 135.529 349.31 139.791 347.972 142.591C346.634 145.392 341.889 149.227 334.286 149.471C326.682 149.714 65.0568 150.871 56.9665 150.932C48.8763 151.054 42.1851 148.01 37.7446 142.043C33.3041 136.138 8.91168 102.836 7.81676 101.131C6.05272 98.2087 4.53199 93.8253 2.09884 88.8939C0.517286 85.8498 -0.151832 80.8575 3.92371 75.1955C8.06007 69.5335 49.1196 15.5925 52.7085 11.3308C56.3582 6.94732 62.7453 1.95503 71.5655 2.01591Z" fill="url(#paint0_linear_23:1661)"/>
<path d="M56.6013 151.663C48.3286 151.663 41.5766 148.497 37.0752 142.409C32.9389 136.929 8.24232 103.323 7.08657 101.435C6.05248 99.7307 5.14004 97.5998 4.04512 95.1645C3.25435 93.3381 2.34191 91.2681 1.30782 89.1373C0.212901 87.0673 -1.73362 81.4053 3.25435 74.5257C7.63403 68.4984 48.6936 14.6183 52.1 10.6001C55.1414 7.00809 61.6501 1.0417 71.5044 1.0417C71.6261 1.0417 71.8085 1.0417 71.991 1.0417C77.5873 1.0417 115.362 0.859054 158.916 0.615528C221.022 0.31112 291.401 -0.0541692 295.112 0.00671237C300.708 0.128475 308.92 1.10258 315.368 8.46924C317.801 11.2089 325.222 20.1585 347.12 47.129L347.911 48.1031C350.588 51.3907 353.142 55.4089 353.994 62.4103C354.846 69.4725 356.975 114.464 356.975 120.43C356.975 126.397 355.454 129.38 354.055 131.998C353.872 132.363 353.69 132.668 353.507 133.033C352.108 135.833 350.04 140.034 348.702 142.835C347.059 146.183 341.828 149.958 334.285 150.141C329.358 150.262 218.467 150.81 137.565 151.236C94.1328 151.419 59.8252 151.602 56.9663 151.663C56.8446 151.663 56.723 151.663 56.6013 151.663ZM71.5044 2.86814C62.3192 2.86814 56.2363 8.46924 53.3774 11.8177C49.971 15.8359 8.97227 69.5943 4.59258 75.6216C0.152072 81.7097 1.85528 86.5802 2.82854 88.4067C3.92347 90.5984 4.8359 92.6684 5.62668 94.4948C6.66077 96.8692 7.5732 98.9392 8.54646 100.522C9.58056 102.166 33.973 135.407 38.4743 141.374C42.7323 147.036 49.1194 150.019 57.0271 149.897C59.8861 149.836 94.1936 149.714 137.625 149.471C218.589 149.106 329.419 148.558 334.346 148.375C341.646 148.131 346.086 144.479 347.303 141.982C348.641 139.182 350.709 134.92 352.108 132.181C352.291 131.815 352.473 131.511 352.656 131.146C353.994 128.589 355.332 125.91 355.332 120.369C355.332 113.551 353.142 68.9855 352.352 62.532C351.561 55.896 349.128 52.1822 346.634 49.0772L345.843 48.1031C323.944 21.1935 316.523 12.2439 314.151 9.50423C309.528 4.20754 303.688 1.83316 295.172 1.65051C291.462 1.58963 221.083 1.95492 159.037 2.32021C114.145 2.56374 75.3975 2.80726 71.6869 2.74638C71.5652 2.86814 71.5044 2.86814 71.5044 2.86814Z" fill="#FE8A2C"/>
<path d="M48.7542 142.957C40.7248 142.957 36.5884 139.913 26.7341 126.579C17.2448 113.794 4.16658 95.2864 4.04492 95.1037L4.47072 94.7993C4.59238 94.982 17.7314 113.429 27.1599 126.275C36.8925 139.425 40.9072 142.47 48.7542 142.47C51.4307 142.47 331.73 141.374 337.692 141.008C343.531 140.643 349.432 137.782 351.013 134.494L351.5 134.738C349.797 138.208 343.774 141.191 337.752 141.556C331.73 141.861 51.3698 142.957 48.7542 142.957Z" fill="#FE8A2C"/>
<path d="M74.2417 115.316C73.8159 115.316 73.5117 115.316 73.3293 115.316C64.9957 115.255 61.4068 113.003 57.3921 108.68C53.3165 104.297 43.3406 92.9728 40.2992 89.0155C36.8927 84.5711 38.3526 81.04 40.4816 77.935C42.6715 74.6474 75.215 23.1417 78.1347 18.2103C81.7236 12.1221 87.6241 8.46922 93.9503 8.46922C97.4175 8.46922 145.229 8.2257 191.459 7.98217C238.176 7.73864 286.413 7.49512 290.002 7.49512C297.362 7.49512 301.924 8.46922 306.547 13.9486C311.292 19.5497 338.848 54.8609 340.855 57.4788C343.531 61.0709 345.113 65.5152 345.174 69.7769C345.174 71.4207 345.356 75.0736 345.478 79.3353C345.782 87.6152 346.269 98.9392 346.086 102.896C345.843 109.046 341.585 113.368 335.441 113.551C330.21 113.733 93.1595 115.316 74.2417 115.316ZM289.941 7.98217C286.352 7.98217 238.115 8.2257 191.398 8.46922C145.168 8.71275 97.4175 8.95627 93.8894 8.95627C87.7457 8.95627 82.0278 12.4874 78.5605 18.4538C75.6408 23.3852 43.0973 74.891 40.9074 78.1786C39.0826 80.9182 37.3794 84.2667 40.725 88.6502C43.7664 92.6075 53.7423 103.931 57.7571 108.315C61.7109 112.577 65.1782 114.707 73.3293 114.768C82.7577 114.829 330.088 113.185 335.38 113.064C341.22 112.881 345.295 108.802 345.539 102.896C345.721 98.9392 345.234 87.6152 344.93 79.3353C344.748 75.0736 344.626 71.3598 344.626 69.7769C344.565 63.9323 341.646 59.4271 340.429 57.7833C338.422 55.1045 310.866 19.8541 306.122 14.253C301.62 8.95627 297.301 7.98217 289.941 7.98217Z" fill="#FE8A2C"/>
<path d="M313.056 93.338C306.547 93.338 298.883 93.2772 291.34 93.2163C283.919 93.1554 276.984 93.0945 271.145 93.0945C261.351 93.0945 251.436 89.1981 243.954 82.3794C235.925 75.0127 231.484 65.089 231.484 54.313C231.484 30.8736 252.045 16.3838 271.084 16.3838C290.002 16.3838 301.194 30.3257 301.316 30.4474C302.898 32.4565 309.832 40.919 317.192 49.8686C325.222 59.6706 333.555 69.8378 335.563 72.3948C337.935 75.4389 338.361 80.7356 336.597 85.4234C334.954 89.6852 331.73 92.4857 327.837 93.1554C324.857 93.2772 319.504 93.338 313.056 93.338ZM271.084 16.9317C252.288 16.9317 231.971 31.2389 231.971 54.3739C231.971 77.2653 252.166 92.6683 271.084 92.6683C276.924 92.6683 283.919 92.7292 291.279 92.7901C306.304 92.9119 321.815 92.9728 327.777 92.6683C331.487 92.0595 334.589 89.3199 336.11 85.2408C337.813 80.7356 337.448 75.6215 335.198 72.7601C333.19 70.2031 324.857 60.0967 316.827 50.2339C309.467 41.2843 302.533 32.8218 300.951 30.8127C300.829 30.6301 289.758 16.9317 271.084 16.9317Z" fill="#FE8A2C"/>
<path d="M273.883 121.404C271.754 121.161 252.592 121.222 252.592 121.222L250.768 133.642H254.296L255.026 129.197C255.026 129.197 269.564 129.015 270.354 129.015C271.145 129.015 270.902 129.441 270.902 129.928C270.902 130.415 270.354 133.642 270.354 133.642H273.883C273.883 133.642 274.43 130.111 274.43 129.563C274.43 129.015 274.673 127.858 272.97 127.554C274.917 127.31 275.038 126.275 275.16 125.544C275.342 124.692 275.951 121.587 273.883 121.404ZM270.537 125.849C268.59 126.092 255.391 126.031 255.391 126.031L255.573 124.022C255.573 124.022 269.32 124.022 270.537 124.022C272.24 124.022 272.483 125.544 270.537 125.849Z" fill="#FE8A2C"/>
<path d="M228.2 121.222L226.375 133.276L248.76 133.459L249.125 130.476H230.086L230.451 128.649H247.665L248.213 126.032H230.815L231.18 123.84H250.22L250.585 121.222H228.2Z" fill="#FE8A2C"/>
<path d="M223.577 121.405C222.238 121.405 203.442 121.405 203.442 121.405L201.8 133.642H205.145L205.875 129.015C205.875 129.015 219.501 129.015 222.36 129.015C225.219 129.015 225.523 127.554 225.706 126.823C225.888 126.092 226.071 124.266 226.071 123.292C226.01 122.318 224.915 121.405 223.577 121.405ZM220.413 126.032C219.684 126.032 205.997 126.032 205.997 126.032L206.179 124.205C206.179 124.205 218.832 124.205 220.231 124.205C221.63 124.205 222.664 124.388 222.664 125.118C222.664 125.849 221.143 126.032 220.413 126.032Z" fill="#FE8A2C"/>
<path d="M198.758 121.405C197.42 121.405 178.624 121.405 178.624 121.405L176.981 133.642H180.327L181.057 129.015C181.057 129.015 194.683 129.015 197.542 129.015C200.401 129.015 200.705 127.554 200.887 126.823C201.07 126.092 201.252 124.266 201.252 123.292C201.191 122.318 200.157 121.405 198.758 121.405ZM195.656 126.032C194.926 126.032 181.239 126.032 181.239 126.032L181.422 124.205C181.422 124.205 194.074 124.205 195.473 124.205C196.872 124.205 197.907 124.388 197.907 125.118C197.846 125.849 196.386 126.032 195.656 126.032Z" fill="#FE8A2C"/>
<path d="M172.906 121.405H176.252L174.792 133.824H171.264L172.906 121.405Z" fill="#FE8A2C"/>
<path d="M149.061 121.587H152.225L151.13 131.024L170.169 130.841L169.804 133.824L147.602 134.007L149.061 121.587Z" fill="#FE8A2C"/>
<path d="M122.966 133.946L124.669 121.77L147.419 121.587L147.054 124.57H127.832L127.65 126.397H144.864L144.499 129.197L127.467 129.38L126.737 134.007H122.966V133.946Z" fill="#FE8A2C"/>
<path d="M272.666 90.3548C251.254 90.3548 234.526 74.343 234.526 53.9477C234.526 44.9372 238.115 36.4138 244.685 29.9603C251.558 23.2025 261.048 19.3669 270.78 19.3669C270.963 19.3669 271.085 19.3669 271.267 19.3669C281.182 19.4887 290.611 23.446 297.728 30.5083C304.48 37.2052 308.373 45.9722 308.373 54.5565C308.373 63.6887 304.784 72.76 298.458 79.3961C291.706 86.4584 282.581 90.3548 272.666 90.3548ZM270.72 20.2193C261.169 20.2193 251.923 23.9939 245.232 30.5691C238.845 36.8399 235.317 45.1807 235.317 53.9477C235.317 73.8559 251.68 89.5025 272.605 89.5025C294.078 89.5025 307.399 71.3598 307.399 54.4956C307.399 38.4837 292.496 20.4628 271.145 20.2193C271.024 20.2193 270.902 20.2193 270.72 20.2193Z" fill="#FE8A2C"/>
<path d="M323.884 91.1463C323.823 91.1463 323.762 91.1463 323.762 91.1463C320.356 91.0854 317.193 89.8069 314.881 87.4326C312.691 85.1799 311.414 82.1967 311.475 79.2136C311.536 73.7951 316.037 67.9505 323.215 67.8287C327.716 67.7678 330.575 69.8378 332.217 71.6034C334.286 73.856 335.441 76.7783 335.502 79.7615C335.563 82.8664 334.346 85.8496 332.278 87.9196C330.149 90.0505 327.29 91.1463 323.884 91.1463ZM323.215 68.681C316.584 68.8028 312.387 74.2213 312.326 79.2136C312.266 81.9532 313.421 84.7538 315.489 86.8237C317.618 89.0155 320.538 90.2331 323.762 90.294C323.823 90.294 323.884 90.294 323.884 90.294C326.986 90.294 329.663 89.259 331.609 87.3108C333.556 85.3626 334.651 82.6229 334.59 79.7615C334.529 77.0218 333.434 74.2821 331.548 72.2122C330.088 70.5684 327.412 68.6202 323.215 68.681Z" fill="#FE8A2C"/>
<path d="M272.301 84.1451C271.875 84.1451 271.449 83.9016 271.084 83.4754C270.78 83.1101 268.834 79.8834 266.948 76.9002C266.522 76.1696 266.157 75.6826 266.036 75.4999C265.671 74.8911 265.549 74.2214 265.853 73.7344C265.975 73.4908 266.279 73.1255 267.009 73.1864C267.739 73.1864 270.233 73.1864 272.423 73.1864C274.43 73.1864 276.255 73.1864 276.802 73.1864C277.654 73.1864 278.019 73.6126 278.201 73.8561C278.445 74.2823 278.384 74.8302 278.14 75.3173C278.019 75.5608 277.532 76.3523 276.985 77.3873C275.707 79.7007 273.882 82.9275 273.517 83.4754C273.092 84.0233 272.605 84.1451 272.301 84.1451ZM266.948 74.0388C266.765 74.0388 266.644 74.0997 266.644 74.1605C266.583 74.2823 266.583 74.6476 266.826 75.0129C266.948 75.1955 267.252 75.7435 267.739 76.4131C269.077 78.544 271.51 82.5013 271.814 82.9275C271.936 83.1101 272.179 83.2319 272.301 83.2319C272.483 83.2319 272.666 83.0492 272.727 82.9275C273.092 82.3795 274.917 79.0919 276.133 76.9002C276.681 75.8652 277.167 75.0738 277.289 74.8302C277.411 74.5867 277.471 74.4041 277.35 74.2823C277.289 74.0996 277.046 74.0388 276.681 74.0388C276.194 74.0388 274.308 74.0388 272.362 74.0388C270.111 74.0388 267.739 74.0388 266.948 74.0388C267.009 74.0388 266.948 74.0388 266.948 74.0388Z" fill="#FE8A2C"/>
<path d="M251.314 60.2184C251.01 60.2184 250.706 60.1576 250.341 59.9749C249.733 59.7314 245.779 57.4788 242.373 55.5914L241.582 55.1653C240.913 54.8 240.791 54.252 240.791 54.0085C240.791 53.5215 241.156 53.0344 241.764 52.73C242.373 52.4256 245.596 50.5992 247.726 49.3815C248.638 48.8945 249.307 48.4683 249.672 48.2857C250.22 47.9812 251.01 47.616 251.558 47.9812C251.984 48.2248 252.166 48.7118 252.166 49.3815H251.74H252.166C252.166 50.4774 252.288 56.0176 252.349 58.0876V58.8182C252.349 59.3661 252.227 59.7923 251.862 60.0358C251.74 60.1576 251.558 60.2184 251.314 60.2184ZM251.071 48.7118C250.949 48.7118 250.645 48.7727 250.159 49.0771C249.794 49.2598 249.125 49.6859 248.212 50.173C245.961 51.4515 242.798 53.2171 242.19 53.5215C241.825 53.7041 241.703 53.8868 241.703 54.0694C241.703 54.1912 241.825 54.3129 242.008 54.4347L242.798 54.8609C244.745 55.9567 250.037 58.9399 250.706 59.2443C251.132 59.427 251.375 59.427 251.497 59.3661C251.558 59.3052 251.619 59.1834 251.619 58.879V58.1485C251.558 56.0785 251.436 50.5383 251.436 49.4424C251.436 49.0162 251.375 48.8336 251.254 48.7727C251.193 48.7118 251.132 48.7118 251.071 48.7118Z" fill="#FE8A2C"/>
<path d="M292.192 60.0358C291.948 60.0358 291.705 59.975 291.522 59.8532C291.218 59.6706 290.853 59.3053 290.853 58.4529C290.853 57.9659 290.793 56.7482 290.793 55.2871C290.732 53.0345 290.671 50.2339 290.671 49.1989C290.671 48.4684 290.914 47.9813 291.34 47.7378C291.887 47.4334 292.557 47.5551 293.53 48.1031C294.321 48.5901 298.275 50.7819 300.221 51.9386L301.316 52.5474C301.803 52.8518 302.107 53.278 302.107 53.7042C302.107 54.0695 301.924 54.6174 301.133 55.1044C300.099 55.7741 293.895 59.3661 293.165 59.7314C292.8 59.975 292.496 60.0358 292.192 60.0358ZM291.948 48.4684C291.827 48.4684 291.766 48.4684 291.766 48.5292C291.644 48.5901 291.522 48.8945 291.522 49.2598C291.522 50.2339 291.583 53.0954 291.644 55.348C291.705 56.8091 291.705 58.0268 291.705 58.5138C291.705 58.7573 291.766 59.0617 291.948 59.1835C292.131 59.3053 292.435 59.2444 292.739 59.0617C293.469 58.6965 299.674 55.0436 300.647 54.4347C301.012 54.1912 301.194 53.9477 301.194 53.7651C301.194 53.6433 301.073 53.4606 300.829 53.3389L299.734 52.7301C297.727 51.5733 293.834 49.3816 293.043 48.8945C292.496 48.5292 292.131 48.4684 291.948 48.4684Z" fill="#FE8A2C"/>
<path d="M276.133 35.7442H276.072C275.647 35.7442 269.503 35.7442 267.191 35.7442H266.157C265.549 35.7442 265.002 35.5006 264.758 35.0745C264.637 34.8309 264.454 34.3439 264.819 33.6133C265.062 33.1263 266.097 31.4825 267.131 29.7169C268.104 28.134 269.077 26.4902 269.442 25.8814C269.868 25.0899 270.355 24.7246 270.841 24.7246C271.328 24.7246 271.693 24.9681 271.997 25.5161C272.24 25.8814 273.214 27.4643 274.308 29.169C275.525 31.0563 276.863 33.248 277.167 33.6742C277.532 34.1612 277.532 34.7092 277.289 35.1354C277.107 35.5006 276.62 35.7442 276.133 35.7442ZM273.396 34.8309C274.856 34.8309 275.89 34.8309 276.072 34.8309C276.255 34.8309 276.437 34.7701 276.559 34.5874C276.681 34.4048 276.559 34.1612 276.437 33.9786C276.133 33.4915 274.795 31.4216 273.578 29.4734C272.544 27.7687 271.51 26.1858 271.267 25.8814C271.085 25.6378 270.963 25.5161 270.841 25.5161C270.78 25.5161 270.537 25.577 270.172 26.2466C269.807 26.8555 268.834 28.4993 267.861 30.1431C266.826 31.8477 265.792 33.5524 265.549 34.0395C265.488 34.1612 265.367 34.4657 265.427 34.6483C265.488 34.7701 265.732 34.8918 266.097 34.8918H267.131C269.381 34.8918 271.693 34.8309 273.396 34.8309Z" fill="#FE8A2C"/>
<path d="M326.742 84.8147H320.234V82.2576H326.56C327.716 82.2576 328.324 80.7356 328.324 79.8832C328.324 79.1527 328.02 77.3262 326.56 77.3262H320.903V78.97L316.401 75.9868L320.903 72.6992V74.5865H326.377C329.115 74.5865 331.061 77.2653 331.061 79.6397C331.061 82.6229 329.175 84.8147 326.742 84.8147ZM321.085 83.9623H326.742C328.689 83.9623 330.21 82.1359 330.21 79.7615C330.21 77.7524 328.567 75.5607 326.377 75.5607H320.051V74.4648L317.922 75.9868L320.051 77.3871V76.4739H326.56C328.506 76.4739 329.236 78.483 329.236 79.8832C329.236 81.2226 328.263 83.11 326.56 83.11H321.085V83.9623Z" fill="#FE8A2C"/>
<path d="M235.012 93.1554C233.37 93.1554 232.153 92.1204 232.153 90.6593C232.153 89.1981 233.37 87.9805 234.83 87.9805C236.351 87.9805 237.506 89.3807 237.506 90.6593C237.506 91.9378 236.594 93.1554 235.012 93.1554ZM234.83 88.8937C233.857 88.8937 233.066 89.6851 233.066 90.6593C233.066 91.5725 233.917 92.2422 235.012 92.2422C236.107 92.2422 236.594 91.329 236.594 90.6593C236.655 89.9896 235.864 88.8937 234.83 88.8937Z" fill="#FE8A2C"/>
<path d="M271.996 66.0022C268.529 66.0022 265.062 64.6019 262.75 62.2275C260.621 60.0967 259.527 57.2353 259.587 54.0694C259.709 46.2766 266.644 42.7455 271.51 42.6846C271.571 42.6846 271.571 42.6846 271.631 42.6846C274.734 42.6846 277.654 43.9022 279.904 46.1548C282.155 48.3466 283.432 51.3906 283.432 54.4347C283.371 60.8881 278.383 66.0022 271.996 66.0022ZM271.449 43.5369C266.948 43.5978 260.5 46.8854 260.378 54.0694C260.317 57.0526 261.351 59.6705 263.298 61.6187C265.427 63.8105 268.712 65.089 271.936 65.089C277.836 65.089 282.459 60.4011 282.459 54.3738C282.459 51.5124 281.242 48.7118 279.174 46.7027C277.106 44.6328 274.369 43.5369 271.51 43.5369C271.51 43.5369 271.51 43.5369 271.449 43.5369Z" fill="#FE8A2C"/>
<path d="M219.136 93.1555H91.091C87.9279 93.1555 85.373 90.5984 85.373 87.4326V22.2285C85.373 19.0626 87.9279 16.5056 91.091 16.5056H219.197C222.36 16.5056 224.915 19.0626 224.915 22.2285V87.4326C224.915 90.5984 222.299 93.1555 219.136 93.1555ZM91.091 17.0535C88.232 17.0535 85.8597 19.367 85.8597 22.2894V87.4935C85.8597 90.3549 88.1712 92.7293 91.091 92.7293H219.197C222.056 92.7293 224.428 90.4158 224.428 87.4935V22.2285C224.428 19.367 222.116 16.9927 219.197 16.9927H91.091V17.0535Z" fill="#FE8A2C"/>
<defs>
<linearGradient id="paint0_linear_23:1661" x1="178.48" y1="150.827" x2="178.48" y2="0.86982" gradientUnits="userSpaceOnUse">
<stop stop-color="#3C1A00"/>
<stop offset="0.5511" stop-color="#220F00"/>
<stop offset="1" stop-color="#090400"/>
</linearGradient>
</defs>
</svg>
