<?xml version="1.0" encoding="UTF-8" standalone="no"?>
<svg
   width="128"
   height="64"
   viewBox="0 0 128 64"
   fill="none"
   version="1.1"
   id="svg560"
   xmlns="http://www.w3.org/2000/svg"
   xmlns:svg="http://www.w3.org/2000/svg">
  <defs
     id="defs564" />
  <path
     id="path2"
     d="M 0,0.00195313 V 7.0039062 H 0.99609375 V 8 H 5 V 7.0039062 H 5.9960938 V 0.00195313 H 3.9980469 V 7.0039062 H 1.9960938 V 0.00195313 Z m 15.996094,0 V 2.0039062 H 13.994141 V 3 h -0.996094 v 4.0039062 h 0.996094 V 8 h 4.003906 V 0.00195313 Z m 10.996094,0 V 2.0039062 H 25.996094 V 3 h 0.996094 v 4.0039062 h 1.001953 V 8 h 2 V 7.0039062 h -1 V 3 h 1 V 2.0039062 h -1 V 0.00195313 Z m 14.003906,0 V 1.0039062 H 40 V 3 h 0.996094 V 4.0019531 H 40 v 3.0019531 h 0.996094 V 8 h 3.001953 V 7.0039062 H 45 V 8 h 1.998047 V 7.0039062 H 45.996094 V 5.0019531 h 1.001953 v -1 h -3 V 3 H 45 V 1.0039062 H 43.998047 V 0.00195313 Z m 10.003906,0 V 8 h 1.998047 V 5.0019531 h 2 V 8 h 1.998047 V 5.0019531 H 56 v -1 h 0.996094 V 1.0039062 h -1.998047 v 2.9980469 h -2 V 1.0039062 h 2 V 0.00195313 Z m 50,0 V 8 h 1.99609 V 4.0019531 h 1.00196 v 2.0019531 h 1 V 8 H 106 V 6.0039062 h 0.99609 V 4.0019531 h 1 V 8 h 2.00196 V 0.00195313 h -2.00196 V 1.0039062 h -1 V 3 H 106 v 2.0019531 h -1.00195 V 3 h -1 V 1.0039062 h -1.00196 V 0.00195313 Z m 18.99414,0 V 2.0039062 h -2.00195 V 3 h -0.9961 v 4.0039062 h 0.9961 V 8 h 4.0039 V 0.00195313 Z M 41.998047,1.0039062 h 1 V 3 h -1 z m -34.9960939,1 V 9.9960938 H 8.9980469 V 8 H 11.001953 V 7.0039062 h 1 V 3 h -1 V 2.0039062 H 8.9980469 V 3 H 10 V 7.0039062 H 8.9980469 V 3 h -1 V 2.0039062 Z m 12.9882809,0 V 3 h 2.001954 v 1.0019531 h -2.001954 v 1 h -0.996093 v 2.0019531 h 0.996093 V 8 h 2.001954 V 7.0039062 H 20.990234 V 5.0019531 h 1.001954 v 2.0019531 h 1.001953 V 8 h 1.996093 V 7.0039062 H 23.994141 V 3 h -1 V 2.0039062 Z m 0,1.9980469 V 3 H 18.994141 V 4.0019531 Z M 31.992188,2.0039062 V 3 h -0.996094 v 4.0039062 h 0.996094 V 8 h 3.001953 V 7.0039062 h 1.001953 v -1 h -2.001953 v 1 h -1 V 5.0019531 h 3.001953 V 3 H 34.994141 V 2.0039062 Z m 27.005859,0 V 3 h -0.996094 v 4.0039062 h 0.996094 V 8 h 3.003906 V 7.0039062 h 1 v -1 H 61 v 1 H 59.998047 V 5.0019531 h 3.003906 V 3 h -1 V 2.0039062 Z m 5.996094,0 V 3 h -0.996094 v 4.0039062 h 0.996094 V 8 h 3.003906 V 6.0039062 h -1.001953 v 1 H 65.994141 V 3 h 1.001953 v 1.0019531 h 1.001953 V 2.0039062 Z m 5,0 V 3 h -0.996094 v 4.0039062 h 0.996094 V 8 h 3.003906 V 7.0039062 h 1 V 3 h -1 V 2.0039062 Z m 5,0 v 2.9980469 h 0.996093 v 2.0019531 h 1 V 8 h 1.001954 V 7.0039062 h 1.001953 V 5.0019531 h 1 V 2.0039062 h -2.001953 v 4 h -1.001954 v -4 z m 6.992187,0 V 3 h -0.996094 v 4.0039062 h 0.996094 V 8 h 3.003906 V 7.0039062 h 1 v -1 h -2.001953 v 1 H 82.986328 V 5.0019531 h 3.003906 V 3 h -1 V 2.0039062 Z m 5,0 V 8 h 1.998047 V 4.0019531 h 1 V 3 h 1.001953 V 2.0039062 H 88.984375 V 3 H 87.982422 V 2.0039062 Z m 5,0 v 4 h 0.996094 v 1 h 1.001953 v 1.9921876 h -1.001953 v 1 h 2.001953 v -1 h 1.001953 V 7.0039062 h 1 v -5 h -2.001953 v 4 h -1 v -4 z m 20.009762,0 V 3 H 111 v 4.0039062 h 0.99609 V 8 h 3.00196 V 7.0039062 H 116 V 3 h -1.00195 V 2.0039062 Z m 11.99219,0 V 3 h -0.99609 v 4.0039062 h 0.99609 V 8 h 3.00195 V 7.0039062 h 1.00196 v -1 h -2.00196 v 1 h -1.00195 V 5.0019531 h 3.00391 V 3 h -1.00196 V 2.0039062 Z M 14.994141,3 h 1.001953 v 4.0039062 h -1.001953 z m 18,0 h 1 v 1.0019531 h -1 z M 59.998047,3 H 61 v 1.0019531 h -1.001953 z m 10.996094,0 h 1.001953 v 4.0039062 h -1.001953 z m 11.992187,0 h 1.001953 v 1.0019531 h -1.001953 z m 30.009762,0 h 1.00196 v 4.0039062 h -1.00196 z m 5.9961,0 h 1.00195 v 4.0039062 h -1.00195 z m 5.99609,0 h 1.00195 v 1.0019531 h -1.00195 z M 41.998047,4.0019531 h 1 v 1 h 1 v 1.0019531 h -1 v 1 h -1 z M 0,12.001953 V 20 H 3.9980469 V 19.003906 H 5 V 18.001953 H 5.9960938 V 14.003906 H 5 V 13.001953 H 3.9980469 v -1 z m 7.0019531,0 V 20 H 8.9980469 V 16.001953 H 11.001953 V 15 H 8.9980469 v -1.998047 h 3.0039061 v -1 z m 5.9960939,0 v 7.001953 h 0.996094 V 20 h 4.003906 v -0.996094 h 0.996094 v -7.001953 h -1.996094 v 7.001953 h -2.003906 v -7.001953 z m 16.994141,0 v 2.001953 H 28.996094 V 15 h 0.996094 v 4.003906 h 1.001953 V 20 h 2 v -0.996094 h -1 V 15 h 1 v -0.996094 h -1 v -2.001953 z m 17.001953,0 v 2.001953 H 45.998047 V 15 h 0.996094 v 4.003906 h 1 V 20 h 2.003906 V 19.003906 H 48.996094 V 15 h 1.001953 v -0.996094 h -1.001953 v -2.001953 z m 12.998047,0 v 2.001953 H 57.990234 V 15 h -0.996093 v 4.003906 h 0.996093 V 20 h 4.003907 v -7.998047 z m -57.9960942,1 h 1.0019531 v 1.001953 h 1 v 3.998047 h -1 v 1.001953 H 1.9960938 Z M 88,14 v 1 h 1 1 1 1 1 1 1 1 1 1 1 v -1 h -1 -1 -1 -1 -1 -1 -1 -1 -1 -1 z m 11,1 v 1 h 1 1 1 v -1 h -1 -1 z m 3,1 v 1 h 1 1 v -1 h -1 z m 2,1 v 1 h 1 1 v -1 h -1 z m 2,1 v 1 h 1 v -1 z m 1,1 v 1 h 1 v -1 z m 1,1 v 1 h 1 v -1 z m 1,1 v 1 h -1 -1 -1 -1 -1 -1 -1 -1 -1 v 1 h 1 1 1 1 1 1 1 1 1 v 1 h 1 v 1 h 1 v -1 -1 h -1 v -1 -1 z m 2,4 v 1 1 h -1 v 1 h -1 v 1 h -1 -1 v 1 1 1 h 1 v 1 h 1 v -1 h 1 v -1 h 1 v -1 h 1 1 v -1 h -1 v -1 -1 -1 -1 z m 2,4 h 1 1 1 v -1 h -1 -1 -1 z m 3,-1 h 1 1 1 1 1 1 1 v -1 h -1 -1 -1 -1 -1 -1 -1 z m 7,0 v 1 h 1 1 v -1 h -1 z m 2,1 v 1 h -1 -1 -1 -1 v 1 h 1 1 1 1 1 v -1 -1 z m 1,2 v 1 1 1 1 1 1 1 1 1 h 1 v -1 -1 -1 -1 -1 -1 -1 -1 -1 z m 0,9 h -1 v 1 1 1 h 1 v -1 -1 z m -1,3 h -1 v 1 h -1 v 1 1 h -1 v 1 1 h -1 v 1 h -1 v 1 h -1 v 1 h -1 v 1 h -1 v 1 h -1 v 1 h -1 v 1 h -1 v 1 h -1 -1 v 1 h -1 -1 v 1 h -1 -1 v 1 h -1 v 1 h -1 v 1 h 1 v 1 h 1 v -1 h 1 v 1 h 1 v -1 h 1 v 1 h 1 v -1 h 1 v -1 h 1 v 1 h 1 v -1 h 1 v -1 h 1 v 1 h 1 v -1 h 1 v 1 h 1 v -1 h 1 v -1 h -1 v -1 h 1 v -1 h 1 v -1 h -1 v -1 h 1 v 1 h 1 v -1 h 1 v -1 h -1 v -1 -1 -1 h 1 v -1 -1 -1 h 1 v -1 -1 -1 z m -1,11 v 1 h 1 v -1 z m 1,1 v 1 h 1 v -1 z m 1,1 v 1 h 1 v -1 z m 1,1 v 1 h 1 v -1 z m -5,-1 v 1 h 1 v -1 z m 0,1 h -1 v 1 h 1 z m 0,1 v 1 h 1 v -1 z m 0,1 h -1 v 1 h 1 z m -1,1 h -1 v 1 h 1 z m -1,1 h -1 v 1 h 1 z m -1,0 v -1 h -1 v 1 z m -1,0 h -1 v 1 h 1 z m -1,1 h -1 v 1 h 1 z m -1,0 v -1 h -1 v 1 z m -1,0 h -1 v 1 h 1 z m -1,0 v -1 h -1 v 1 z m -1,0 h -1 v 1 h 1 z m 3,-1 h 1 v -1 h -1 z m -5,1 h -1 v 1 h 1 z m -2,0 h -1 v 1 h 1 z m -2,0 h -1 v 1 h 1 z m -1,0 v -1 h -1 v 1 z m -1,-1 v -1 h -1 v 1 z m 0,-1 h 1 v -1 h -1 z m 16,-29 h -1 -1 v 1 h 1 1 z m -2,1 h -1 -1 v 1 h 1 1 z m -2,1 h -1 v 1 h 1 z m -1,1 h -1 v 1 h 1 z m -1,1 h -1 v 1 1 h 1 v -1 z m -1,2 h -1 v 1 1 h 1 v -1 z m -1,2 h -1 v 1 h 1 z m -1,1 h -1 v 1 1 h 1 v -1 z m -1,2 h -1 v 1 h 1 z m -1,1 h -1 v 1 1 h 1 v -1 z m -1,2 h -1 v 1 h 1 z m -1,1 h -1 v 1 1 h 1 v -1 z m -1,2 h -1 v 1 h 1 z m -1,1 h -1 v 1 h 1 z m -1,1 h -1 v 1 h 1 z m -1,1 h -1 -1 v 1 h 1 1 z m -2,1 h -1 -1 v 1 h 1 1 z m -2,1 h -1 -1 v 1 h 1 1 z m -2,1 h -1 -1 -1 v 1 h 1 1 1 z m -3,1 h -1 -1 -1 -1 -1 v 1 h 1 1 1 1 1 z m -5,0 v -1 h -1 v 1 z m 18,-22 h -1 v 1 h 1 z m -1,1 h -1 v 1 h 1 z m -1,1 h -1 v 1 h 1 z m -1,1 h -1 v 1 h 1 z m -1,1 h -1 v 1 h 1 z m -1,1 h -1 v 1 h 1 z m -1,1 h -1 v 1 h 1 z m -1,1 h -1 v 1 h 1 z m -1,1 h -1 v 1 h 1 z m -1,1 h -1 v 1 h 1 z m 11,-15 v -1 h -1 v 1 z m -1,-1 v -1 h -1 v 1 z m -1,-1 v -1 h -1 -1 -1 -1 -1 -1 -1 v 1 h 1 1 1 1 1 1 z m -7,0 h -1 -1 -1 -1 v 1 h 1 1 1 1 z m -4,1 h -1 -1 v 1 h 1 1 z m -2,1 h -1 -1 v 1 h 1 1 z m -2,1 h -1 -1 v 1 h 1 1 z m -2,1 h -1 -1 v 1 h 1 1 z m -2,1 h -1 v 1 h 1 z m -1,1 h -1 v 1 h 1 z m -1,1 h -1 v 1 h 1 z m -1,1 h -1 v 1 h 1 z m -1,1 h -1 v 1 h 1 z m -1,1 h -1 v 1 h 1 z m -1,1 h -1 v 1 1 h 1 v -1 z m -1,2 h -1 v 1 1 h 1 v -1 z m -1,2 h -1 v -1 -1 h -1 v 1 1 1 1 1 1 1 1 h 1 v 1 1 h 1 v 1 1 1 1 h 1 v -1 -1 h 1 v -1 h 1 1 v -1 h -1 -1 -1 v -1 -1 h -1 v -1 -1 -1 -1 -1 z m 4,8 h 1 1 1 1 v -1 h -1 -1 -1 -1 z m -4,4 h -1 v 1 1 1 h -1 v 1 h 1 v 1 h -1 v 1 h 1 v 1 h -1 v 1 h -1 v -1 h -1 v 1 h -1 v -1 h 1 v -1 h -1 v -1 h 1 v -1 h -1 v -1 h -1 v 1 h -1 v 1 h -1 v 1 h 1 v 1 h -1 v 1 h -1 v 1 h 1 v 1 h -1 v 1 h -1 v 1 h 1 1 1 1 1 1 1 1 1 v -1 h 1 v -1 h -1 v -1 h 1 v -1 h 1 v -1 h -1 v -1 h 1 v -1 h -1 v -1 -1 -1 -1 z m 1,8 v 1 h 1 v -1 z m 1,1 v 1 h 1 v -1 z m 1,1 v 1 h 1 v -1 z m 1,1 v 1 h 1 v -1 z m -1,0 h -1 v 1 h 1 z m -1,0 v -1 h -1 v 1 z m -1,0 h -1 v 1 h 1 z m 0,-1 v -1 h -1 v 1 z M 72,60 v -1 h 1 v -1 h -1 v -1 h -1 v 1 h -1 v -1 h 1 v -1 h 1 v -1 h 1 v -1 h -1 v -1 h -1 v -1 h -1 v 1 h -1 v -1 h -1 v 1 h -1 v -1 h -1 v -1 h 1 v -1 h -1 v -1 h -1 v -1 h 1 v -1 h 1 v -1 h 1 v 1 h 1 v -1 h 1 v 1 h 1 v 1 h 1 v -1 h 1 v -1 h 1 v -1 -1 -1 -1 -1 h -1 v -1 h -1 v -1 h -1 v 1 h -1 v 1 h -1 v -1 h -1 v 1 h -1 v 1 h 1 1 1 1 1 v 1 1 h -1 v 1 h -1 -1 -1 -1 -1 v 1 h -1 -1 v 1 h -1 v 1 h -1 v 1 h 1 v 1 h 1 v 1 1 h -1 v 1 h -1 v 1 h -1 v 1 h -1 -1 v 1 h -1 v 1 h -1 -1 v 1 h -1 -1 v 1 h -1 -1 v 1 h -1 -1 v 1 h -1 -1 -1 v 1 h -1 -1 -1 v 1 h -1 -1 -1 v -1 h -1 -1 v 1 h -1 -1 -1 -1 v 1 h 1 1 1 1 1 1 1 1 1 1 1 1 1 v -1 h 1 1 1 v -1 h 1 1 v -1 h 1 1 v -1 h 1 1 v -1 h 1 v -1 h 1 1 v -1 h 1 1 v -1 h 1 v -1 h 1 v -1 h 1 v 1 1 h -1 v 1 h -1 v 1 h 1 1 v 1 1 h -1 v 1 h 1 1 v -1 h 1 v -1 h 1 v 1 h 1 v 1 h -1 v 1 h -1 v 1 h -1 v 1 h 1 1 v -1 h 1 v -1 h 1 v -1 -1 h 1 z m -8,1 h -1 v 1 h 1 z m -1,1 h -1 v 1 h 1 z m -1,1 h -1 v 1 h 1 z m 1,-5 h -1 v 1 h 1 z m -1,1 h -1 -1 v 1 h 1 1 z m -2,1 h -1 v 1 h 1 z m -1,1 h -1 v 1 h 1 z m -1,1 h -1 -1 v 1 h 1 1 z m -2,1 h -1 v 1 h 1 z M 41,62 h 1 1 v -1 h -1 -1 z m 2,-1 h 1 1 v -1 h -1 -1 z m 2,-1 h 1 1 v -1 h -1 -1 z m 2,-1 h 1 1 v -1 h -1 -1 z m 2,-1 h 1 v -1 h -1 z m 1,-1 h 1 1 v -1 h -1 -1 z m 2,-1 h 1 1 v -1 h -1 -1 z m 2,-1 h 1 1 v -1 h -1 -1 z m 2,-1 h 1 1 v -1 h -1 -1 z m 2,-1 h 1 v -1 h -1 z m 1,-1 h 1 v -1 h -1 z m 1,-1 h 1 v -1 h -1 z m 1,-1 h 1 v -1 h -1 z m 6,-8 h -1 v -1 h -1 v 1 h -1 v -1 h 1 v -1 h 1 v -1 h -1 v -1 h 1 v -1 h -1 v -1 h 1 v -1 h 1 v -1 h -1 v -1 h 1 v -1 h 1 v -1 h -1 v -1 h 1 v -1 h 1 v -1 h 1 v 1 h 1 v -1 h 1 v 1 h -1 v 1 h 1 v 1 h 1 v -1 h 1 1 1 v -1 h 1 v -1 -1 -1 -1 h -1 v -1 -1 h -1 v 1 h -1 v -1 h -1 v 1 h -1 v -1 h 1 v -1 h 1 v 1 h 1 v -1 h 1 v 1 h 1 1 1 v -1 h 1 v -1 -1 -1 h -1 v -1 h -1 -1 -1 v -1 h -1 -1 -1 -1 v 1 h -1 v 1 h -1 v 1 h -1 v 1 1 1 h -1 -1 -1 -1 -1 -1 v 1 h 1 1 1 1 1 1 v 1 h 1 1 1 1 1 1 v 1 1 1 h -1 -1 v -1 h -1 -1 -1 -1 -1 -1 -1 -1 -1 -1 v 1 h 1 1 v 1 h -1 v 1 1 h -1 v 1 1 1 h -1 v 1 h -1 -1 v 1 h -1 -1 v 1 h -1 -1 v 1 h -1 -1 -1 v 1 h -1 -1 -1 -1 v 1 h -1 -1 -1 -1 -1 v 1 h -1 -1 -1 -1 -1 -1 v 1 h -1 -1 -1 -1 -1 -1 v 1 h -1 -1 -1 -1 -1 -1 -1 -1 -1 -1 -1 -1 -1 -1 -1 -1 -1 -1 -1 v 1 H 12 11 10 9 8 7 6 5 v 1 H 4 3 2 v 1 H 1 0 v 1 1 1 1 1 1 h 1 1 v -1 h 1 1 v -1 h 1 1 1 v -1 h 1 1 1 1 v -1 h 1 1 1 1 1 1 v -1 h 1 1 1 1 1 1 1 1 1 1 1 1 1 v -1 h 1 1 1 1 v -1 h 1 1 1 1 v -1 h 1 1 1 1 1 1 v -1 h 1 1 1 1 1 v -1 h 1 1 1 v -1 h 1 1 1 1 v -1 h 1 1 v -1 h 1 1 v -1 h 1 1 v 1 1 1 h -1 v 1 h 1 v 1 1 1 h 1 v -1 h 1 1 v -1 h 1 1 z m -5,3 h -1 v 1 h 1 z m -1,1 h -1 v 1 h 1 z m -1,1 h -1 v 1 h 1 z m -1,1 h -1 v 1 h 1 z m -1,1 h -1 -1 v 1 h 1 1 z m -2,1 h -1 -1 v 1 h 1 1 z m -2,1 h -1 -1 v 1 h 1 1 z m -2,1 h -1 -1 v 1 h 1 1 z m -2,1 h -1 -1 v 1 h 1 1 z m -2,1 h -1 -1 -1 v 1 h 1 1 1 z m -3,1 h -1 -1 -1 v 1 h 1 1 1 z m -3,1 h -1 -1 -1 -1 v 1 h 1 1 1 1 z m -4,1 h -1 -1 -1 -1 -1 v 1 h 1 1 1 1 1 z m -5,1 h -1 -1 -1 v 1 h 1 1 1 z m -3,1 h -1 -1 -1 -1 -1 -1 -1 v 1 h 1 1 1 1 1 1 1 z m -7,1 H 22 21 20 19 18 17 16 15 14 13 12 11 10 9 8 7 6 5 4 V 59 H 3 2 1 0 v 1 h 1 1 v 1 h 1 1 1 1 1 1 1 1 1 1 1 1 1 1 1 1 1 1 1 1 1 z M 4,59 H 5 6 V 58 H 5 4 Z M 6,58 H 7 8 9 V 57 H 8 7 6 Z m 3,-1 h 1 1 1 V 56 H 11 10 9 Z m 3,-1 h 1 1 v -1 h -1 -1 z m 2,-1 h 1 1 v -1 h -1 -1 z m 2,-1 h 1 1 v -1 h -1 -1 z m 2,-1 h 1 1 v -1 h -1 -1 z m 2,-1 h 1 1 1 v -1 h -1 -1 -1 z m 3,-1 h 1 1 1 v -1 h -1 -1 -1 z m 3,-1 h 1 1 1 v -1 h -1 -1 -1 z m 3,-1 h 1 1 1 v -1 h -1 -1 -1 z m 3,-1 h 1 1 1 1 v -1 h -1 -1 -1 -1 z m 4,-1 h 1 1 1 1 v -1 h -1 -1 -1 -1 z m 4,-1 h 1 1 1 1 1 1 v -1 h -1 -1 -1 -1 -1 -1 z m 6,-1 h 1 1 1 1 1 1 1 1 1 v -1 h -1 -1 -1 -1 -1 -1 -1 -1 -1 z m 9,-1 h 1 1 1 1 v -1 h -1 -1 -1 -1 z m 4,-1 h 1 1 v -1 h -1 -1 z m 4,-15 h -1 -1 v 1 h 1 1 z m -2,1 h -1 -1 v 1 h 1 1 z m -2,1 h -1 -1 v 1 h 1 1 z m -2,1 h -1 -1 v 1 h 1 1 z m -2,1 h -1 -1 v 1 h 1 1 z m -2,1 h -1 v 1 h 1 z m -1,1 h -1 -1 v 1 h 1 1 z m -2,1 h -1 -1 v 1 h 1 1 z m -2,1 h -1 -1 v 1 h 1 1 z m -2,1 h -1 -1 v 1 h 1 1 z m -2,1 h -1 -1 -1 -1 -1 v 1 h 1 1 1 1 1 z m -5,1 h -1 -1 -1 -1 -1 -1 -1 v 1 h 1 1 1 1 1 1 1 z m -7,1 h -1 -1 -1 -1 -1 -1 -1 -1 -1 -1 -1 -1 -1 -1 -1 -1 -1 -1 -1 -1 v 1 h 1 1 1 1 1 1 1 1 1 1 1 1 1 1 1 1 1 1 1 1 z M 12,40 V 39 H 11 10 9 8 7 6 5 4 v 1 h 1 1 1 1 1 1 1 z M 4,39 V 38 H 3 2 1 0 v 1 H 1 2 3 Z M 63,24 h -1 -1 v 1 h 1 1 z m -2,1 h -1 -1 v 1 h 1 1 z m -2,1 h -1 -1 v 1 h 1 1 z m -2,1 h -1 -1 v 1 h 1 1 z m -2,1 h -1 v 1 h 1 z m -1,1 h -1 v 1 h 1 z m -1,1 h -1 -1 v 1 h 1 1 z m -2,1 h -1 v 1 h 1 z m -1,1 h -1 -1 v 1 h 1 1 z m -2,1 h -1 -1 v 1 h 1 1 z m -2,1 h -1 -1 -1 v 1 h 1 1 1 z m -3,1 h -1 -1 -1 -1 -1 v 1 h 1 1 1 1 1 z m -5,1 h -1 -1 -1 -1 -1 -1 -1 v 1 h 1 1 1 1 1 1 1 z m -7,1 h -1 -1 -1 -1 -1 -1 -1 -1 -1 -1 v 1 h 1 1 1 1 1 1 1 1 1 1 z m -10,0 v -1 h -1 -1 -1 -1 -1 -1 -1 -1 -1 v 1 h 1 1 1 1 1 1 1 1 z M 12,36 V 35 H 11 10 9 8 7 6 v 1 h 1 1 1 1 1 z M 6,35 V 34 H 5 4 3 2 1 0 v 1 H 1 2 3 4 5 Z M 79,18 h 1 1 v -1 h -1 -1 z m 2,-1 h 1 1 1 v -1 h -1 -1 -1 z m 3,-1 h 1 1 1 1 V 15 H 87 86 85 84 Z M 73,31 v 1 h 1 v -1 z m 0,1 h -1 v 1 h 1 z m -1,1 h -1 v 1 h 1 z m 0,1 v 1 h 1 v -1 z m 0,1 h -1 v 1 h 1 z m 0,1 v 1 h 1 v -1 z m 0,1 h -1 v 1 h 1 z m 0,1 v 1 h 1 v -1 z m -1,0 h -1 v 1 h 1 z m -1,1 h -1 v 1 h 1 z m -1,0 v -1 h -1 v 1 z m -1,0 h -1 v 1 h 1 z m -1,1 h -1 v 1 h 1 z m 0,-1 v -1 h -1 v 1 z m 0,-1 h 1 v -1 h -1 z m 0,-1 v -1 h -1 v 1 z m 0,-1 h 1 v -1 h -1 z m 1,-1 h 1 v -1 h -1 z m 0,-1 v -1 h -1 v 1 z m 0,-1 h 1 v -1 h -1 z m 1,-1 h 1 v -1 h -1 z m 0,-1 v -1 h -1 v 1 z m 0,-1 h 1 v -1 h -1 z m 1,0 v 1 h 1 v -1 z m 1,1 v 1 h 1 v -1 z m 0,1 h -1 v 1 h 1 z m -1,1 h -1 v 1 h 1 z m 0,1 v 1 h 1 v -1 z m 0,1 h -1 v 1 h 1 z m 0,1 v 1 h 1 v -1 z m 0,1 h -1 v 1 h 1 z m -1,0 v -1 h -1 v 1 z m 4,10 v 1 h 1 v -1 z m 1,1 v 1 h 1 v -1 z m 0,1 h -1 v 1 h 1 z m 0,1 v 1 h 1 v -1 z m 1,1 v 1 h 1 v -1 z m 1,1 v 1 h 1 v -1 z m 1,1 v 1 h 1 v -1 z m 1,1 v 1 h 1 v -1 z m 0,1 h -1 v 1 h 1 z m 0,1 v 1 h 1 v -1 z m 0,1 h -1 v 1 h 1 z m 0,1 v 1 h 1 v -1 z m -1,-3 v -1 h -1 v 1 z m -1,-1 v -1 h -1 v 1 z m -1,0 h -1 v 1 h 1 z m -1,1 h -1 v 1 h 1 z m -1,1 h -1 v 1 h 1 z m 1,-2 v -1 h -1 v 1 z m -1,-1 v -1 h -1 v 1 z m -1,-1 v -1 h -1 v 1 z m -1,-1 v -1 h -1 v 1 z m -1,0 h -1 v 1 h 1 z m -1,0 v -1 h -1 v 1 z m -1,0 h -1 v 1 h 1 z m 0,-1 v -1 h -1 v 1 z m -1,-1 v -1 h -1 v 1 z m 0,-1 h 1 v -1 h -1 z m 1,0 v 1 h 1 v -1 z m 1,0 h 1 v -1 h -1 z m 1,0 v 1 h 1 v -1 z m 1,1 v 1 h 1 v -1 z m 1,0 h 1 v -1 h -1 z m 0,1 v 1 h 1 v -1 z m 1,1 v 1 h 1 v -1 z m 1,1 v 1 h 1 v -1 z m -4,-3 h -1 v 1 h 1 z M 80,38 h 1 v -1 -1 h -1 v 1 z m 1,-2 h 1 v -1 -1 h -1 v 1 z m 1,-2 h 1 v -1 h -1 z m 1,-1 h 1 v -1 h -1 z m 1,-1 h 1 v -1 h -1 z m 1,-1 h 1 v -1 h -1 z m 1,-1 h 1 v -1 h -1 z m 1,-1 h 1 v -1 h -1 z m 1,-1 h 1 1 v -1 h -1 -1 z m 2,-1 h 1 1 v -1 h -1 -1 z m 2,-1 h 1 1 v -1 h -1 -1 z m 2,-1 h 1 1 v -1 h -1 -1 z m 2,-1 h 1 1 1 1 V 23 H 99 98 97 96 Z M 23.996094,14.003906 V 15 H 23 v 1.001953 h 0.996094 v 1 h 2.001953 v 2.001953 h -1 V 18.001953 H 23 v 1.001953 h 0.996094 V 20 h 3.001953 V 19.003906 H 28 v -2.001953 h -1.001953 v -1 H 28 V 15 h -1.001953 v -0.996094 z m 10.996094,0 V 15 h 2.001953 v 1.001953 h -2.001953 v 1 h -0.996094 v 2.001953 h 0.996094 V 20 h 2.001953 v -0.996094 h -1 v -2.001953 h 1 v 2.001953 h 1 V 20 h 1.998047 V 19.003906 H 38.996094 V 15 h -1.001953 v -0.996094 z m 0,1.998047 V 15 h -0.996094 v 1.001953 z m 6.005859,-1.998047 V 20 h 1.996094 v -3.998047 h 1.001953 V 15 h 1.001953 V 14.003906 H 42.994141 V 15 h -1 v -0.996094 z m 10.996094,0 V 15 h -0.996094 v 4.003906 h 0.996094 V 20 h 3.003906 v -0.996094 h 1 v -1.001953 h -2.001953 v 1.001953 h -1.001953 v -2.001953 h 3.003906 V 15 h -1 V 14.003906 Z M 24.998047,15 h 1 v 1.001953 h -1 z m 27.996094,0 h 1.001953 v 1.001953 h -1.001953 z m 5.996093,0 h 1.001954 v 4.003906 H 58.990234 Z M 93,36 v 1 1 h -1 v 1 h -1 v 1 h -1 -1 v 1 h -1 -1 -1 v 1 h -1 -1 v 1 1 h 1 v 1 h 1 1 1 1 v -1 h 1 1 1 v -1 h 1 v -1 h 1 v -1 h 1 v -1 -1 h 1 v -1 -1 -1 h -1 -1 z m -6,27 v 1 h 1 v -1 z"
     style="fill:#491d00;fill-opacity:1" />
</svg>
