<svg width="24" height="24" viewBox="0 0 24 24" fill="none" xmlns="http://www.w3.org/2000/svg">
<path d="M24 12C24 18.6274 18.6274 24 12 24C5.37258 24 0 18.6274 0 12C0 5.37258 5.37258 0 12 0C18.6274 0 24 5.37258 24 12ZM3.99001 12C3.99001 16.4238 7.57621 20.01 12 20.01C16.4238 20.01 20.01 16.4238 20.01 12C20.01 7.57621 16.4238 3.99001 12 3.99001C7.57621 3.99001 3.99001 7.57621 3.99001 12Z" fill="#59300F"/>
<path d="M12 3.31114e-06C13.5759 3.24501e-06 15.1363 0.310392 16.5922 0.91345C18.0481 1.51651 19.371 2.40042 20.4853 3.51472C21.5996 4.62902 22.4835 5.95189 23.0866 7.4078C23.6896 8.86371 24 10.4241 24 12L20.023 12C20.023 10.9464 19.8155 9.90313 19.4123 8.92974C19.0091 7.95634 18.4181 7.0719 17.6731 6.32689C16.9281 5.58189 16.0437 4.99092 15.0703 4.58773C14.0969 4.18454 13.0536 3.97702 12 3.97702L12 3.31114e-06Z" fill="#FE8A2C"/>
</svg>
