<svg width="207" height="102" viewBox="0 0 207 102" fill="none" xmlns="http://www.w3.org/2000/svg">
<rect x="0.5" y="43.5" width="20" height="20" fill="#491D00" stroke="#FE8A2C"/>
<rect x="11" y="48" width="1" height="11" fill="#FE8A2C"/>
<rect x="12" y="47" width="1" height="13" fill="#FE8A2C"/>
<rect x="10" y="49" width="1" height="9" fill="#FE8A2C"/>
<rect x="9" y="50" width="1" height="7" fill="#FE8A2C"/>
<rect x="8" y="51" width="1" height="5" fill="#FE8A2C"/>
<rect x="7" y="52" width="1" height="3" fill="#FE8A2C"/>
<rect x="6" y="53" width="1" height="1" fill="#FE8A2C"/>
<rect x="54.5" y="43.5" width="20" height="20" fill="#491D00" stroke="#FE8A2C"/>
<rect x="64" y="59" width="1" height="11" transform="rotate(-180 64 59)" fill="#FE8A2C"/>
<rect x="63" y="60" width="1" height="13" transform="rotate(-180 63 60)" fill="#FE8A2C"/>
<rect x="65" y="58" width="1" height="9" transform="rotate(-180 65 58)" fill="#FE8A2C"/>
<rect x="66" y="57" width="1" height="7" transform="rotate(-180 66 57)" fill="#FE8A2C"/>
<rect x="67" y="56" width="1" height="5" transform="rotate(-180 67 56)" fill="#FE8A2C"/>
<rect x="68" y="55" width="1" height="3" transform="rotate(-180 68 55)" fill="#FE8A2C"/>
<rect x="69" y="54" width="1" height="1" transform="rotate(-180 69 54)" fill="#FE8A2C"/>
<rect x="27.5" y="16.5" width="20" height="20" fill="#491D00" stroke="#FE8A2C"/>
<rect x="43" y="27" width="1" height="11" transform="rotate(90 43 27)" fill="#FE8A2C"/>
<rect x="44" y="28" width="1" height="13" transform="rotate(90 44 28)" fill="#FE8A2C"/>
<rect x="42" y="26" width="1" height="9" transform="rotate(90 42 26)" fill="#FE8A2C"/>
<rect x="41" y="25" width="1" height="7" transform="rotate(90 41 25)" fill="#FE8A2C"/>
<rect x="40" y="24" width="1" height="5" transform="rotate(90 40 24)" fill="#FE8A2C"/>
<rect x="39" y="23" width="1" height="3" transform="rotate(90 39 23)" fill="#FE8A2C"/>
<rect x="38" y="22" width="1" height="1" transform="rotate(90 38 22)" fill="#FE8A2C"/>
<rect x="27.5" y="43.5" width="20" height="20" fill="#491D00" stroke="#FE8A2C"/>
<rect x="32" y="53" width="1" height="11" transform="rotate(-90 32 53)" fill="#FE8A2C"/>
<rect x="31" y="52" width="1" height="13" transform="rotate(-90 31 52)" fill="#FE8A2C"/>
<rect x="33" y="54" width="1" height="9" transform="rotate(-90 33 54)" fill="#FE8A2C"/>
<rect x="34" y="55" width="1" height="7" transform="rotate(-90 34 55)" fill="#FE8A2C"/>
<rect x="35" y="56" width="1" height="5" transform="rotate(-90 35 56)" fill="#FE8A2C"/>
<rect x="36" y="57" width="1" height="3" transform="rotate(-90 36 57)" fill="#FE8A2C"/>
<rect x="37" y="58" width="1" height="1" transform="rotate(-90 37 58)" fill="#FE8A2C"/>
<rect x="7" y="78" width="1" height="2" fill="#FE8A2C"/>
<rect x="8" y="76" width="1" height="2" fill="#FE8A2C"/>
<rect x="9" y="74" width="1" height="2" fill="#FE8A2C"/>
<rect x="10" y="72" width="1" height="2" fill="#FE8A2C"/>
<rect x="11" y="70" width="1" height="2" fill="#FE8A2C"/>
<rect x="14" y="74" width="7" height="1" fill="#FE8A2C"/>
<rect x="15" y="73" width="1" height="1" fill="#FE8A2C"/>
<rect x="15" y="75" width="1" height="1" fill="#FE8A2C"/>
<rect x="16" y="72" width="1" height="1" fill="#FE8A2C"/>
<rect x="16" y="76" width="1" height="1" fill="#FE8A2C"/>
<rect x="17" y="71" width="1" height="1" fill="#FE8A2C"/>
<rect x="17" y="77" width="1" height="1" fill="#FE8A2C"/>
<path d="M4 78V77V76V75H3H2H1V76V77V78H0V77V76V75V74V73V72H1V73V74H2H3H4V73V72H5V73V74V75V76V77V78H4ZM4 72H3H2H1V71H2H3H4V72Z" fill="#FE8A2C"/>
<rect x="61" y="78" width="1" height="2" fill="#FE8A2C"/>
<rect x="62" y="76" width="1" height="2" fill="#FE8A2C"/>
<rect x="63" y="74" width="1" height="2" fill="#FE8A2C"/>
<rect x="64" y="72" width="1" height="2" fill="#FE8A2C"/>
<rect x="65" y="70" width="1" height="2" fill="#FE8A2C"/>
<rect x="75" y="75" width="7" height="1" transform="rotate(-180 75 75)" fill="#FE8A2C"/>
<rect x="74" y="76" width="1" height="1" transform="rotate(-180 74 76)" fill="#FE8A2C"/>
<rect x="74" y="74" width="1" height="1" transform="rotate(-180 74 74)" fill="#FE8A2C"/>
<rect x="73" y="77" width="1" height="1" transform="rotate(-180 73 77)" fill="#FE8A2C"/>
<rect x="73" y="73" width="1" height="1" transform="rotate(-180 73 73)" fill="#FE8A2C"/>
<rect x="72" y="78" width="1" height="1" transform="rotate(-180 72 78)" fill="#FE8A2C"/>
<rect x="72" y="72" width="1" height="1" transform="rotate(-180 72 72)" fill="#FE8A2C"/>
<path d="M57 77H58V76V75V74V73V72H57H56H55V73V74V75V76V77H56H57ZM57 78H56H55H54V77V76V75V74V73V72V71H55H56H57H58V72H59V73V74V75V76V77H58V78H57Z" fill="#FE8A2C"/>
<rect x="35" y="8" width="1" height="2" fill="#FE8A2C"/>
<rect x="36" y="6" width="1" height="2" fill="#FE8A2C"/>
<rect x="37" y="4" width="1" height="2" fill="#FE8A2C"/>
<rect x="38" y="2" width="1" height="2" fill="#FE8A2C"/>
<rect x="39" width="1" height="2" fill="#FE8A2C"/>
<rect x="46" y="1" width="7" height="1" transform="rotate(90 46 1)" fill="#FE8A2C"/>
<rect x="47" y="2" width="1" height="1" transform="rotate(90 47 2)" fill="#FE8A2C"/>
<rect x="45" y="2" width="1" height="1" transform="rotate(90 45 2)" fill="#FE8A2C"/>
<rect x="48" y="3" width="1" height="1" transform="rotate(90 48 3)" fill="#FE8A2C"/>
<rect x="44" y="3" width="1" height="1" transform="rotate(90 44 3)" fill="#FE8A2C"/>
<rect x="49" y="4" width="1" height="1" transform="rotate(90 49 4)" fill="#FE8A2C"/>
<rect x="43" y="4" width="1" height="1" transform="rotate(90 43 4)" fill="#FE8A2C"/>
<path d="M32 7H33V8H32H31V7H32ZM29 7H30V8H29H28V7H29ZM33 7V6V5V4V3V2V1H34V2V3V4V5V6V7H33ZM31 7H30V6V5V4V3V2V1H31V2V3V4V5V6V7ZM28 7H27V6V5V4V3V2V1H28V2V3V4V5V6V7Z" fill="#FE8A2C"/>
<rect x="34" y="78" width="1" height="2" fill="#FE8A2C"/>
<rect x="35" y="76" width="1" height="2" fill="#FE8A2C"/>
<rect x="36" y="74" width="1" height="2" fill="#FE8A2C"/>
<rect x="37" y="72" width="1" height="2" fill="#FE8A2C"/>
<rect x="38" y="70" width="1" height="2" fill="#FE8A2C"/>
<rect x="44" y="78" width="7" height="1" transform="rotate(-90 44 78)" fill="#FE8A2C"/>
<rect x="43" y="77" width="1" height="1" transform="rotate(-90 43 77)" fill="#FE8A2C"/>
<rect x="45" y="77" width="1" height="1" transform="rotate(-90 45 77)" fill="#FE8A2C"/>
<rect x="42" y="76" width="1" height="1" transform="rotate(-90 42 76)" fill="#FE8A2C"/>
<rect x="46" y="76" width="1" height="1" transform="rotate(-90 46 76)" fill="#FE8A2C"/>
<rect x="41" y="75" width="1" height="1" transform="rotate(-90 41 75)" fill="#FE8A2C"/>
<rect x="47" y="75" width="1" height="1" transform="rotate(-90 47 75)" fill="#FE8A2C"/>
<path d="M31 73V72H32V73H31ZM30 77H31V78H30H29H28V77H29H30ZM31 77V76V75H32V76V77H31ZM28 77H27V76H28V77ZM31 75H30H29H28V74H29H30H31V75ZM28 74H27V73V72H28V73V74ZM31 72H30H29H28V71H29H30H31V72Z" fill="#FE8A2C"/>
<rect x="91.5" y="43.5" width="76" height="20" fill="#491D00" stroke="#FE8A2C"/>
<path d="M132 56H133V57H132H131H130V56H131H132ZM133 56V55V54V53V52V51H134V52V53V54V55V56H133ZM130 56H129V55V54V53V52V51H130V52V53V54V55V56ZM133 51H132H131H130V50H131H132H133V51ZM139 57V56H140V57H139ZM135 57V56V55V54V53V52V51V50H136V51V52V53H137V54H138V55H139V56H138V55H137V54H136V55V56V57H135ZM137 53V52H138V53H137ZM138 52V51H139V52H138ZM139 51V50H140V51H139Z" fill="#FE8A2C"/>
<rect x="119" y="51" width="5" height="5" fill="#FE8A2C"/>
<rect x="120" y="50" width="3" height="1" fill="#FE8A2C"/>
<rect x="120" y="56" width="3" height="1" fill="#FE8A2C"/>
<rect x="125" y="52" width="3" height="1" transform="rotate(90 125 52)" fill="#FE8A2C"/>
<rect x="119" y="52" width="3" height="1" transform="rotate(90 119 52)" fill="#FE8A2C"/>
<rect x="90.5" y="16.5" width="55" height="20" fill="#491D00" stroke="#FE8A2C"/>
<rect x="129" y="29" width="5" height="2" fill="#FE8A2C"/>
<rect x="134" y="29" width="1" height="2" fill="#FE8A2C"/>
<rect x="135" y="28" width="1" height="2" fill="#FE8A2C"/>
<rect x="136" y="24" width="1" height="6" fill="#FE8A2C"/>
<rect x="137" y="25" width="1" height="4" fill="#FE8A2C"/>
<rect x="134" y="23" width="1" height="2" fill="#FE8A2C"/>
<rect x="135" y="24" width="1" height="2" fill="#FE8A2C"/>
<rect x="128" y="21" width="1" height="5.7" fill="#FE8A2C"/>
<rect x="127" y="21.9502" width="1" height="3.8" fill="#FE8A2C"/>
<rect x="126" y="23" width="1" height="2" fill="#FE8A2C"/>
<rect x="129" y="23" width="5" height="2" fill="#FE8A2C"/>
<path d="M101 29V27H98V29H101ZM97 30V23H101V24H102V26H101V24H98V26H101V27H102V29H101V30H97Z" fill="#FE8A2C"/>
<path d="M107 30V27H104V30H103V24H104V26H107V24H108V30H107ZM107 24H104V23H107V24Z" fill="#FE8A2C"/>
<path d="M113 25V24H114V25H113ZM113 29V30H110V29H113ZM113 29V28H114V29H113ZM110 29H109V24H110V29ZM113 24H110V23H113V24Z" fill="#FE8A2C"/>
<path d="M119 30V29H120V30H119ZM115 30V23H116V26H117V27H118V28H119V29H118V28H117V27H116V30H115ZM117 26V25H118V26H117ZM118 25V24H119V25H118ZM119 24V23H120V24H119Z" fill="#FE8A2C"/>
<path d="M183 77V78H178V71H183V72H179V74H182V75H179V77H183Z" fill="#FE8A2C"/>
<path d="M188 78V76H187V75H188V71H189V78H188ZM184 78V71H185V73H186V74H187V75H186V74H185V78H184Z" fill="#FE8A2C"/>
<path d="M192 78V72H190V71H195V72H193V78H192Z" fill="#FE8A2C"/>
<path d="M201 77V78H196V71H201V72H197V74H200V75H197V77H201Z" fill="#FE8A2C"/>
<path d="M206 78V77H207V78H206ZM202 78V71H206V72H207V74H206V72H203V74H206V75H205V76H206V77H205V76H204V75H203V78H202Z" fill="#FE8A2C"/>
<path d="M206.5 17L206.5 16.5L206 16.5L189 16.5L173 16.5L172.5 16.5L172.5 17L172.5 37L172.5 37.5L173 37.5L182.5 37.5L182.5 63L182.5 63.5L183 63.5L206 63.5L206.5 63.5L206.5 63L206.5 17Z" fill="#491D00" stroke="#FE8A2C"/>
<path d="M191 30V31H188V30H191ZM191 30V25H192V30H191ZM188 30H187V25H188V30ZM191 25H188V24H191V25Z" fill="#FE8A2C"/>
<path d="M197 31V30H198V31H197ZM193 31V24H194V27H195V28H196V29H197V30H196V29H195V28H194V31H193ZM195 27V26H196V27H195ZM196 26V25H197V26H196ZM197 25V24H198V25H197Z" fill="#FE8A2C"/>
<rect x="178" y="25" width="5" height="5" fill="#FE8A2C"/>
<rect x="179" y="24" width="3" height="1" fill="#FE8A2C"/>
<rect x="179" y="30" width="3" height="1" fill="#FE8A2C"/>
<rect x="184" y="26" width="3" height="1" transform="rotate(90 184 26)" fill="#FE8A2C"/>
<rect x="178" y="26" width="3" height="1" transform="rotate(90 178 26)" fill="#FE8A2C"/>
<path d="M95 73V72H96V73H95ZM95 77V78H92V77H95ZM95 77V75H96V77H95ZM92 77H91V76H92V77ZM95 75H92V74H95V75ZM92 74H91V72H92V74ZM95 72H92V71H95V72Z" fill="#FE8A2C"/>
<path d="M97 78V71H101V72H102V74H101V72H98V74H101V75H98V78H97Z" fill="#FE8A2C"/>
<path d="M107 78V75H104V78H103V72H104V74H107V72H108V78H107ZM107 72H104V71H107V72Z" fill="#FE8A2C"/>
<path d="M113 73V72H114V73H113ZM113 77V78H110V77H113ZM113 77V76H114V77H113ZM110 77H109V72H110V77ZM113 72H110V71H113V72Z" fill="#FE8A2C"/>
<path d="M120 77V78H115V71H120V72H116V74H119V75H116V77H120Z" fill="#FE8A2C"/>
<path d="M7 94V93H8V94H7ZM6 98H7V99H6H5H4V98H5H6ZM7 98V97H8V98H7ZM4 98H3V97V96V95V94V93H4V94V95V96V97V98ZM7 93H6H5H4V92H5H6H7V93ZM15 99V98V97V96V95V94H14V95H13V96H12V95H13V94H14V93H15V92H16V93V94V95V96V97V98V99H15ZM9 99V98V97V96V95V94V93V92H10V93H11V94H12V95H11V94H10V95V96V97V98V99H9ZM20 98H21V97V96V95V94V93H20H19H18V94V95V96V97V98H19H20ZM20 99H19H18H17V98V97V96V95V94V93V92H18H19H20H21V93H22V94V95V96V97V98H21V99H20ZM27 98V97V96H26H25V95H26H27V94V93H28V94V95H29H30V96H29H28V97V98H27ZM37 94V93H38V94H37ZM36 98H37V99H36H35H34V98H35H36ZM37 98V97H38V98H37ZM34 98H33V97V96V95V94V93H34V94V95V96V97V98ZM37 93H36H35H34V92H35H36H37V93ZM47 96H48V97H47H46H45H44H43V96H44H45H46H47ZM47 94H48V95H47H46H45H44H43V94H44H45H46H47ZM57 94V93H58V94H57ZM56 98H57V99H56H55H54V98H55H56ZM57 98V97H58V98H57ZM54 98H53V97V96V95V94V93H54V94V95V96V97V98ZM57 93H56H55H54V92H55H56H57V93ZM62 98H63V99H62H61H60V98H61H62ZM63 98V97V96V95V94V93H64V94V95V96V97V98H63ZM60 98H59V97V96V95V94V93H60V94V95V96V97V98ZM63 93H62H61H60V92H61H62H63V93ZM65 99V98V97V96V95V94V93V92H66H67H68H69V93H70V94V95H69V94V93H68H67H66V94V95H67H68H69V96H68H67H66V97V98V99H65ZM73 99V98V97V96V95H74V96V97V98V99H73ZM74 95V94H75V95H74ZM73 95H72V94H73V95ZM75 94V93V92H76V93V94H75ZM72 94H71V93V92H72V93V94ZM83 94V93H84V94H83ZM82 98H83V99H82H81H80V98H81H82ZM83 98V97V96H84V97V98H83ZM80 98H79V97H80V98ZM83 96H82H81H80V95H81H82H83V96ZM80 95H79V94V93H80V94V95ZM83 93H82H81H80V92H81H82H83V93ZM89 94V93H90V94H89ZM88 98H89V99H88H87H86V98H87H88ZM89 98V97H90V98H89ZM86 98H85V97V96V95V94V93H86V94V95V96V97V98ZM89 93H88H87H86V92H87H88H89V93ZM95 99V98H96V99H95ZM91 99V98V97V96V95V94V93V92H92H93H94H95V93H96V94V95H95V94V93H94H93H92V94V95H93H94H95V96H94V97H95V98H94V97H93V96H92V97V98V99H91ZM101 98H102V99H101H100H99H98H97V98V97V96V95V94V93V92H98H99H100H101H102V93H101H100H99H98V94V95H99H100H101V96H100H99H98V97V98H99H100H101ZM107 98H108V99H107H106H105H104H103V98V97V96V95V94V93V92H104H105H106H107H108V93H107H106H105H104V94V95H105H106H107V96H106H105H104V97V98H105H106H107ZM113 99V98V97H112V96H113V95V94V93V92H114V93V94V95V96V97V98V99H113ZM109 99V98V97V96V95V94V93V92H110V93V94H111V95H112V96H111V95H110V96V97V98V99H109ZM119 94V93H120V94H119ZM118 98H119V99H118H117H116V98H117H118ZM119 98V97V96H120V97V98H119ZM116 98H115V97H116V98ZM119 96H118H117H116V95H117H118H119V96ZM116 95H115V94V93H116V94V95ZM119 93H118H117H116V92H117H118H119V93ZM125 99V98V97V96H124H123H122V97V98V99H121V98V97V96V95V94V93V92H122V93V94V95H123H124H125V94V93V92H126V93V94V95V96V97V98V99H125ZM130 98H131V99H130H129H128V98H129H130ZM131 98V97V96V95V94V93H132V94V95V96V97V98H131ZM128 98H127V97V96V95V94V93H128V94V95V96V97V98ZM131 93H130H129H128V92H129H130H131V93ZM135 99V98V97V96V95V94V93H134H133V92H134H135H136H137H138V93H137H136V94V95V96V97V98V99H135ZM143 99V98V97V96V95V94V93H142H141V92H142H143H144H145H146V93H145H144V94V95V96V97V98V99H143ZM150 98H151V99H150H149H148V98H149H150ZM151 98V97V96V95V94V93H152V94V95V96V97V98H151ZM148 98H147V97V96V95V94V93H148V94V95V96V97V98ZM151 93H150H149H148V92H149H150H151V93ZM159 94V93H160V94H159ZM158 98H159V99H158H157H156V98H157H158ZM159 98V97H160V98H159ZM156 98H155V97V96V95V94V93H156V94V95V96V97V98ZM159 93H158H157H156V92H157H158H159V93ZM165 98H166V99H165H164H163H162H161V98V97V96V95V94V93V92H162V93V94V95V96V97V98H163H164H165ZM167 99V98V97V96V95V94V93V92H168V93V94V95V96V97V98V99H167ZM169 99V98V97V96V95V94V93V92H170H171H172H173V93H174V94V95H173V94V93H172H171H170V94V95H171H172H173V96H172H171H170V97V98V99H169ZM178 98H179V97V96H178H177H176V97V98H177H178ZM178 99H177H176H175V98V97V96V95V94V93V92H176H177H178H179V93H180V94V95H179V94V93H178H177H176V94V95H177H178H179V96H180V97V98H179V99H178ZM184 98H185V99H184H183H182V98H183H184ZM185 98V97V96V95V94V93H186V94V95V96V97V98H185ZM182 98H181V97V96V95V94V93H182V94V95V96V97V98ZM185 93H184H183H182V92H183H184H185V93ZM191 99V98V97V96H190H189H188V97V98V99H187V98V97V96V95V94V93H188V94V95H189H190H191V94V93H192V94V95V96V97V98V99H191ZM191 93H190H189H188V92H189H190H191V93ZM197 99V98H198V99H197ZM193 99V98V97V96V95V94V93V92H194H195H196H197V93H198V94V95H197V94V93H196H195H194V94V95H195H196H197V96H196V97H197V98H196V97H195V96H194V97V98V99H193ZM202 98H203V97V96V95V94V93H202H201H200V94V95V96V97V98H201H202ZM202 99H201H200H199V98V97V96V95V94V93V92H200H201H202H203V93H204V94V95V96V97V98H203V99H202Z" fill="#FE8A2C"/>
</svg>
