<svg width="207" height="80" viewBox="0 0 207 80" fill="none" xmlns="http://www.w3.org/2000/svg">
<rect x="0.5" y="43.5" width="20" height="20" fill="#491D00" stroke="#FE8A2C"/>
<rect x="11" y="48" width="1" height="11" fill="#FE8A2C"/>
<rect x="12" y="47" width="1" height="13" fill="#FE8A2C"/>
<rect x="10" y="49" width="1" height="9" fill="#FE8A2C"/>
<rect x="9" y="50" width="1" height="7" fill="#FE8A2C"/>
<rect x="8" y="51" width="1" height="5" fill="#FE8A2C"/>
<rect x="7" y="52" width="1" height="3" fill="#FE8A2C"/>
<rect x="6" y="53" width="1" height="1" fill="#FE8A2C"/>
<rect x="54.5" y="43.5" width="20" height="20" fill="#491D00" stroke="#FE8A2C"/>
<rect x="64" y="59" width="1" height="11" transform="rotate(-180 64 59)" fill="#FE8A2C"/>
<rect x="63" y="60" width="1" height="13" transform="rotate(-180 63 60)" fill="#FE8A2C"/>
<rect x="65" y="58" width="1" height="9" transform="rotate(-180 65 58)" fill="#FE8A2C"/>
<rect x="66" y="57" width="1" height="7" transform="rotate(-180 66 57)" fill="#FE8A2C"/>
<rect x="67" y="56" width="1" height="5" transform="rotate(-180 67 56)" fill="#FE8A2C"/>
<rect x="68" y="55" width="1" height="3" transform="rotate(-180 68 55)" fill="#FE8A2C"/>
<rect x="69" y="54" width="1" height="1" transform="rotate(-180 69 54)" fill="#FE8A2C"/>
<rect x="27.5" y="16.5" width="20" height="20" fill="#491D00" stroke="#FE8A2C"/>
<rect x="43" y="27" width="1" height="11" transform="rotate(90 43 27)" fill="#FE8A2C"/>
<rect x="44" y="28" width="1" height="13" transform="rotate(90 44 28)" fill="#FE8A2C"/>
<rect x="42" y="26" width="1" height="9" transform="rotate(90 42 26)" fill="#FE8A2C"/>
<rect x="41" y="25" width="1" height="7" transform="rotate(90 41 25)" fill="#FE8A2C"/>
<rect x="40" y="24" width="1" height="5" transform="rotate(90 40 24)" fill="#FE8A2C"/>
<rect x="39" y="23" width="1" height="3" transform="rotate(90 39 23)" fill="#FE8A2C"/>
<rect x="38" y="22" width="1" height="1" transform="rotate(90 38 22)" fill="#FE8A2C"/>
<rect x="27.5" y="43.5" width="20" height="20" fill="#491D00" stroke="#FE8A2C"/>
<rect x="32" y="53" width="1" height="11" transform="rotate(-90 32 53)" fill="#FE8A2C"/>
<rect x="31" y="52" width="1" height="13" transform="rotate(-90 31 52)" fill="#FE8A2C"/>
<rect x="33" y="54" width="1" height="9" transform="rotate(-90 33 54)" fill="#FE8A2C"/>
<rect x="34" y="55" width="1" height="7" transform="rotate(-90 34 55)" fill="#FE8A2C"/>
<rect x="35" y="56" width="1" height="5" transform="rotate(-90 35 56)" fill="#FE8A2C"/>
<rect x="36" y="57" width="1" height="3" transform="rotate(-90 36 57)" fill="#FE8A2C"/>
<rect x="37" y="58" width="1" height="1" transform="rotate(-90 37 58)" fill="#FE8A2C"/>
<rect x="7" y="78" width="1" height="2" fill="#FE8A2C"/>
<rect x="8" y="76" width="1" height="2" fill="#FE8A2C"/>
<rect x="9" y="74" width="1" height="2" fill="#FE8A2C"/>
<rect x="10" y="72" width="1" height="2" fill="#FE8A2C"/>
<rect x="11" y="70" width="1" height="2" fill="#FE8A2C"/>
<rect x="14" y="74" width="7" height="1" fill="#FE8A2C"/>
<rect x="15" y="73" width="1" height="1" fill="#FE8A2C"/>
<rect x="15" y="75" width="1" height="1" fill="#FE8A2C"/>
<rect x="16" y="72" width="1" height="1" fill="#FE8A2C"/>
<rect x="16" y="76" width="1" height="1" fill="#FE8A2C"/>
<rect x="17" y="71" width="1" height="1" fill="#FE8A2C"/>
<rect x="17" y="77" width="1" height="1" fill="#FE8A2C"/>
<path d="M4 78V77V76V75H3H2H1V76V77V78H0V77V76V75V74V73V72H1V73V74H2H3H4V73V72H5V73V74V75V76V77V78H4ZM4 72H3H2H1V71H2H3H4V72Z" fill="#FE8A2C"/>
<rect x="61" y="78" width="1" height="2" fill="#FE8A2C"/>
<rect x="62" y="76" width="1" height="2" fill="#FE8A2C"/>
<rect x="63" y="74" width="1" height="2" fill="#FE8A2C"/>
<rect x="64" y="72" width="1" height="2" fill="#FE8A2C"/>
<rect x="65" y="70" width="1" height="2" fill="#FE8A2C"/>
<rect x="75" y="75" width="7" height="1" transform="rotate(-180 75 75)" fill="#FE8A2C"/>
<rect x="74" y="76" width="1" height="1" transform="rotate(-180 74 76)" fill="#FE8A2C"/>
<rect x="74" y="74" width="1" height="1" transform="rotate(-180 74 74)" fill="#FE8A2C"/>
<rect x="73" y="77" width="1" height="1" transform="rotate(-180 73 77)" fill="#FE8A2C"/>
<rect x="73" y="73" width="1" height="1" transform="rotate(-180 73 73)" fill="#FE8A2C"/>
<rect x="72" y="78" width="1" height="1" transform="rotate(-180 72 78)" fill="#FE8A2C"/>
<rect x="72" y="72" width="1" height="1" transform="rotate(-180 72 72)" fill="#FE8A2C"/>
<path d="M57 77H58V76V75V74V73V72H57H56H55V73V74V75V76V77H56H57ZM57 78H56H55H54V77V76V75V74V73V72V71H55H56H57H58V72H59V73V74V75V76V77H58V78H57Z" fill="#FE8A2C"/>
<rect x="35" y="8" width="1" height="2" fill="#FE8A2C"/>
<rect x="36" y="6" width="1" height="2" fill="#FE8A2C"/>
<rect x="37" y="4" width="1" height="2" fill="#FE8A2C"/>
<rect x="38" y="2" width="1" height="2" fill="#FE8A2C"/>
<rect x="39" width="1" height="2" fill="#FE8A2C"/>
<rect x="46" y="1" width="7" height="1" transform="rotate(90 46 1)" fill="#FE8A2C"/>
<rect x="47" y="2" width="1" height="1" transform="rotate(90 47 2)" fill="#FE8A2C"/>
<rect x="45" y="2" width="1" height="1" transform="rotate(90 45 2)" fill="#FE8A2C"/>
<rect x="48" y="3" width="1" height="1" transform="rotate(90 48 3)" fill="#FE8A2C"/>
<rect x="44" y="3" width="1" height="1" transform="rotate(90 44 3)" fill="#FE8A2C"/>
<rect x="49" y="4" width="1" height="1" transform="rotate(90 49 4)" fill="#FE8A2C"/>
<rect x="43" y="4" width="1" height="1" transform="rotate(90 43 4)" fill="#FE8A2C"/>
<path d="M32 7H33V8H32H31V7H32ZM29 7H30V8H29H28V7H29ZM33 7V6V5V4V3V2V1H34V2V3V4V5V6V7H33ZM31 7H30V6V5V4V3V2V1H31V2V3V4V5V6V7ZM28 7H27V6V5V4V3V2V1H28V2V3V4V5V6V7Z" fill="#FE8A2C"/>
<rect x="34" y="78" width="1" height="2" fill="#FE8A2C"/>
<rect x="35" y="76" width="1" height="2" fill="#FE8A2C"/>
<rect x="36" y="74" width="1" height="2" fill="#FE8A2C"/>
<rect x="37" y="72" width="1" height="2" fill="#FE8A2C"/>
<rect x="38" y="70" width="1" height="2" fill="#FE8A2C"/>
<rect x="44" y="78" width="7" height="1" transform="rotate(-90 44 78)" fill="#FE8A2C"/>
<rect x="43" y="77" width="1" height="1" transform="rotate(-90 43 77)" fill="#FE8A2C"/>
<rect x="45" y="77" width="1" height="1" transform="rotate(-90 45 77)" fill="#FE8A2C"/>
<rect x="42" y="76" width="1" height="1" transform="rotate(-90 42 76)" fill="#FE8A2C"/>
<rect x="46" y="76" width="1" height="1" transform="rotate(-90 46 76)" fill="#FE8A2C"/>
<rect x="41" y="75" width="1" height="1" transform="rotate(-90 41 75)" fill="#FE8A2C"/>
<rect x="47" y="75" width="1" height="1" transform="rotate(-90 47 75)" fill="#FE8A2C"/>
<path d="M31 73V72H32V73H31ZM30 77H31V78H30H29H28V77H29H30ZM31 77V76V75H32V76V77H31ZM28 77H27V76H28V77ZM31 75H30H29H28V74H29H30H31V75ZM28 74H27V73V72H28V73V74ZM31 72H30H29H28V71H29H30H31V72Z" fill="#FE8A2C"/>
<rect x="91.5" y="43.5" width="76" height="20" fill="#491D00" stroke="#FE8A2C"/>
<path d="M132 56H133V57H132H131H130V56H131H132ZM133 56V55V54V53V52V51H134V52V53V54V55V56H133ZM130 56H129V55V54V53V52V51H130V52V53V54V55V56ZM133 51H132H131H130V50H131H132H133V51ZM139 57V56H140V57H139ZM135 57V56V55V54V53V52V51V50H136V51V52V53H137V54H138V55H139V56H138V55H137V54H136V55V56V57H135ZM137 53V52H138V53H137ZM138 52V51H139V52H138ZM139 51V50H140V51H139Z" fill="#FE8A2C"/>
<rect x="119" y="51" width="5" height="5" fill="#FE8A2C"/>
<rect x="120" y="50" width="3" height="1" fill="#FE8A2C"/>
<rect x="120" y="56" width="3" height="1" fill="#FE8A2C"/>
<rect x="125" y="52" width="3" height="1" transform="rotate(90 125 52)" fill="#FE8A2C"/>
<rect x="119" y="52" width="3" height="1" transform="rotate(90 119 52)" fill="#FE8A2C"/>
<rect x="90.5" y="16.5" width="55" height="20" fill="#491D00" stroke="#FE8A2C"/>
<rect x="129" y="29" width="5" height="2" fill="#FE8A2C"/>
<rect x="134" y="29" width="1" height="2" fill="#FE8A2C"/>
<rect x="135" y="28" width="1" height="2" fill="#FE8A2C"/>
<rect x="136" y="24" width="1" height="6" fill="#FE8A2C"/>
<rect x="137" y="25" width="1" height="4" fill="#FE8A2C"/>
<rect x="134" y="23" width="1" height="2" fill="#FE8A2C"/>
<rect x="135" y="24" width="1" height="2" fill="#FE8A2C"/>
<rect x="128" y="21" width="1" height="5.7" fill="#FE8A2C"/>
<rect x="127" y="21.9502" width="1" height="3.8" fill="#FE8A2C"/>
<rect x="126" y="23" width="1" height="2" fill="#FE8A2C"/>
<rect x="129" y="23" width="5" height="2" fill="#FE8A2C"/>
<path d="M101 29V27H98V29H101ZM97 30V23H101V24H102V26H101V24H98V26H101V27H102V29H101V30H97Z" fill="#FE8A2C"/>
<path d="M107 30V27H104V30H103V24H104V26H107V24H108V30H107ZM107 24H104V23H107V24Z" fill="#FE8A2C"/>
<path d="M113 25V24H114V25H113ZM113 29V30H110V29H113ZM113 29V28H114V29H113ZM110 29H109V24H110V29ZM113 24H110V23H113V24Z" fill="#FE8A2C"/>
<path d="M119 30V29H120V30H119ZM115 30V23H116V26H117V27H118V28H119V29H118V28H117V27H116V30H115ZM117 26V25H118V26H117ZM118 25V24H119V25H118ZM119 24V23H120V24H119Z" fill="#FE8A2C"/>
<path d="M183 77V78H178V71H183V72H179V74H182V75H179V77H183Z" fill="#FE8A2C"/>
<path d="M188 78V76H187V75H188V71H189V78H188ZM184 78V71H185V73H186V74H187V75H186V74H185V78H184Z" fill="#FE8A2C"/>
<path d="M192 78V72H190V71H195V72H193V78H192Z" fill="#FE8A2C"/>
<path d="M201 77V78H196V71H201V72H197V74H200V75H197V77H201Z" fill="#FE8A2C"/>
<path d="M206 78V77H207V78H206ZM202 78V71H206V72H207V74H206V72H203V74H206V75H205V76H206V77H205V76H204V75H203V78H202Z" fill="#FE8A2C"/>
<path d="M206.5 17L206.5 16.5L206 16.5L189 16.5L173 16.5L172.5 16.5L172.5 17L172.5 37L172.5 37.5L173 37.5L182.5 37.5L182.5 63L182.5 63.5L183 63.5L206 63.5L206.5 63.5L206.5 63L206.5 17Z" fill="#491D00" stroke="#FE8A2C"/>
<path d="M191 30V31H188V30H191ZM191 30V25H192V30H191ZM188 30H187V25H188V30ZM191 25H188V24H191V25Z" fill="#FE8A2C"/>
<path d="M197 31V30H198V31H197ZM193 31V24H194V27H195V28H196V29H197V30H196V29H195V28H194V31H193ZM195 27V26H196V27H195ZM196 26V25H197V26H196ZM197 25V24H198V25H197Z" fill="#FE8A2C"/>
<rect x="178" y="25" width="5" height="5" fill="#FE8A2C"/>
<rect x="179" y="24" width="3" height="1" fill="#FE8A2C"/>
<rect x="179" y="30" width="3" height="1" fill="#FE8A2C"/>
<rect x="184" y="26" width="3" height="1" transform="rotate(90 184 26)" fill="#FE8A2C"/>
<rect x="178" y="26" width="3" height="1" transform="rotate(90 178 26)" fill="#FE8A2C"/>
<path d="M95 73V72H96V73H95ZM95 77V78H92V77H95ZM95 77V75H96V77H95ZM92 77H91V76H92V77ZM95 75H92V74H95V75ZM92 74H91V72H92V74ZM95 72H92V71H95V72Z" fill="#FE8A2C"/>
<path d="M97 78V71H101V72H102V74H101V72H98V74H101V75H98V78H97Z" fill="#FE8A2C"/>
<path d="M107 78V75H104V78H103V72H104V74H107V72H108V78H107ZM107 72H104V71H107V72Z" fill="#FE8A2C"/>
<path d="M113 73V72H114V73H113ZM113 77V78H110V77H113ZM113 77V76H114V77H113ZM110 77H109V72H110V77ZM113 72H110V71H113V72Z" fill="#FE8A2C"/>
<path d="M120 77V78H115V71H120V72H116V74H119V75H116V77H120Z" fill="#FE8A2C"/>
</svg>
