<?xml version="1.0" encoding="UTF-8" standalone="no"?>
<!-- Generator: Adobe Illustrator 26.0.2, SVG Export Plug-In . SVG Version: 6.00 Build 0)  -->

<svg
   version="1.1"
   id="Layer_1"
   x="0px"
   y="0px"
   viewBox="0 0 128 64"
   style="enable-background:new 0 0 128 64;"
   xml:space="preserve"
   xmlns="http://www.w3.org/2000/svg"
   xmlns:svg="http://www.w3.org/2000/svg"><defs
   id="defs251">
	
	
	
	
	
	
	
	
	
	
	
	
	
	
	
	
	
	
	
	
	
	
	
	
	
	
	
	
	
	
	
	
	
	
	
	
	
	
	
	
	
	
	
	
	
	
	
	
	
	
	
	
	
	
	
	
	
	
	
	
	
	
	
	
	
	
	
	
	
	
	
	
	
	
	
	
	
	
	
	
	
	
	
	
	
	
	
	
	
	
	
	
	
	
	
	
	
	
	
	
	
	
	
	
	
	
	
	
	
	
	
	
	
	
	
	
	
	
	
	
</defs>
<style
   type="text/css"
   id="style2">
	.st0{fill:#FE8A2C;}
</style>

<path
   id="path6"
   d="m 109,6 v 1 h -1 v 2 h -1 v 2 h -1 v 2 h -1 v 2 h -1 v 2 h -1 v 2 h -1 v 2 h -1 v -1 h -0.99999 v -1 h -1.000005 v -1 h -1 v -1 h -1 v -1 h -1 v -1 h -1 v -1 h -2 v 1 h -1 v 2 h 1 v 1 h 1 v 1 h 1 v 1 h 1 v 1 h 1 v 1 h 1 v 1 h 1 v 1 h 1.000005 v 1 H 101 v 1 h 2 v -1 h 1 v -2 h 1 v -2 h 1 v -2 h 1 v -2 h 1 v -2 h 1 v -2 h 1 v -2 h 1 V 9 h 1 V 7 h -1 V 6 Z M 37.000005,9.9999997 V 11 h 12 V 9.9999997 h -1 z m 12,1.0000003 v 1 h 4 v -1 h -1 z m 4,1 v 1 h 2 v -1 h -1 z m 2,1 v 1 h 2 v -1 h -1 z m 2,1 v 1 h 1 v -1 z m 1,1 v 1 h 1 v -1 z m 1,1 v 1 h 1 v -1 z m 1,1 v 1 h 1 v -1 z m 1,1 v 1 h 1 v -1 z m 1,1 v 1 h 1 v -1 z m 1,1 v 2 h 1 v -2 z m 1,2 v 2 h 1 v -2 z m 1,2 v 3 h 1 v -2 -1 z m 1,3 v 2 h 1 v -1 h 1 v -1 z m 2,0 h 2 v -1 h -2 z m 2,-1 h 2 v -1 h -2 z m 2,-1 h 4 v -1 h -1 -3 z m 4,0 v 1 h 2 v -1 h -1 z m 2,1 v 1 h 1 v -1 z m 1,1 v 3 h -3 v 1 h -2 v 1 h -1 v 1 h -1 v 1 h -1 v 1 h -1 v 1 h -1 v 1 h -1 v 1 h -1 v 1 h -1 v 1 h -1 v 1 h -1 v 1 h -1 v 1 h 2 v 1 h 2 v 1 h 4 v -1 h 4 v -1 h -2 -3 v -1 h 1 v -1 h 1 v -1 h 1 v -1 h 1 v -1 h 1 v -1 h 1 v -1 h 1 v -1 h 1 v -1 h 1 v -2 h 1 v -5 z m -4,16 h 5 v -1 h -1 -4 z m 5,0 v 4 h 1 v -1 -3 z m 0,4 h -1 v 1 h 1 z m -1,1 h -1 v 1 h 1 z m -1,1 h -1 v 1 h 1 z m -1,1 h -2 v 1 h 2 z m -2,1 h -3 v 1 h 2 1 z m -3,1 h -3 v 1 h -3 v 1 h -3 v 1 h -4 v 1 h 2 v 1 h 2 v 1 h 5 v -1 h 2 v -1 h 1 v 2 h 1 v -2 z m 0,6 v 4 h 1 v -2 h 4 v -1 h -2 -2 v -1 z m 5,1 h 2 v -1 h -2 z m 2,-1 h 2 v -1 h -2 z m 2,-1 h 2 v -1 h -2 z m 2,-1 h 1 v -1 h -1 z m 1,-1 h 1 v -1 h -1 z m 1,-1 h 1 v -1 h -1 z m 1,-1 h 1 v -1 h -1 z m 1,-1 h 1 v -1 h -1 z m 1,-1 h 1 v -2 h -1 v 1 z m 1,-2 h 1 v -2 h -1 v 1 z m 1,-2 h 1 v -2 h -1 v 1 z m 1,-2 h 1 v -2 h -1 v 1 z m 1,-2 h 1 v -3 h -1 v 1 z m 1,-3 h 1 v -4 h -1 v 1 z m 1,-4 h 3 v -1 h -1 -2 z m 3,0 v 2 h 1 v -2 z m 1,2 v 5 H 100 101 V 42 H 99.000005 V 38 Z M 101,43 v 1 h 1 1 v -1 z m 2,1 v 1 h 1 v -1 z m 1,1 v 2 h 1 v -2 z m 1,2 v 1 5 h 1 v -6 z m 0,6 h -1 v 1 h 1 z m -1,1 h -2 v 1 h 2 z m -2,1 h -2 -1.999995 v 1 H 100 v 2 h 1 v -2 h 1 z m -2,3 h -0.999995 v 1 1 H 100 Z m -0.999995,2 h -1 v 1 1 h 1 z m -1,2 h -1 v 1 1 h 1 z m 0,-7 v -1 h -1 -1 v 1 z m -2,-1 v -2 h -1 v 2 z m -1,-2 v -2 h -1 v 2 z m -1,-2 v -2 -2 h -1 v 4 z m 0,-4 h 1 v -1 h -1 z m 1,-1 h 1 v -1 h -1 z m 1,-1 h 2 v -1 h -2 z m -23,18 v 2 h 1 v -2 z m -6,-17 h -2 -3 v 1 h 5 z m -5,1 h -2 -2 v -1 h -3 v 1 h -7 v 1 h 14 z m -14,0 v -1 h -1 -2 v 1 z m -3,-1 v -1 h -1 -1 v 1 z m -2,-1 v -1 h -1 v 1 z m 15,1 h 2 1 v -1 h -3 z m 3,-1 h 2 v -1 h -2 z m 5,-15 h -1 v 1 h 1 z m -1,1 h -2 v 1 h 2 z m -2,1 h -1 v 1 h 1 z m -1,1 h -2 v 1 h 2 z m -2,1 h -1 v 1 h 1 z m -1,1 h -2 v 1 h 2 z m -22,-23 h -2 -1 v 1 h 3 z m -3,1 h -2 v 1 h 2 z m -2,1 h -2 v 1 h 2 z m -2,1 h -1 v 1 h 1 z m -1,1 h -1 v 1 h 1 z m -1,1 h -1 v 1 h 1 z m -1,1 h -1 v 1 h 1 z m -1,1 h -1 v 1 h 1 z m -1,1 h -1 v 1 h 1 z m -1,1 h -1 v 1 1 h 1 z m -1,2 h -1 v 1 1 h 1 z m -1,2 h -1 v 1 2 h 1 z m -1,3 h -1 v 1 3 h 1 z m -1,4 h -1 v 1 16 h 1 z m 0,17 v 2 4 h 1 v -6 z m 1,6 v 2 2 h 1 v -4 z m 1,4 v 2 2 h 1 v -4 z m 1,4 v 2 h 1 v -2 z m -4,-14 h -1 v 1 3 h 1 z m -1,4 h -1 v 1 2 h 1 z m -1,3 h -1 v 1 3 h 1 z m -1,4 h -1 v 1 2 h 1 z m -1,3 h -1 v 1 1 h 1 z m 22,-39 v 1 h 2 3 v -1 z m 5,1 v 1 h 1 1 v -1 z m 2,1 v 1 h 1 v -1 z m 1,1 v 1 h 1 v -1 z m 1,1 v 2 h 1 v -2 z m 1,2 v 2 3 h 1 v -5 z m 0,5 h -1 v 1 1 h 1 z m -1,2 h -2 v 1 h 2 z m 0,1 v 1 h 1 v -1 z m -2,-1 v -2 h 1 v -5 h -1 v -1 h -1 v -1 h -1 v -1 h -5 v 1 h -1 v 1 h -1 v 1 h -1 v 5 h 1 v 1 h 1 v 2 h 2 v -1 h 5 z m -8,1 h -2 v 3 h 1 v -2 h 1 z m -2,3 h -1 v 1 1 h 1 z m 0,-3 v -1 h -1 v 1 z m -1,-1 v -2 h -1 v 2 z m -1,-2 v -2 -3 h -1 v 5 z m 0,-5 h 1 v -1 -1 h -1 z m 1,-2 h 1 v -1 h -1 z m 1,-1 h 1 v -1 h -1 z m 1,-1 h 2 v -1 h -2 z m 2,3 h 2 v 1 1 h -2 z"
   style="fill:#491d00;fill-opacity:1;stroke:none" />
</svg>
