<svg width="160" height="42" viewBox="0 0 160 42" fill="none" xmlns="http://www.w3.org/2000/svg">
<rect x="1" y="7" width="4" height="28" rx="2" stroke="#FE8A2C" stroke-width="2"/>
<path d="M1 9C1 7.89543 1.89543 7 3 7H24V35H3C1.89543 35 1 34.1046 1 33V9Z" stroke="#FE8A2C" stroke-width="2"/>
<rect x="25" y="1" width="57" height="40" rx="2" stroke="#FE8A2C" stroke-width="2"/>
<path d="M83 16H157C158.105 16 159 16.8954 159 18V23C159 24.1046 158.105 25 157 25H83V16Z" stroke="#FE8A2C" stroke-width="2"/>
<path d="M38.9393 18.9393C38.3536 19.5251 38.3536 20.4749 38.9393 21.0607L48.4853 30.6066C49.0711 31.1924 50.0208 31.1924 50.6066 30.6066C51.1924 30.0208 51.1924 29.0711 50.6066 28.4853L42.1213 20L50.6066 11.5147C51.1924 10.9289 51.1924 9.97918 50.6066 9.3934C50.0208 8.80761 49.0711 8.80761 48.4853 9.3934L38.9393 18.9393ZM70 18.5L40 18.5L40 21.5L70 21.5L70 18.5Z" fill="#FE8A2C"/>
</svg>
