<svg width="44" height="58" viewBox="0 0 44 58" fill="none" xmlns="http://www.w3.org/2000/svg">
<path d="M5 0V18L0 22.6774V31H3V36L0 38.9825V58H44V0H5ZM43.0023 57.0028H0.997732V39.4013L4 36.375V30H1L0.997732 23.0963L6 18.5V0.997249H43.0023V57.0028Z" fill="#FE8A2C"/>
<path d="M14 5H10V16H14V5Z" fill="#FE8A2C"/>
<path d="M20 5H16V16H20V5Z" fill="#FE8A2C"/>
<path d="M26 5H22V16H26V5Z" fill="#FE8A2C"/>
<path d="M32 5H28V16H32V5Z" fill="#FE8A2C"/>
<path d="M38 5H34V16H38V5Z" fill="#FE8A2C"/>
<path d="M10.8921 51H34.1079C34.4398 51.0003 34.766 50.9128 35.0537 50.7462C35.3413 50.5796 35.5802 50.3399 35.7463 50.0511C35.9124 49.7622 35.9999 49.4345 36 49.1009C36.0001 48.7674 35.9127 48.4396 35.7468 48.1507L24.1238 27.943C23.9561 27.6559 23.7167 27.4179 23.4292 27.2524C23.1417 27.087 22.8162 27 22.4849 27C22.1536 27 21.8281 27.087 21.5407 27.2524C21.2532 27.4179 21.0137 27.6559 20.846 27.943L9.25324 48.1507C9.08726 48.4396 8.99992 48.7674 9 49.1009C9.00008 49.4345 9.08759 49.7622 9.25371 50.0511C9.41984 50.3399 9.65873 50.5796 9.94634 50.7462C10.234 50.9128 10.5602 51.0003 10.8921 51V51ZM21.1075 34.1165C21.1075 33.752 21.2515 33.4025 21.508 33.1448C21.7644 32.8871 22.1122 32.7424 22.4749 32.7424C22.8375 32.7424 23.1853 32.8871 23.4418 33.1448C23.6982 33.4025 23.8423 33.752 23.8423 34.1165V42.4926C23.8423 42.673 23.8069 42.8517 23.7382 43.0184C23.6695 43.1851 23.5687 43.3366 23.4418 43.4642C23.3148 43.5918 23.164 43.693 22.9981 43.7621C22.8322 43.8311 22.6544 43.8667 22.4749 43.8667C22.2953 43.8667 22.1175 43.8311 21.9516 43.7621C21.7857 43.693 21.6349 43.5918 21.508 43.4642C21.381 43.3366 21.2803 43.1851 21.2115 43.0184C21.1428 42.8517 21.1075 42.673 21.1075 42.4926V34.1165ZM22.4749 45.847C22.7501 45.843 23.0203 45.9214 23.2511 46.0721C23.4819 46.2229 23.6629 46.4392 23.771 46.6936C23.8791 46.948 23.9095 47.229 23.8582 47.5008C23.807 47.7726 23.6765 48.0229 23.4832 48.2199C23.29 48.417 23.0428 48.5518 22.7731 48.6072C22.5035 48.6627 22.2235 48.6363 21.9687 48.5314C21.714 48.4265 21.4961 48.2478 21.3428 48.0181C21.1894 47.7884 21.1075 47.518 21.1075 47.2414C21.1075 47.0574 21.1437 46.8753 21.214 46.7054C21.2844 46.5356 21.3875 46.3814 21.5174 46.2518C21.6473 46.1222 21.8015 46.0197 21.971 45.9503C22.1405 45.8808 22.322 45.8457 22.505 45.847H22.4749Z" fill="#FE8A2C"/>
</svg>
