<?xml version="1.0" encoding="UTF-8" standalone="no"?>
<svg
   id="svg8"
   version="1.1"
   viewBox="0 0 4.2333332 4.2333335"
   height="16"
   width="16"
   xmlns="http://www.w3.org/2000/svg"
   xmlns:svg="http://www.w3.org/2000/svg"
   xmlns:rdf="http://www.w3.org/1999/02/22-rdf-syntax-ns#"
   xmlns:cc="http://creativecommons.org/ns#"
   xmlns:dc="http://purl.org/dc/elements/1.1/">
  <defs
     id="defs2" />
  <metadata
     id="metadata5">
    <rdf:RDF>
      <cc:Work
         rdf:about="">
        <dc:format>image/svg+xml</dc:format>
        <dc:type
           rdf:resource="http://purl.org/dc/dcmitype/StillImage" />
      </cc:Work>
    </rdf:RDF>
  </metadata>
  <path
     id="rect3493"
     style="fill:#ffffff;stroke:none;stroke-width:0.999999"
     d="M 7 0 L 7 2.0859375 A 5.9999998 5.9999998 0 0 0 4.5253906 3.1113281 L 3.0507812 1.6367188 L 1.6367188 3.0507812 L 3.1113281 4.5253906 A 5.9999998 5.9999998 0 0 0 2.0859375 7 L 0 7 L 0 9 L 2.0859375 9 A 5.9999998 5.9999998 0 0 0 3.1113281 11.474609 L 1.6367188 12.949219 L 3.0507812 14.363281 L 4.5253906 12.888672 A 5.9999998 5.9999998 0 0 0 7 13.914062 L 7 16 L 9 16 L 9 13.914062 A 5.9999998 5.9999998 0 0 0 11.474609 12.888672 L 12.949219 14.363281 L 14.363281 12.949219 L 12.888672 11.474609 A 5.9999998 5.9999998 0 0 0 13.914062 9 L 16 9 L 16 7 L 13.914062 7 A 5.9999998 5.9999998 0 0 0 12.890625 4.5234375 L 14.363281 3.0507812 L 12.949219 1.6367188 L 11.476562 3.109375 A 5.9999998 5.9999998 0 0 0 9 2.0859375 L 9 0 L 7 0 z M 8 4 A 3.9999998 3.9999998 0 0 1 12 8 A 3.9999998 3.9999998 0 0 1 8 12 A 3.9999998 3.9999998 0 0 1 4 8 A 3.9999998 3.9999998 0 0 1 8 4 z "
     transform="scale(0.26458333)" />
</svg>
